<svg id="Ebene_1" data-name="Ebene 1" xmlns="http://www.w3.org/2000/svg" viewBox="0 0 219.97 207.4"><defs><style>.cls-1{fill:#141412;}.cls-2{fill:#fff;}</style></defs><path class="cls-1" d="M126,33.67l25.19-4.41,12.09,69.07,42.49-7.43,3.49,20-67.67,11.85Z"/><path class="cls-1" d="M192.9,197.16l4.46-37.65L175.3,187.88l-8.92-1.11L151.9,154.9l-4.55,36.61-18.56-2.3,8.81-71,16.54,2.05L174,164.33l29.42-38L220,128.43l-8.61,71Z"/><path class="cls-1" d="M110.08,46.91a134,134,0,0,0-17.79-6.66A79.48,79.48,0,0,1,78.47,35c-2.83-1.55-4.12-3.61-3.89-6.18a7.24,7.24,0,0,1,4.28-5.93q3.93-2.07,12-1.35,12.95,1.17,26,9.83l10.21-19.49a57.77,57.77,0,0,0-15.68-7.72A83.59,83.59,0,0,0,93,.34Q79-.9,69.1,2.37T53.71,12.31c-.25.3-.48.62-.72.94V46.34a30.7,30.7,0,0,0,10,7.6,137,137,0,0,0,17.72,6.65,82.11,82.11,0,0,1,14,5.49q4.3,2.4,3.93,6.52-.7,7.86-16.4,6.45a57.7,57.7,0,0,1-16.56-4.12A60.32,60.32,0,0,1,53,68V93.4c1.53.67,3.13,1.3,4.81,1.91a89.24,89.24,0,0,0,22.46,4.93Q94,101.47,104,98.13t15.46-9.92a27.28,27.28,0,0,0,6.22-15.27q.9-10.05-3.87-16.37A31.64,31.64,0,0,0,110.08,46.91Z"/><path class="cls-1" d="M39.86,194.53a16,16,0,0,1-3.07,5.77L31.91,198a17.24,17.24,0,0,0,2.79-5.09,18.91,18.91,0,0,0,1.15-6.1,10.47,10.47,0,0,0-1.13-5.69,3.67,3.67,0,0,0-3.18-1.93,3.11,3.11,0,0,0-2.43,1,7.39,7.39,0,0,0-1.53,2.63c-.37,1.06-.8,2.52-1.29,4.36a52,52,0,0,1-1.95,6.28,10.53,10.53,0,0,1-3,4.09A7.86,7.86,0,0,1,16,199.22a9.09,9.09,0,0,1-5.11-1.62,10.45,10.45,0,0,1-3.6-4.69,18.85,18.85,0,0,1-1.23-7.6,23.88,23.88,0,0,1,.88-6.12A16.89,16.89,0,0,1,9.27,174l4.88,2.08a19.79,19.79,0,0,0-2.07,4.64,17.42,17.42,0,0,0-.77,4.72,9.85,9.85,0,0,0,1.18,5.6,3.89,3.89,0,0,0,3.33,1.88,3,3,0,0,0,2.4-1,7.61,7.61,0,0,0,1.51-2.63c.37-1.06.8-2.52,1.29-4.36a46.11,46.11,0,0,1,1.93-6.2,10.62,10.62,0,0,1,3-4.12A7.63,7.63,0,0,1,31.21,173a8.92,8.92,0,0,1,5.08,1.62,10.43,10.43,0,0,1,3.58,4.71,19,19,0,0,1,1.24,7.62A26.19,26.19,0,0,1,39.86,194.53Z"/><path class="cls-1" d="M39.33,157.86a16.76,16.76,0,0,1-6.4,6.46,17.16,17.16,0,0,1-9,2.24A17.19,17.19,0,0,1,15,164a16.71,16.71,0,0,1-6.17-6.68,20.64,20.64,0,0,1,.31-18.8,16.85,16.85,0,0,1,6.37-6.47,17.26,17.26,0,0,1,9-2.23,17.19,17.19,0,0,1,9,2.53,16.86,16.86,0,0,1,6.15,6.68,20.66,20.66,0,0,1-.31,18.81Zm-4.56-15.62a11.12,11.12,0,0,0-4.22-4.36,12.17,12.17,0,0,0-6.13-1.66,12.23,12.23,0,0,0-6.19,1.45,11.13,11.13,0,0,0-4.36,4.22A12.36,12.36,0,0,0,12.23,148a12.19,12.19,0,0,0,1.44,6.16,11,11,0,0,0,4.21,4.36A12.3,12.3,0,0,0,24,160.18a12.33,12.33,0,0,0,6.19-1.45,11.13,11.13,0,0,0,4.36-4.22,13,13,0,0,0,.21-12.27Z"/><path class="cls-1" d="M40.05,114.48a16.7,16.7,0,0,1-6.36,6.42,17.35,17.35,0,0,1-9.06,2.21,17.18,17.18,0,0,1-9-2.53,16.87,16.87,0,0,1-6.15-6.66,20.51,20.51,0,0,1-.52-17,15.51,15.51,0,0,1,4.33-5.77l3.78,4.15a12,12,0,0,0-4.15,9,12.81,12.81,0,0,0,1.43,6.31,11.16,11.16,0,0,0,4.19,4.4,12.27,12.27,0,0,0,6.16,1.66A12.18,12.18,0,0,0,31,115.28,11,11,0,0,0,35.29,111a12.85,12.85,0,0,0,1.64-6.26A11.88,11.88,0,0,0,33,95.58l4-4a15.41,15.41,0,0,1,4.14,5.94,19.63,19.63,0,0,1,1.34,7.69A19.2,19.2,0,0,1,40.05,114.48Z"/><path class="cls-1" d="M8.26,82.55l.11-6.33,34.09.57-.1,6.33Z"/><path class="cls-1" d="M35.14,42.9,34.85,60l7.84,3.49L42.58,70,8.74,54.06l.1-6.24L43.2,33l-.11,6.63Zm-5,2-15,6.18,14.8,6.64Z"/><path class="cls-1" d="M9.22,25.66l.1-6.33,28.74.48L38.35,2l5.36.09-.4,24.16Z"/><path class="cls-1" d="M111.83,100.05,84.3,94.71,52.6,140.3v46.31l8.89-13.69,41.8,8.12,4,20.71,29.09,5.65ZM73.68,153.9l18.85-29.17,6.57,34.1Z"/><circle class="cls-2" cx="126.81" cy="104.22" r="28.25"/><polyline class="cls-1" points="113.82 89.21 145.48 99.27 121.83 123.7"/></svg>