<svg id="Ebene_1" data-name="Ebene 1" xmlns="http://www.w3.org/2000/svg" viewBox="0 0 151.12 173.16"><defs><style>.cls-1{fill:#ccc;}.cls-2{fill:#fff;}.cls-3{fill:#ff0136;}.cls-4{fill:#c1272d;}</style></defs><path class="cls-1" d="M92.51,9.46c14.09,4.63,13.79,4.77,32.33,15.75a6.08,6.08,0,0,1,2.46,3.29c.18.79-27.93,47.73-50.84,42C55.4,62.19,61.59,23.22,66.71,6.51,67.72,3,70,3.07,73,4.33A131.48,131.48,0,0,1,92.51,9.46Z"/><path d="M92.14,11c2,.64,3.89,1.28,5.83,1.95l2.31.82,1,.39.26.1-.08,0,.61.25A69.55,69.55,0,0,1,110,18.29c4.1,2.29,8.11,4.73,12.14,7.12,1.24.73,2.38,1.21,3.16,2.4a5.28,5.28,0,0,1,.38.67c.07.16,0,.5.08.06s.07-.53,0-.32c.16-.63.1-.26,0,0l-.3.57a107.36,107.36,0,0,1-6.87,10.57c-.45.62-.9,1.25-1.36,1.87l-.65.87c-.23.31.14-.19,0,0l-.18.24-.41.54c-1,1.32-2,2.62-3.09,3.91-2.23,2.72-4.56,5.37-7,7.9A81.78,81.78,0,0,1,98,61.78l-.31.24-.52.4-1,.76c-.67.49-1.36,1-2.06,1.41A38.92,38.92,0,0,1,89.92,67l-1,.48c-.26.12,0,0,0,0l-.32.14-.54.22q-1.06.42-2.16.75c-.68.2-1.36.38-2,.52l-.54.1-.22,0c-.37.07.36,0,0,0s-.71.1-1.07.13a18.24,18.24,0,0,1-2.09.06c-.33,0-.67,0-1-.06s.22,0-.16,0l-.58-.08c-.33-.06-.67-.12-1-.2a2,2,0,0,0-.26-.06c.28,0,.19.08,0,0s-.48-.2-.71-.3a18.57,18.57,0,0,1-2.11-1.13c-.35-.22-.69-.45-1-.68-.06,0-.24-.18,0,0l-.2-.14-.57-.46a20.45,20.45,0,0,1-1.73-1.62l-.77-.87-.15-.19c.22.27,0,0,0,0l-.41-.53c-.48-.65-.92-1.33-1.33-2s-.79-1.44-1.15-2.19l-.07-.16c.09.21-.08-.17-.08-.17L66.46,58c-.17-.42-.34-.85-.5-1.28a40.21,40.21,0,0,1-1.45-5.07c-.09-.41-.17-.82-.25-1.23,0-.23-.09-.46-.13-.69s0-.19,0-.28c0,.32,0-.17,0-.23-.14-.92-.27-1.85-.36-2.78-.21-1.9-.32-3.81-.36-5.72A96.14,96.14,0,0,1,63.83,29c0-.08.05-.4,0-.1,0-.1,0-.2,0-.3s0-.49.08-.74c.05-.48.11-1,.18-1.46.12-1,.26-1.93.4-2.89q.42-2.7.94-5.39c.62-3.15,1.36-6.29,2.24-9.38.2-.73.4-1.46.64-2.18l0-.1c0-.12.11-.24.17-.36s.38-.6.18-.35a3.81,3.81,0,0,1,.44-.46c-.34.29,0,0,0,0l.2-.11c-.18.07-.21.09-.1.05s.61-.13.22-.09c.21,0,.42,0,.62,0s.32,0,0,0l.34.05c.27,0,.53.12.79.19.63.19.88.36,1.4.51.72.19,1.52.25,2.26.39a125.74,125.74,0,0,1,14.76,3.9c.84.27,1.67.54,2.5.84a1.56,1.56,0,1,0,.74-3c-3.19-1.13-6.44-2.09-9.71-3C80.36,4.21,77.52,3.53,74.65,3l-1.08-.18,0,.06-.36-.14-.52-.2a8.31,8.31,0,0,0-1.55-.44,5.28,5.28,0,0,0-3.35.33c-1.93.94-2.49,3.09-3,5-.42,1.48-.82,3-1.18,4.46q-1.29,5.3-2.12,10.7a93,93,0,0,0-.95,24.09c.79,7.23,2.81,14.84,8,20.3,2.26,2.38,5.43,4.68,8.73,5.26a20.77,20.77,0,0,0,9.27-.6C93.16,69.72,99,65.4,104,60.85a116,116,0,0,0,14.42-16,141.13,141.13,0,0,0,8.92-13,11,11,0,0,0,1.5-2.89A3.86,3.86,0,0,0,128,26.2a9.64,9.64,0,0,0-3.48-3c-2.49-1.48-5-3-7.48-4.44-3.14-1.85-6.29-3.72-9.58-5.33a78.6,78.6,0,0,0-8.78-3.55c-1.91-.66-3.84-1.3-5.77-1.93A1.59,1.59,0,0,0,91,9.08,1.61,1.61,0,0,0,92.14,11Z"/><path d="M89.87,45.56c17,7.41,14.37,2.31,3.06,13.51a6.89,6.89,0,0,1-7.64,2.76c-6.82-.37-12.75-4.45-14.19-11.34-.26-2.35-2.89-12.65,1-10.82C72.09,39.67,83.87,43.36,89.87,45.56Z"/><path d="M86.85,30.78c-.71-1.22-2.3-1.62-3.72-1.65a14.64,14.64,0,0,1-4.24-.23A9.12,9.12,0,0,1,76,27a1.77,1.77,0,0,1-.61-.75,1.62,1.62,0,0,1,0-.62,9.44,9.44,0,0,1,2-5.21,1.71,1.71,0,0,1,.81-.65,1.89,1.89,0,0,1,1.1.1,19.7,19.7,0,0,1,6.06,2.85c2.11,1.57,3.78,4,3.53,6.63a2,2,0,0,1-.73,1.54c-.5.32-1.34.1-1.41-.49Z"/><path d="M94.94,34.29c1.37-.39,2.79.42,3.84,1.37A14.2,14.2,0,0,0,102,38.4a9.07,9.07,0,0,0,3.43.66,1.83,1.83,0,0,0,1-.12,1.71,1.71,0,0,0,.47-.42A9.45,9.45,0,0,0,109,33.37a1.8,1.8,0,0,0-.13-1,2,2,0,0,0-.88-.68,19.63,19.63,0,0,0-6.35-2.1c-2.62-.32-5.54.32-7.16,2.36A2,2,0,0,0,94,33.53c.14.58.9,1,1.36.62Z"/><path class="cls-2" d="M49.93,160.62l.15.11h0Z"/><path class="cls-2" d="M50.12,160.76l0,0Z"/><path class="cls-2" d="M57.54,165c-.31-.13-.13,0,0,0Z"/><path class="cls-2" d="M136.89,70.1c0-.38,0-.65,0,0Z"/><path class="cls-2" d="M34.92,141a75,75,0,0,0,4.95,8.66c.48.72,1,1.43,1.49,2.12l.66.89.22.27.22.28c1,1.2,2,2.38,3.09,3.49a41,41,0,0,0,3.35,3.11l1,.81.18.13,0,0,.18.13c.59.43,1.19.85,1.8,1.24A34.13,34.13,0,0,0,56,164.34l1.25.58.31.13,0,0c.73.27,1.45.56,2.19.8A36.67,36.67,0,0,0,64.2,167c.47.09,1,.18,1.44.24.17,0,.29,0,.22,0H66q1,0,1.92-.09l1.1-.11h.11l.19,0c.63-.11,1.25-.22,1.88-.35a35.44,35.44,0,0,0,3.79-1c.65-.22,1.28-.47,1.92-.72h0l.38-.17.94-.43c1.21-.57,2.39-1.2,3.53-1.87s2.46-1.53,3.63-2.36l.89-.65c.15-.1.29-.21.43-.32l0,0c.56-.45,1.12-.88,1.67-1.34a76.2,76.2,0,0,0,6.6-6.23q1.62-1.71,3.16-3.51c.53-.62,1.06-1.25,1.58-1.88l.78-1,.52-.65A155.72,155.72,0,0,0,112.2,128c3.39-5.75,6.49-11.66,9.36-17.68q2-4.25,3.92-8.56l.51-1.17c.07-.18.15-.35.22-.53l0,0h0c.26-.63.53-1.25.79-1.88.57-1.35,1.12-2.7,1.66-4.06a197.72,197.72,0,0,0,7.87-22.49c.07-.26.13-.51.19-.77a9.93,9.93,0,0,0-.91-.94c-2-1.84-4.29-2.21-6.89-3-8.49-2.58-17-5.26-25.51-7.62a135,135,0,0,0-16.17-3.51L86,55.55h0l-.35,0-2.07-.25c-1.53-.18-3.07-.33-4.61-.48-3.86-.36-7.72-.67-11.59-1-1.65-.16-3.31-.29-5-.41a241.21,241.21,0,0,0-27.55-.58v88.06A.36.36,0,0,1,34.92,141ZM81.15,91.23c2.07-4.48,7.15-7,12.1-7.57a37.35,37.35,0,0,1,12.62,1,3.72,3.72,0,0,1,1.91.86,3.2,3.2,0,0,1,.7,1.83,17.8,17.8,0,0,1-1.65,10.43,3,3,0,0,1-.68,1,3.39,3.39,0,0,1-1.7.64,17.08,17.08,0,0,1-6.59.34c-2.63-.56-4.81-2.3-7.16-3.59s-5.11-2-7.4-.91a1.89,1.89,0,0,1-2.41-.83A3.74,3.74,0,0,1,81.15,91.23ZM44.42,77.85a3.33,3.33,0,0,1,1.2-1.56A3.67,3.67,0,0,1,47.7,76,37.38,37.38,0,0,1,60.1,78.5c4.59,1.94,8.76,5.72,9.48,10.6a3.76,3.76,0,0,1-.66,3.14,1.89,1.89,0,0,1-2.56.13c-1.88-1.7-4.83-1.72-7.36-1.15s-5.2,1.66-7.88,1.47a17.22,17.22,0,0,1-6.24-2.14,3.38,3.38,0,0,1-1.45-1.09,3,3,0,0,1-.37-1.13A17.91,17.91,0,0,1,44.42,77.85Zm-1,37.69s23.31,1.49,35.31,2.82c34.61,6,27.45-2.22,11.7,23.45a13,13,0,0,1-12.78,8.5C65,152.7,52.26,147.88,46.51,135.87,45,131.66,35.52,113.91,43.46,115.54Z"/><path d="M140.07,65.66a18.41,18.41,0,0,0-7.73-4c-5.25-1.59-10.49-3.2-15.74-4.78-6.61-2-13.25-4-20-5.49a149.37,149.37,0,0,0-17.73-2.58c-3.82-.36-7.65-.65-11.47-1-6.37-.63-12.78-1-19.18-1.09-4.44-.1-8.9-.09-13.34.1v5.91a241.21,241.21,0,0,1,27.55.58c1.66.12,3.32.25,5,.41,3.87.3,7.73.61,11.59,1,1.54.15,3.08.3,4.61.48l2.07.25.35,0h0l1.23.17a135,135,0,0,1,16.17,3.51c8.56,2.36,17,5,25.51,7.62,2.6.79,4.92,1.16,6.89,3a9.93,9.93,0,0,1,.91.94c-.06.26-.12.51-.19.77a197.72,197.72,0,0,1-7.87,22.49c-.54,1.36-1.09,2.71-1.66,4.06-.26.63-.53,1.25-.79,1.88h0l0,0c-.07.18-.15.35-.22.53l-.51,1.17q-1.89,4.32-3.92,8.56c-2.87,6-6,11.93-9.36,17.68a155.72,155.72,0,0,1-11.07,16.46l-.52.65-.78,1c-.52.63-1,1.26-1.58,1.88q-1.55,1.8-3.16,3.51a76.2,76.2,0,0,1-6.6,6.23c-.55.46-1.11.89-1.67,1.34l0,0c-.14.11-.28.22-.43.32l-.89.65c-1.17.83-2.38,1.62-3.63,2.36s-2.32,1.3-3.53,1.87l-.94.43-.38.17h0c-.64.25-1.27.5-1.92.72a35.44,35.44,0,0,1-3.79,1c-.63.13-1.25.24-1.88.35l-.19,0h-.11l-1.1.11q-1,.08-1.92.09h-.18c.07,0,0,.06-.22,0-.48-.06-1-.15-1.44-.24a36.67,36.67,0,0,1-4.39-1.12c-.74-.24-1.46-.53-2.19-.8l0,0-.31-.13L56,164.34a34.13,34.13,0,0,1-3.91-2.21c-.61-.39-1.21-.81-1.8-1.24l-.18-.13,0,0-.15-.11.14.1-.18-.13-1-.81a41,41,0,0,1-3.35-3.11c-1.09-1.11-2.11-2.29-3.09-3.49l-.22-.28-.22-.27-.66-.89c-.51-.69-1-1.4-1.49-2.12A75,75,0,0,1,34.92,141a.36.36,0,0,0,0-.09v12a50.2,50.2,0,0,0,14.29,14.42c5.21,3.35,12.06,6.16,18.39,5.73a39.26,39.26,0,0,0,16.76-5.26c11.38-6.5,20.08-17,27.28-27.67a221.39,221.39,0,0,0,19.29-35.93,268.11,268.11,0,0,0,10.53-27.91c.56-1.84,1.49-4,1.47-6C142.88,68.48,141.32,66.82,140.07,65.66ZM57.54,165ZM136.89,70.1c0-.65,0-.38,0,0Z"/><path d="M50.08,160.73l0,0,0,0Z"/><path d="M65.53,167.19h0Z"/><path d="M77.69,150.31a13,13,0,0,0,12.78-8.5c15.75-25.67,22.91-17.49-11.7-23.45-12-1.33-35.31-2.82-35.31-2.82-7.94-1.63,1.51,16.12,3,20.33C52.26,147.88,65,152.7,77.69,150.31Z"/><path d="M43.43,89.46a3.38,3.38,0,0,0,1.45,1.09,17.22,17.22,0,0,0,6.24,2.14c2.68.19,5.26-.88,7.88-1.47s5.48-.55,7.36,1.15a1.89,1.89,0,0,0,2.56-.13,3.76,3.76,0,0,0,.66-3.14c-.72-4.88-4.89-8.66-9.48-10.6A37.38,37.38,0,0,0,47.7,76a3.67,3.67,0,0,0-2.08.3,3.33,3.33,0,0,0-1.2,1.56,17.91,17.91,0,0,0-1.36,10.48A3,3,0,0,0,43.43,89.46Z"/><path d="M83.3,95.26c2.29-1.13,5.13-.33,7.4.91s4.53,3,7.16,3.59a17.08,17.08,0,0,0,6.59-.34,3.39,3.39,0,0,0,1.7-.64,3,3,0,0,0,.68-1,17.8,17.8,0,0,0,1.65-10.43,3.2,3.2,0,0,0-.7-1.83,3.72,3.72,0,0,0-1.91-.86,37.35,37.35,0,0,0-12.62-1c-5,.6-10,3.09-12.1,7.57a3.74,3.74,0,0,0-.26,3.2A1.89,1.89,0,0,0,83.3,95.26Z"/><path d="M23.57,163.77a12,12,0,0,1-4.49,4.7,12.53,12.53,0,0,1-6.48,1.69,12.45,12.45,0,0,1-6.48-1.71,12.11,12.11,0,0,1-4.49-4.71A13.76,13.76,0,0,1,0,157a14,14,0,0,1,1.05-5.5,11.33,11.33,0,0,1,3.05-4.2l2.76,2.94A8.61,8.61,0,0,0,4,156.83a9.21,9.21,0,0,0,1.1,4.51,8,8,0,0,0,3.07,3.12,8.82,8.82,0,0,0,4.44,1.12A8.82,8.82,0,0,0,17,164.46a8,8,0,0,0,3.07-3.12,9.21,9.21,0,0,0,1.1-4.51,8.57,8.57,0,0,0-2.9-6.55l2.8-2.94a11.21,11.21,0,0,1,3,4.22,14.13,14.13,0,0,1,1.05,5.51A13.7,13.7,0,0,1,23.57,163.77Z"/><path d="M23.57,138.8a12.08,12.08,0,0,1-4.51,4.73,12.45,12.45,0,0,1-6.46,1.71,12.45,12.45,0,0,1-6.46-1.71,12.08,12.08,0,0,1-4.51-4.73,14.81,14.81,0,0,1,0-13.51,12.07,12.07,0,0,1,4.49-4.72,12.36,12.36,0,0,1,6.48-1.72,12.36,12.36,0,0,1,6.48,1.72,12.07,12.07,0,0,1,4.49,4.72,14.81,14.81,0,0,1,0,13.51Zm-3.46-11.16A7.93,7.93,0,0,0,17,124.56a8.81,8.81,0,0,0-4.43-1.12,8.81,8.81,0,0,0-4.43,1.12,7.93,7.93,0,0,0-3.08,3.08,9.39,9.39,0,0,0,0,8.82,8.06,8.06,0,0,0,3.08,3.08,8.92,8.92,0,0,0,4.43,1.12A8.92,8.92,0,0,0,17,139.54a8.06,8.06,0,0,0,3.08-3.08,9.39,9.39,0,0,0,0-8.82Z"/><path d="M24.85,91.52l-16.24,0,13.44,8v2L8.82,109.68h16V114H.35v-3.74l16.24-9.73L.35,91V87.25l24.5,0Z"/><path d="M21,62.22h3.81V80.6H.35V62.71H4.17V76.05h6.37V64.22h3.74V76.05H21Z"/><path d="M.35,57.15V46.44a15.47,15.47,0,0,1,1.52-7,11.27,11.27,0,0,1,4.31-4.72,12.15,12.15,0,0,1,6.42-1.68A12.15,12.15,0,0,1,19,34.75a11.27,11.27,0,0,1,4.31,4.72,15.47,15.47,0,0,1,1.52,7V57.15ZM21,46.65a10.34,10.34,0,0,0-1-4.74A7.35,7.35,0,0,0,17,38.76a8.65,8.65,0,0,0-4.43-1.11,8.67,8.67,0,0,0-4.43,1.11,7.35,7.35,0,0,0-2.94,3.15,10.34,10.34,0,0,0-1,4.74v6H21Z"/><path d="M16.21,18.72h8.64v4.55H16.28L.35,32.89V28l11.94-7.18L.35,13.61V9.13Z"/><path class="cls-3" d="M130.77,53c8.35,2.16,15,8.53,17,15.95.43,1.66,3.25,1,2.82-.68-1.42-5.45-10.65-15.58-19.21-17.79a1.3,1.3,0,1,0-.6,2.52Z"/><path class="cls-4" d="M130.77,53a26.36,26.36,0,0,1,12.77,7.62A20.79,20.79,0,0,1,147.59,67c.26.59.41,1.23.62,1.81a.84.84,0,0,0,1,.57,1,1,0,0,0,.95-.69.89.89,0,0,0,0-.28c0-.1-.08-.27-.12-.4-.09-.28-.19-.56-.31-.84A26.46,26.46,0,0,0,145.74,61a41.49,41.49,0,0,0-5.21-5.31,29.72,29.72,0,0,0-6.22-4.12,18.48,18.48,0,0,0-1.73-.71,9.24,9.24,0,0,0-.89-.29,2.22,2.22,0,0,0-.91-.16,1.24,1.24,0,0,0-1.14,1.25A1.38,1.38,0,0,0,130.77,53Zm0,0a1.39,1.39,0,0,1-1.15-1.31,1.26,1.26,0,0,1,1.15-1.28,2.44,2.44,0,0,1,.93.13c.31.08.61.17.91.27.59.19,1.18.42,1.76.67a30.05,30.05,0,0,1,6.47,3.85,39.73,39.73,0,0,1,5.56,5.14,24.68,24.68,0,0,1,4.21,6.36,7.32,7.32,0,0,1,.33.93,4.39,4.39,0,0,1,.14.5,1.77,1.77,0,0,1,0,.65,1.8,1.8,0,0,1-.71,1.07,2.41,2.41,0,0,1-1.11.4,2,2,0,0,1-1.19-.27,1.69,1.69,0,0,1-.75-1c-.19-.6-.31-1.19-.54-1.76a20.54,20.54,0,0,0-3.62-6.4A23.89,23.89,0,0,0,130.77,53Z"/><path class="cls-3" d="M134.87,47a19.71,19.71,0,0,1,2.37.63c.38.13.77.27,1.15.42l.28.11.06,0,.56.26a21.07,21.07,0,0,1,2.14,1.17c.35.22.69.45,1,.68l.49.37c-.1-.08-.08-.07.06,0l.24.2a1.54,1.54,0,0,0,2.12,0,1.51,1.51,0,0,0,0-2.12,22.76,22.76,0,0,0-9.69-4.69,1.55,1.55,0,0,0-1.85,1A1.53,1.53,0,0,0,134.87,47Z"/><path class="cls-3" d="M58.91,11.15c.16-4.23,1.73-8.91,6.54-9.81.91-.17.13-1.66-.7-1.28a12.84,12.84,0,0,0-7.27,11.07.72.72,0,0,0,1.43,0Z"/><path class="cls-3" d="M55.4,8.39a9,9,0,0,1,.32-1.16c.06-.19.13-.37.21-.56a.78.78,0,0,0,0-.14c0,.06,0,0,0,0s.08-.18.13-.27a8.12,8.12,0,0,1,.58-1A5.25,5.25,0,0,1,57,4.7l.18-.24s0,0,0,0l.09-.12a.77.77,0,0,0,0-1,.7.7,0,0,0-1,0A11.19,11.19,0,0,0,54,8a.74.74,0,0,0,.48.91.72.72,0,0,0,.89-.49Z"/><path class="cls-3" d="M113.73,158.6a24.08,24.08,0,0,1-11.48,11.78,1.5,1.5,0,1,0,1.52,2.59,26.64,26.64,0,0,0,12.55-12.85,1.53,1.53,0,0,0-.53-2.05,1.52,1.52,0,0,0-2.06.53Z"/><path class="cls-3" d="M120.28,162.61l-4.44,5.6a1.61,1.61,0,0,0-.44,1.06,1.5,1.5,0,0,0,2.56,1.06l4.44-5.6a1.63,1.63,0,0,0,.44-1.06,1.5,1.5,0,0,0-2.56-1.06Z"/></svg>