<svg width="30" height="30" viewBox="0 0 30 30" fill="none" xmlns="http://www.w3.org/2000/svg">
<path d="M15.0003 0C10.9231 0 10.4149 0.0196875 8.81932 0.0871875C7.21714 0.165937 6.13339 0.414375 5.17714 0.785625C4.17632 1.16346 3.26995 1.75501 2.5212 2.51906C1.75502 3.26606 1.16313 4.17294 0.787761 5.175C0.416511 6.13125 0.168074 7.215 0.0893237 8.81719C0.0171362 10.4137 0.00213623 10.9209 0.00213623 14.9981C0.00213623 19.0753 0.0218237 19.5834 0.0893237 21.1791C0.168074 22.7766 0.416511 23.865 0.787761 24.8212C1.16559 25.8221 1.75715 26.7284 2.5212 27.4772C3.2682 28.2434 4.17507 28.8353 5.17714 29.2106C6.13339 29.5772 7.22182 29.8303 8.81932 29.9091C10.4159 29.9813 10.9231 29.9963 15.0003 29.9963C19.0774 29.9963 19.5856 29.9766 21.1812 29.9091C22.7787 29.8303 23.8671 29.5763 24.8234 29.2106C25.8242 28.8328 26.7306 28.2412 27.4793 27.4772C28.2465 26.731 28.8385 25.8239 29.2128 24.8212C29.5793 23.865 29.8324 22.7766 29.9112 21.1791C29.9834 19.5825 29.9984 19.0753 29.9984 14.9981C29.9984 10.9209 29.9787 10.4128 29.9112 8.81719C29.8324 7.21969 29.5784 6.12563 29.2128 5.175C28.8349 4.17418 28.2434 3.26781 27.4793 2.51906C26.7331 1.7519 25.826 1.15986 24.8234 0.785625C23.8671 0.414375 22.7787 0.165937 21.1812 0.0871875C19.5846 0.015 19.0774 0 15.0003 0ZM15.0003 2.7C19.0043 2.7 19.4824 2.71969 21.0649 2.78719C22.5246 2.85563 23.3196 3.09938 23.8474 3.30562C24.5 3.54649 25.0906 3.92986 25.5762 4.42781C26.0733 4.9114 26.4552 5.50064 26.6937 6.15188C26.8999 6.67969 27.1437 7.47469 27.2121 8.93437C27.2796 10.5169 27.2993 10.9959 27.2993 14.9991C27.2993 19.0022 27.2796 19.4813 27.2065 21.0638C27.1278 22.5234 26.884 23.3184 26.6787 23.8463C26.3946 24.5503 26.0778 25.0425 25.5546 25.575C25.0674 26.0698 24.4771 26.4514 23.8259 26.6925C23.3046 26.8988 22.4984 27.1425 21.0331 27.2109C19.4421 27.2784 18.9734 27.2981 14.959 27.2981C10.9446 27.2981 10.4768 27.2784 8.88401 27.2053C7.42432 27.1266 6.61901 26.8828 6.0912 26.6775C5.3787 26.3934 4.89026 26.0766 4.36714 25.5534C3.83932 25.0256 3.5037 24.5231 3.24495 23.8247C3.03495 23.3034 2.79495 22.4972 2.71714 21.0319C2.6637 19.4597 2.63839 18.9722 2.63839 14.9766C2.63839 10.9828 2.6637 10.4944 2.71714 8.9025C2.79495 7.43719 3.03495 6.63281 3.24495 6.10969C3.5037 5.39625 3.84026 4.90875 4.36714 4.38094C4.88932 3.85875 5.3787 3.52125 6.0912 3.25688C6.61901 3.05156 7.40464 2.80781 8.86995 2.73469C10.4609 2.6775 10.9296 2.65688 14.9384 2.65688L15.0003 2.7ZM15.0003 7.30031C13.989 7.29994 12.9876 7.49885 12.0533 7.88566C11.1189 8.27248 10.27 8.83962 9.55494 9.55468C8.83988 10.2697 8.27274 11.1187 7.88592 12.053C7.49911 12.9874 7.3002 13.9888 7.30057 15C7.3002 16.0112 7.49911 17.0126 7.88592 17.947C8.27274 18.8813 8.83988 19.7303 9.55494 20.4453C10.27 21.1604 11.1189 21.7275 12.0533 22.1143C12.9876 22.5012 13.989 22.7001 15.0003 22.6997C16.0115 22.7001 17.0129 22.5012 17.9472 22.1143C18.8816 21.7275 19.7305 21.1604 20.4456 20.4453C21.1606 19.7303 21.7278 18.8813 22.1146 17.947C22.5014 17.0126 22.7003 16.0112 22.6999 15C22.7003 13.9888 22.5014 12.9874 22.1146 12.053C21.7278 11.1187 21.1606 10.2697 20.4456 9.55468C19.7305 8.83962 18.8816 8.27248 17.9472 7.88566C17.0129 7.49885 16.0115 7.29994 15.0003 7.30031ZM15.0003 19.9997C12.2365 19.9997 10.0006 17.7638 10.0006 15C10.0006 12.2362 12.2365 10.0003 15.0003 10.0003C17.764 10.0003 19.9999 12.2362 19.9999 15C19.9999 17.7638 17.764 19.9997 15.0003 19.9997ZM24.8103 6.99281C24.8098 7.47062 24.6196 7.92869 24.2816 8.26638C23.9435 8.60407 23.4853 8.79375 23.0074 8.79375C22.7712 8.79375 22.5372 8.74722 22.319 8.65681C22.1007 8.56639 21.9024 8.43388 21.7353 8.26682C21.5683 8.09976 21.4357 7.90143 21.3453 7.68316C21.2549 7.46489 21.2084 7.23094 21.2084 6.99469C21.2084 6.75843 21.2549 6.52449 21.3453 6.30622C21.4357 6.08794 21.5683 5.88962 21.7353 5.72256C21.9024 5.5555 22.1007 5.42298 22.319 5.33257C22.5372 5.24216 22.7712 5.19562 23.0074 5.19562C23.9984 5.19562 24.8103 6.00187 24.8103 6.99281Z" fill="#5C63FF"/>
</svg>
