<svg id="Ebene_1" data-name="Ebene 1" xmlns="http://www.w3.org/2000/svg" viewBox="0 0 160.77 171.12"><defs><style>.cls-1{fill:#141412;}.cls-2{fill:#ff0136;}</style></defs><path class="cls-1" d="M88.47,33.72l19.38-3.39,9.3,53.14,32.68-5.72,2.69,15.36-52.06,9.11Z"/><path class="cls-1" d="M139.94,159.49l3.44-29-17,21.82-6.86-.85L108.41,127l-3.5,28.16-14.28-1.77,6.78-54.61,12.72,1.58,15.28,33.9L148.05,105l12.72,1.58-6.63,54.63Z"/><path class="cls-1" d="M76.24,43.91a103.46,103.46,0,0,0-13.69-5.12,61.58,61.58,0,0,1-10.63-4Q48.67,33,48.93,30a5.54,5.54,0,0,1,3.29-4.56c2-1.07,5.1-1.41,9.27-1q10,.88,20,7.56l7.85-15A44.27,44.27,0,0,0,77.31,11,64.55,64.55,0,0,0,63.06,8.09q-10.7-1-18.34,1.56a25,25,0,0,0-11.84,7.64c-.2.24-.37.49-.55.73V43.47a23.35,23.35,0,0,0,7.72,5.85,106.36,106.36,0,0,0,13.63,5.12,63.45,63.45,0,0,1,10.78,4.22c2.2,1.22,3.21,2.9,3,5q-.54,6-12.62,4.95a43.86,43.86,0,0,1-12.73-3.17,45.69,45.69,0,0,1-9.8-5.36V79.68c1.17.51,2.4,1,3.69,1.46A68.85,68.85,0,0,0,53.3,84.93q10.59.94,18.29-1.62a25.35,25.35,0,0,0,11.89-7.63,20.93,20.93,0,0,0,4.79-11.74q.69-7.74-3-12.6A24.41,24.41,0,0,0,76.24,43.91Z"/><path class="cls-1" d="M77.59,84.79,56.41,80.68,32,115.75v35.62l6.84-10.53L71,147.09,74.12,163l22.37,4.35ZM48.24,126.21l14.5-22.43L67.79,130Z"/><circle class="cls-2" cx="89.11" cy="87.99" r="21.73"/><polyline class="cls-1" points="79.12 76.45 103.47 84.19 85.28 102.98"/><path d="M24.4,166.93a11.51,11.51,0,0,1-2.14,4.19l-3.53-1.58a12.37,12.37,0,0,0,1.94-3.69,13.5,13.5,0,0,0,.75-4.39,7.52,7.52,0,0,0-.88-4.08A2.64,2.64,0,0,0,18.23,156a2.26,2.26,0,0,0-1.73.75,5.25,5.25,0,0,0-1.06,1.91c-.26.77-.55,1.82-.88,3.15a36.23,36.23,0,0,1-1.33,4.53,7.46,7.46,0,0,1-2.08,3,5.61,5.61,0,0,1-3.84,1.24,6.58,6.58,0,0,1-3.69-1.1A7.47,7.47,0,0,1,1,166.16a13.5,13.5,0,0,1-1-5.44,17.77,17.77,0,0,1,.56-4.41,12.21,12.21,0,0,1,1.61-3.75L5.71,154a14.19,14.19,0,0,0-1.44,3.36,12.46,12.46,0,0,0-.49,3.39,7.06,7.06,0,0,0,.91,4,2.79,2.79,0,0,0,2.41,1.31,2.18,2.18,0,0,0,1.72-.75,5.49,5.49,0,0,0,1-1.9c.26-.78.55-1.83.88-3.16a32.42,32.42,0,0,1,1.31-4.47,7.66,7.66,0,0,1,2.08-3,5.47,5.47,0,0,1,3.78-1.24,6.52,6.52,0,0,1,3.68,1.1A7.55,7.55,0,0,1,24.22,156a13.72,13.72,0,0,1,1,5.47A18.9,18.9,0,0,1,24.4,166.93Z"/><path d="M4.2,142.41v8.12H.35V129.74H4.2v8.12H24.85v4.55Z"/><path d="M19.18,111.65V123.9l5.67,2.41V131L.35,120V115.5l24.5-11.06v4.76Zm-3.57,1.5L4.9,117.77l10.71,4.59Z"/><path d="M24.85,85.29l-7.17,5c0,.21,0,.52,0,.94v5.53h7.14v4.55H.35V91.24a13.52,13.52,0,0,1,1-5.54,8,8,0,0,1,3-3.63,8.43,8.43,0,0,1,4.65-1.26,8.31,8.31,0,0,1,4.77,1.35,8,8,0,0,1,3,3.87l8.05-5.64ZM5.46,86.94A7,7,0,0,0,4.2,91.45v5.32H14V91.45a6.93,6.93,0,0,0-1.28-4.51A4.44,4.44,0,0,0,9.06,85.4,4.38,4.38,0,0,0,5.46,86.94Z"/><path d="M4.2,71.12v8.12H.35V58.45H4.2v8.12H24.85v4.55Z"/><path d="M4.2,40.39v8.12H.35V27.72H4.2v8.12H24.85v4.55Z"/><path d="M23.57,20a12.08,12.08,0,0,1-4.51,4.73,12.45,12.45,0,0,1-6.46,1.71,12.45,12.45,0,0,1-6.46-1.71A12.08,12.08,0,0,1,1.63,20,13.92,13.92,0,0,1,0,13.2,13.94,13.94,0,0,1,1.63,6.44,12.1,12.1,0,0,1,6.12,1.71,12.45,12.45,0,0,1,12.6,0a12.45,12.45,0,0,1,6.48,1.71,12.1,12.1,0,0,1,4.49,4.73A13.94,13.94,0,0,1,25.2,13.2,13.92,13.92,0,0,1,23.57,20ZM20.11,8.79A7.93,7.93,0,0,0,17,5.71,8.82,8.82,0,0,0,12.6,4.58,8.82,8.82,0,0,0,8.17,5.71,7.93,7.93,0,0,0,5.09,8.79,8.85,8.85,0,0,0,4,13.2a8.91,8.91,0,0,0,1.1,4.41,8.06,8.06,0,0,0,3.08,3.08A8.91,8.91,0,0,0,12.6,21.8,8.91,8.91,0,0,0,17,20.69a8.06,8.06,0,0,0,3.08-3.08,8.91,8.91,0,0,0,1.1-4.41A8.85,8.85,0,0,0,20.11,8.79Z"/></svg>