<svg id="Ebene_1" data-name="Ebene 1" xmlns="http://www.w3.org/2000/svg" viewBox="0 0 165.32 154.68"><defs><style>.cls-1,.cls-4,.cls-5{fill:none;}.cls-2{fill:gray;}.cls-3{fill:#ff0136;}.cls-4{stroke:#000;stroke-width:3px;}.cls-4,.cls-5{stroke-miterlimit:10;}.cls-5{stroke:#b3b3b3;stroke-width:0.75px;}</style></defs><path d="M1.4,139.05a8.07,8.07,0,0,1,3-3.62,8.43,8.43,0,0,1,4.65-1.26,8.44,8.44,0,0,1,4.64,1.26,8,8,0,0,1,3,3.62,13.6,13.6,0,0,1,1.05,5.55v5.53h7.07v4.55H.35V144.6A13.6,13.6,0,0,1,1.4,139.05Zm11.27,1.25a4.38,4.38,0,0,0-3.61-1.54,4.38,4.38,0,0,0-3.6,1.54,7,7,0,0,0-1.26,4.51v5.32h9.73v-5.32A7,7,0,0,0,12.67,140.3Z"/><path d="M23.57,124.58a12.08,12.08,0,0,1-4.51,4.73A12.45,12.45,0,0,1,12.6,131a12.45,12.45,0,0,1-6.46-1.71,12.08,12.08,0,0,1-4.51-4.73,14.81,14.81,0,0,1,0-13.51,12,12,0,0,1,4.49-4.72,12.36,12.36,0,0,1,6.48-1.72,12.36,12.36,0,0,1,6.48,1.72,12,12,0,0,1,4.49,4.72,14.81,14.81,0,0,1,0,13.51Zm-3.46-11.16A7.93,7.93,0,0,0,17,110.34a8.81,8.81,0,0,0-4.43-1.12,8.81,8.81,0,0,0-4.43,1.12,7.93,7.93,0,0,0-3.08,3.08,9.39,9.39,0,0,0,0,8.82,8.06,8.06,0,0,0,3.08,3.08,8.92,8.92,0,0,0,4.43,1.12A8.92,8.92,0,0,0,17,125.32a8.06,8.06,0,0,0,3.08-3.08,9.39,9.39,0,0,0,0-8.82Z"/><path d="M21,81.43h3.81V99.8H.35V81.92H4.17V95.25h6.37V83.42h3.74V95.25H21Z"/><path d="M4.2,71.38V79.5H.35V58.71H4.2v8.12H24.85v4.55Z"/><path d="M24.85,39.25l-7.17,5c0,.21,0,.52,0,.94v5.53h7.14v4.55H.35V45.2a13.6,13.6,0,0,1,1-5.55,8.07,8.07,0,0,1,3-3.62,8.43,8.43,0,0,1,4.65-1.26,8.31,8.31,0,0,1,4.77,1.35,8,8,0,0,1,3,3.87l8.05-5.64ZM5.46,40.9A7,7,0,0,0,4.2,45.41v5.32H14V45.41a6.91,6.91,0,0,0-1.28-4.51,4.44,4.44,0,0,0-3.63-1.54A4.38,4.38,0,0,0,5.46,40.9Z"/><path d="M16.21,19.48h8.64V24H16.27L.35,33.65V28.79l11.94-7.18L.35,14.37V9.89Z"/><path class="cls-1" d="M157.66,19.3c0-.16,0-.31,0-.44A12.92,12.92,0,0,0,154,11.45a23.2,23.2,0,0,0-4.6.7,33.49,33.49,0,0,0-13.58,7.47l15.58-.22,6.26-.1Z"/><path class="cls-1" d="M50.84,145.5l4.28.22.53,0c.58-.19,1.24-.27,1.83-.42,1.31-.34,2.6-.74,3.86-1.2,9.8-3.57,18.1-11.31,23.94-20,14.51-21.44,16-48.47,23.51-72.57,3.78-12,9-24,17.6-33.38a50.38,50.38,0,0,1,8.9-7.76c-3.16-.17-6.32-.35-9.48-.5l-41-2-8-.38c-10.95-.49-20.4,6.21-27.19,14.61C41.62,32.18,37.29,44.9,34,57.08c-.2.73-.38,1.47-.57,2.21V144.6ZM55.71,32.22h44.46a2.54,2.54,0,0,1,0,5.08H55.71a2.54,2.54,0,0,1,0-5.08ZM49.36,51.28H93.82a2.54,2.54,0,1,1,0,5.08H49.36a2.54,2.54,0,0,1,0-5.08ZM43,72.87H87.46a2.54,2.54,0,1,1,0,5.08H43a2.54,2.54,0,0,1,0-5.08ZM36.66,93.19H81.11a2.55,2.55,0,0,1,0,5.09H36.66a2.55,2.55,0,1,1,0-5.09Z"/><path d="M165.07,17.34a19.93,19.93,0,0,0-4.41-9.83,3.87,3.87,0,0,0-3.79-3.69L131,2.59,88.47.56,77.42,0C68-.41,59.41,3.16,52.11,9c-8.52,6.8-14.36,16.25-18.67,26.18V59.29c.19-.74.37-1.48.57-2.21,3.28-12.18,7.61-24.9,15.65-34.84,6.79-8.4,16.24-15.1,27.19-14.61l8,.38,41,2c3.16.15,6.32.33,9.48.5a50.38,50.38,0,0,0-8.9,7.76c-8.56,9.41-13.82,21.36-17.6,33.38-7.56,24.1-9,51.13-23.51,72.57-5.84,8.64-14.14,16.38-23.94,20-1.26.46-2.55.86-3.86,1.2-.59.15-1.25.23-1.83.42l-.53,0-4.28-.22-17.4-.9v7.62L47.6,153c2.74.14,5.55.49,8.3.43a23.81,23.81,0,0,0,6.57-1.59,50.37,50.37,0,0,0,8.06-3.56A57.6,57.6,0,0,0,84,137.84c18.17-18.77,22.36-45.23,28.22-69.61,3-12.32,6.53-24.66,13-35.62a61,61,0,0,1,3.51-5.27l28.28-.4c2.45,0,5-.12,6.76-2.07S165.44,19.89,165.07,17.34ZM151.38,19.4l-15.58.22a33.49,33.49,0,0,1,13.58-7.47,23.2,23.2,0,0,1,4.6-.7,12.92,12.92,0,0,1,3.67,7.41c0,.13,0,.28,0,.44h0Z"/><path d="M49.36,56.36H93.82a2.54,2.54,0,1,0,0-5.08H49.36a2.54,2.54,0,0,0,0,5.08Z"/><path d="M57.36,35.36h44.46a2.54,2.54,0,1,0,0-5.08H57.36a2.54,2.54,0,0,0,0,5.08Z"/><path d="M43,78H87.46a2.54,2.54,0,1,0,0-5.08H43A2.54,2.54,0,0,0,43,78Z"/><path d="M36.66,98.28H81.11a2.55,2.55,0,0,0,0-5.09H36.66a2.55,2.55,0,1,0,0,5.09Z"/><polygon class="cls-2" points="87.14 83 77.56 99.14 95.36 93.93 87.14 83"/><path class="cls-3" d="M138,48.7,89.41,81.82c-.49-.33,5.69,11.5,6.41,11l49.32-33.64A6.35,6.35,0,1,0,138,48.7Z"/><path class="cls-4" d="M138.16,49.35,89.59,82.47c-.49-.34-1-.7-1.47-.53-4.91,1.81-10.4,16.31-10.4,16.31s14,.32,16.18-3.34a2.94,2.94,0,0,0,.29-.79A3,3,0,0,0,96,93.48l49.32-33.64a6.35,6.35,0,1,0-7.16-10.49Z"/><line class="cls-4" x1="88.12" y1="81.94" x2="94.95" y2="94.2"/><line class="cls-5" x1="93.97" y1="84.87" x2="140.14" y2="53.38"/><line class="cls-5" x1="95.76" y1="87.49" x2="141.93" y2="56"/></svg>