<svg id="Ebene_1" data-name="Ebene 1" xmlns="http://www.w3.org/2000/svg" viewBox="0 0 157.74 206.54"><defs><style>.cls-1{fill:#ff0136;}.cls-1,.cls-2,.cls-3{stroke:#000;stroke-linecap:round;stroke-linejoin:round;}.cls-1,.cls-2{stroke-width:6px;}.cls-1,.cls-3,.cls-4{fill-rule:evenodd;}.cls-2{fill:none;}.cls-3,.cls-4{fill:#fff;}.cls-3{stroke-width:4px;}</style></defs><path class="cls-1" d="M154.62,82.64A3.71,3.71,0,0,0,152,78.11L64.44,54.65a3.69,3.69,0,0,0-4.52,2.62L38.16,138.45A3.71,3.71,0,0,0,40.78,143l87.55,23.46a3.7,3.7,0,0,0,4.53-2.61l21.76-81.19Z"/><polyline class="cls-2" points="78.54 58.43 115.83 23.2 133.08 71.98"/><path class="cls-3" d="M72.41,100.76c-5,10.47,1.55,24.11,14.71,30.44s27.93,3,33-7.5c-7.08.47-17.07-1.2-26.58-5.78s-17.05-11.34-21.1-17.16Z"/><path class="cls-3" d="M111.89,87.4c-8.64-4.16-18.75-1.1-22.56,6.81s.11,17.72,8.75,21.88A26.94,26.94,0,0,1,111.89,87.4Z"/><polygon class="cls-4" points="45.43 0 0 0 0 206.54 45.43 206.54 45.43 0 45.43 0"/><path d="M19.85,179.56a1.15,1.15,0,0,1,.45.37,1,1,0,0,1,.13.5,1.28,1.28,0,0,1-.23.66c-.15.24-.32.52-.5.85a7.47,7.47,0,0,0-.5,1.16,4.79,4.79,0,0,0-.22,1.55,4.61,4.61,0,0,0,.19,1.42,2.8,2.8,0,0,0,.55,1,2.19,2.19,0,0,0,.83.62,2.82,2.82,0,0,0,1.06.2,1.89,1.89,0,0,0,1.24-.41,3.41,3.41,0,0,0,.84-1.1,9.81,9.81,0,0,0,.62-1.55c.19-.58.38-1.17.59-1.77a18.39,18.39,0,0,1,.72-1.78,6.22,6.22,0,0,1,1.05-1.55,4.84,4.84,0,0,1,1.54-1.1,5.47,5.47,0,0,1,2.22-.41,7.11,7.11,0,0,1,2.66.49,5.93,5.93,0,0,1,2.16,1.42,6.5,6.5,0,0,1,1.45,2.28,8.27,8.27,0,0,1,.53,3.09,10,10,0,0,1-.19,2,11.15,11.15,0,0,1-.56,1.86,9.43,9.43,0,0,1-.87,1.67,8.67,8.67,0,0,1-1.13,1.39l-1.87-1.13a1.63,1.63,0,0,1-.35-.39.93.93,0,0,1-.13-.5,1.43,1.43,0,0,1,.29-.78q.3-.42.66-1a7.07,7.07,0,0,0,.66-1.35,5.2,5.2,0,0,0,.3-1.87,3.81,3.81,0,0,0-.79-2.58A2.83,2.83,0,0,0,31,181.9a2.15,2.15,0,0,0-1.35.41,3.34,3.34,0,0,0-.87,1.1,8.21,8.21,0,0,0-.61,1.55c-.16.58-.34,1.17-.53,1.77a16.68,16.68,0,0,1-.7,1.77,5.69,5.69,0,0,1-1.06,1.55,4.76,4.76,0,0,1-1.63,1.09,6.12,6.12,0,0,1-2.41.42,5.77,5.77,0,0,1-4.16-1.79,6.72,6.72,0,0,1-1.35-2.16,7.79,7.79,0,0,1-.51-2.91,9.67,9.67,0,0,1,.58-3.42A7.77,7.77,0,0,1,18,178.61l1.85.95Z"/><polygon points="37 158.13 37 162.06 27.84 162.06 27.84 171.89 37 171.89 37 175.82 16.03 175.82 16.03 171.89 25.05 171.89 25.05 162.06 16.03 162.06 16.03 158.13 37 158.13 37 158.13"/><path d="M26.52,134.37a11.7,11.7,0,0,1,4.27.77,10.08,10.08,0,0,1,3.4,2.16,9.91,9.91,0,0,1,2.24,3.35,12.17,12.17,0,0,1,0,8.68,9.8,9.8,0,0,1-5.64,5.53,12.22,12.22,0,0,1-8.54,0,10,10,0,0,1-3.4-2.17,9.76,9.76,0,0,1-2.24-3.36,12,12,0,0,1,0-8.68,9.91,9.91,0,0,1,2.24-3.35,10.08,10.08,0,0,1,3.4-2.16,11.66,11.66,0,0,1,4.27-.77Zm0,4a9.62,9.62,0,0,0-3.1.46,6.54,6.54,0,0,0-2.33,1.31,5.6,5.6,0,0,0-1.46,2.08,7.75,7.75,0,0,0,0,5.53,5.76,5.76,0,0,0,1.46,2.1,6.56,6.56,0,0,0,2.33,1.32,10.43,10.43,0,0,0,6.19,0,6.43,6.43,0,0,0,2.32-1.32,5.76,5.76,0,0,0,1.46-2.1,7.75,7.75,0,0,0,0-5.53,5.6,5.6,0,0,0-1.46-2.08,6.41,6.41,0,0,0-2.32-1.31,9.56,9.56,0,0,0-3.09-.46Z"/><path d="M16,133.82v-3.28a1.44,1.44,0,0,1,.24-.85,1.16,1.16,0,0,1,.65-.45l12.54-3.57c.31-.09.64-.17,1-.24l1.15-.21c-.41-.08-.79-.16-1.15-.25l-1-.3-12.54-4.12a1.38,1.38,0,0,1-.61-.46,1.28,1.28,0,0,1-.28-.83v-1.15a1.43,1.43,0,0,1,.24-.84,1.28,1.28,0,0,1,.65-.46l12.54-4.09a17.93,17.93,0,0,1,2.06-.55L30.43,112l-1-.22-12.54-3.57a1.24,1.24,0,0,1-.63-.45,1.38,1.38,0,0,1-.26-.84v-3.06l21,6.51v3.52l-14.33,4.58-.59.19-.68.18c.24,0,.47.12.68.18l.59.18L37,123.78v3.53l-21,6.51Z"/><path d="M28.81,98.08H37V102H16v-6.4a13.51,13.51,0,0,1,.44-3.67,7.1,7.1,0,0,1,1.24-2.51A4.94,4.94,0,0,1,19.62,88a6.46,6.46,0,0,1,2.44-.45,6.31,6.31,0,0,1,2,.31,6.08,6.08,0,0,1,1.71.9,5.83,5.83,0,0,1,1.34,1.45,7.4,7.4,0,0,1,.93,2,3.74,3.74,0,0,1,1.21-1.27L37,85.61v3.51a1.79,1.79,0,0,1-.2.86,1.84,1.84,0,0,1-.58.6L29.5,95a1.43,1.43,0,0,0-.53.54,1.87,1.87,0,0,0-.16.88v1.67Zm-2.8,0V95.64a5.89,5.89,0,0,0-.28-1.92A3.53,3.53,0,0,0,25,92.37a3,3,0,0,0-1.15-.79,4,4,0,0,0-1.47-.26,3,3,0,0,0-2.45,1.05,5,5,0,0,0-.85,3.21v2.5Z"/><path d="M26.52,64.28a11.49,11.49,0,0,1,4.27.77,10.08,10.08,0,0,1,3.4,2.16,9.81,9.81,0,0,1,2.24,3.35,12.15,12.15,0,0,1,0,8.67,10,10,0,0,1-2.24,3.37,10.26,10.26,0,0,1-3.4,2.17,12.38,12.38,0,0,1-8.54,0,10.15,10.15,0,0,1-3.4-2.17,9.71,9.71,0,0,1-2.24-3.37,12,12,0,0,1,0-8.67,9.81,9.81,0,0,1,2.24-3.35,10.08,10.08,0,0,1,3.4-2.16,11.45,11.45,0,0,1,4.27-.77Zm0,4a9.62,9.62,0,0,0-3.1.46,6.54,6.54,0,0,0-2.33,1.31,5.6,5.6,0,0,0-1.46,2.08,7.75,7.75,0,0,0,0,5.53,5.76,5.76,0,0,0,1.46,2.1,6.71,6.71,0,0,0,2.33,1.32,10.43,10.43,0,0,0,6.19,0,6.58,6.58,0,0,0,2.32-1.32,5.76,5.76,0,0,0,1.46-2.1,7.75,7.75,0,0,0,0-5.53,5.6,5.6,0,0,0-1.46-2.08,6.41,6.41,0,0,0-2.32-1.31,9.56,9.56,0,0,0-3.09-.46Z"/><path d="M26.52,41.67a11.7,11.7,0,0,1,4.27.77A9.77,9.77,0,0,1,36.43,48a12.17,12.17,0,0,1,0,8.68,9.8,9.8,0,0,1-5.64,5.53,12.22,12.22,0,0,1-8.54,0A9.85,9.85,0,0,1,18.85,60a9.67,9.67,0,0,1-2.24-3.36,12,12,0,0,1,0-8.68,9.77,9.77,0,0,1,5.64-5.51,11.66,11.66,0,0,1,4.27-.77Zm0,4a9.9,9.9,0,0,0-3.1.46,6.7,6.7,0,0,0-2.33,1.31,5.69,5.69,0,0,0-1.46,2.08,7.78,7.78,0,0,0,0,5.54,5.64,5.64,0,0,0,1.46,2.09,6.58,6.58,0,0,0,2.33,1.33,9.62,9.62,0,0,0,3.1.46,9.56,9.56,0,0,0,3.09-.46,6.45,6.45,0,0,0,2.32-1.33,5.64,5.64,0,0,0,1.46-2.09,7.78,7.78,0,0,0,0-5.54,5.69,5.69,0,0,0-1.46-2.08,6.56,6.56,0,0,0-2.32-1.31,9.84,9.84,0,0,0-3.09-.46Z"/><path d="M28.3,28.65c.31-.16.63-.31,1-.46l1-.41c-.35-.13-.69-.27-1-.42s-.66-.3-1-.46L16.66,20.69a1.51,1.51,0,0,1-.35-.24.7.7,0,0,1-.19-.27,1.28,1.28,0,0,1-.07-.34c0-.13,0-.28,0-.45V16.44H37v3.44H23.46l-.83,0-.91-.07,11.89,6.34a1.64,1.64,0,0,1,.63.56,1.5,1.5,0,0,1,.22.82V28a1.45,1.45,0,0,1-.22.81,1.66,1.66,0,0,1-.63.57L21.67,35.84c.32,0,.63-.06.94-.08l.85,0H37v3.44H16v-3c0-.17,0-.32,0-.44a1.28,1.28,0,0,1,.07-.35.82.82,0,0,1,.19-.28,1.07,1.07,0,0,1,.35-.24L28.3,28.65Z"/></svg>