<svg id="Ebene_1" data-name="Ebene 1" xmlns="http://www.w3.org/2000/svg" viewBox="0 0 162.25 160.33"><defs><style>.cls-1{fill:#ff0136;}.cls-2{fill:#fff;stroke:#000;stroke-miterlimit:10;stroke-width:4px;}.cls-3{fill:#b3b3b3;}.cls-4{fill:#141412;}</style></defs><path d="M.35,127.28,24.85,138v4.48L.35,153.15v-4.94l18.9-8.15L.35,131.83Z"/><path d="M.35,124.69v-4.55h24.5v4.55Z"/><path d="M21,95.15h3.81v18.38H.35V95.64H4.17V109h6.37V97.15h3.74V109H21Z"/><path d="M.35,54.62l24.5,8.12v4.83L6.72,73.63l18.13,6.16v4.86L.35,92.77V88.05L19,82,.35,75.62v-4.2l18.73-6.19L.35,59Z"/><path d="M24.4,48.79A11.43,11.43,0,0,1,22.26,53L18.73,51.4a12.37,12.37,0,0,0,1.94-3.69,13.46,13.46,0,0,0,.75-4.39,7.54,7.54,0,0,0-.88-4.08,2.64,2.64,0,0,0-2.3-1.35,2.26,2.26,0,0,0-1.74.75,5.33,5.33,0,0,0-1.06,1.91c-.26.77-.55,1.82-.88,3.15a36.23,36.23,0,0,1-1.33,4.53,7.46,7.46,0,0,1-2.08,3,5.6,5.6,0,0,1-3.83,1.24,6.59,6.59,0,0,1-3.7-1.1A7.42,7.42,0,0,1,1,48a13.5,13.5,0,0,1-1-5.44,17.77,17.77,0,0,1,.56-4.41,12.15,12.15,0,0,1,1.61-3.74l3.54,1.43a14.55,14.55,0,0,0-1.44,3.36,12.47,12.47,0,0,0-.49,3.4,7,7,0,0,0,.91,4,2.81,2.81,0,0,0,2.42,1.32,2.15,2.15,0,0,0,1.71-.76,5.49,5.49,0,0,0,1-1.9c.26-.77.55-1.82.88-3.15a32.19,32.19,0,0,1,1.31-4.48,7.66,7.66,0,0,1,2.08-3,5.52,5.52,0,0,1,3.78-1.24,6.52,6.52,0,0,1,3.68,1.1,7.53,7.53,0,0,1,2.62,3.35,13.63,13.63,0,0,1,1,5.46A18.85,18.85,0,0,1,24.4,48.79Z"/><path class="cls-1" d="M82.09,0A79.8,79.8,0,0,0,40.88,11.4V148.93A80.17,80.17,0,1,0,82.09,0Z"/><path class="cls-2" d="M68.28,31.18a49.24,49.24,0,0,0-25.4,7V123a49.41,49.41,0,1,0,25.4-91.8Z"/><path class="cls-3" d="M94.7,122.12c-.5.2-.21.09,0,0Z"/><polyline class="cls-4" points="49.48 55.47 103.08 72.5 63.04 113.86"/></svg>