<svg width="846" height="1000" viewBox="0 0 846 1000" fill="none" xmlns="http://www.w3.org/2000/svg">
<path d="M777.547 64.1713L-88.1632 -125.649C-97.9202 -127.804 -108.066 -127.423 -117.634 -124.543C-127.201 -121.663 -135.872 -116.38 -142.817 -109.198C-149.762 -102.015 -154.751 -93.1726 -157.307 -83.514C-159.864 -73.8554 -159.903 -63.7028 -157.421 -54.0243L62.6133 826.383C65.1909 836.606 70.4737 845.947 77.9069 853.425C85.34 860.904 94.6491 866.243 104.857 868.883C115.066 871.523 125.796 871.366 135.922 868.428C146.048 865.491 155.196 859.881 162.406 852.189L807.389 162.318C814.647 154.79 819.764 145.46 822.209 135.292C824.654 125.125 824.338 114.489 821.296 104.483C818.254 94.4772 812.594 85.4649 804.903 78.378C797.212 71.2911 787.768 66.3867 777.547 64.1713Z" fill="#725BFF"/>
</svg>
