<svg id="Ebene_1" data-name="Ebene 1" xmlns="http://www.w3.org/2000/svg" viewBox="0 0 93.52 112.88"><defs><style>.cls-1{fill:#c1272d;}.cls-2{fill:red;}</style></defs><path class="cls-1" d="M24.74,6.18h0Z"/><path class="cls-2" d="M21.93,94.55c3.86,3.44,7.29,6.48,11.1,10L34.27,103C39,97,47.67,85.85,57.88,77.65c31-24.87,29.9-45.61,28-53.37-2.14-8.75-8.41-15.38-16-16.89C58.58,5.12,43.06,8.47,33.49,24.66L31,28.93,27.9,25C20,14.91,10.93,9.83,1,9.83l-1,0V74.68C10,83.89,16.5,89.72,21.93,94.55Z"/><path d="M92.48,22.67C89.72,11.37,81.38,2.75,71.24.73a40.92,40.92,0,0,0-41,16.53C21.34,7.48,11.11,2.7,0,3V9.86l1,0c10,0,19,5.08,26.93,15.2L31,28.93l2.52-4.27C43.06,8.47,58.58,5.12,69.91,7.39c7.56,1.51,13.83,8.14,16,16.89,1.9,7.76,3,28.5-28,53.37C47.67,85.85,39,97,34.27,103L33,104.56c-3.81-3.53-7.24-6.57-11.1-10C16.5,89.72,10,83.89,0,74.68v9.24C7.49,90.8,12.85,95.56,17.41,99.63s8.67,7.7,13.48,12.21l1.15,1,1.49-.12c1.83-.14,2.48-1,6.09-5.6,4.52-5.77,12.91-16.5,22.52-24.22C86.08,63.71,97.14,41.74,92.48,22.67Z"/></svg>