<svg id="Ebene_1" data-name="Ebene 1" xmlns="http://www.w3.org/2000/svg" viewBox="0 0 129.5 178.5"><defs><style>.cls-1{fill:#ccc;}.cls-2{fill:gray;}.cls-3{fill:none;}.cls-4{fill:#b3b3b3;}.cls-5{fill:#fff;}.cls-6{fill:#ff0136;}</style></defs><path class="cls-1" d="M113.46,174.5c.81-.69,4.05-5.36,8.24-37,2.25-16.91,3.69-33.53,3.8-34.87a11.84,11.84,0,0,0-11.74-11.75L99.58,92.11,86.82,87.47H58.72L46,92.1l-11.1-.7v83.1Z"/><path d="M113.68,86.92l-13.56,1.13-12.6-4.58H58L45.4,88.05,34.88,87.4v4l11.1.7,12.74-4.63h28.1l12.76,4.64,14.18-1.19a11.84,11.84,0,0,1,11.74,11.75c-.11,1.34-1.55,18-3.8,34.87-4.19,31.6-7.43,36.27-8.24,37H34.88v4h78.8c3,0,5.06-3.66,7.31-13.06,1.48-6.18,3-14.77,4.43-25.54,2.49-18.28,4.06-36.8,4.08-37v-.17A15.84,15.84,0,0,0,113.68,86.92Z"/><path d="M22.35,171.56c-1.9,1.89-4.63,2.83-8.17,2.83H.35v-4.55H14q7.21,0,7.21-6.23T14,157.42H.35v-4.48H14.18c3.54,0,6.27.94,8.17,2.81s2.85,4.51,2.85,7.9S24.25,169.67,22.35,171.56Z"/><path d="M24.4,144.45a11.38,11.38,0,0,1-2.14,4.18l-3.53-1.57a12.62,12.62,0,0,0,1.94-3.69,13.52,13.52,0,0,0,.75-4.4,7.54,7.54,0,0,0-.88-4.08,2.65,2.65,0,0,0-2.3-1.34,2.26,2.26,0,0,0-1.74.75,5.25,5.25,0,0,0-1.06,1.91c-.26.77-.55,1.82-.88,3.15a37.29,37.29,0,0,1-1.33,4.53,7.53,7.53,0,0,1-2.08,3,5.65,5.65,0,0,1-3.83,1.24A6.52,6.52,0,0,1,3.62,147,7.39,7.39,0,0,1,1,143.68a13.53,13.53,0,0,1-1-5.44,17.65,17.65,0,0,1,.56-4.41,12.11,12.11,0,0,1,1.61-3.75l3.54,1.44a14.19,14.19,0,0,0-1.44,3.36,12.4,12.4,0,0,0-.49,3.39,7.08,7.08,0,0,0,.91,4,2.82,2.82,0,0,0,2.42,1.31,2.17,2.17,0,0,0,1.71-.75,5.54,5.54,0,0,0,1-1.91c.26-.77.55-1.82.88-3.15a32.61,32.61,0,0,1,1.31-4.48,7.7,7.7,0,0,1,2.08-3,5.47,5.47,0,0,1,3.78-1.24,6.52,6.52,0,0,1,3.68,1.1,7.5,7.5,0,0,1,2.62,3.34,13.7,13.7,0,0,1,1,5.46A18.92,18.92,0,0,1,24.4,144.45Z"/><path d="M21,106.18h3.81v18.37H.35V106.67H4.17V120h6.37V108.17h3.74V120H21Z"/><path d="M24.85,85.07l-7.17,5c0,.21,0,.52,0,.94v5.53h7.14v4.55H.35V91a13.6,13.6,0,0,1,1-5.55,8.07,8.07,0,0,1,3-3.62,8.44,8.44,0,0,1,4.66-1.26,8.3,8.3,0,0,1,4.76,1.35,8,8,0,0,1,3,3.87l8.05-5.64ZM5.46,86.72A7,7,0,0,0,4.2,91.23v5.32H14V91.23a6.91,6.91,0,0,0-1.28-4.51,4.43,4.43,0,0,0-3.62-1.54A4.38,4.38,0,0,0,5.46,86.72Z"/><rect class="cls-2" x="59.36" y="57.96" width="28.81" height="47.25" rx="12"/><path class="cls-3" d="M76.17,106.71H71.36a13.52,13.52,0,0,1-13.5-13.5V70a13.52,13.52,0,0,1,13.5-13.5h4.81A13.51,13.51,0,0,1,89.67,70V93.21A13.51,13.51,0,0,1,76.17,106.71ZM71.36,59.46A10.51,10.51,0,0,0,60.86,70V93.21a10.51,10.51,0,0,0,10.5,10.5h4.81a10.51,10.51,0,0,0,10.5-10.5V70a10.51,10.51,0,0,0-10.5-10.5Z"/><path class="cls-4" d="M105.44,33.3a31.81,31.81,0,0,0-63.61,0c0,4.17,5.9,38.26,12,38.26l20.28,8.3,20.28-8.3C100.46,71.56,105.44,37.12,105.44,33.3Z"/><path d="M74.09,81.48,53.48,73.05c-2.34-.21-5.48-2.87-9.4-18.7-2.17-8.81-3.75-18.68-3.75-21.05a33.31,33.31,0,0,1,66.61,0c0,2.06-1.28,11.8-3.29,20.89-3.52,16-6.6,18.64-9,18.86ZM73.63,3a30.33,30.33,0,0,0-30.3,30.3c0,1.89,1.43,11.28,3.67,20.33,3.33,13.48,6,16.43,6.81,16.43h.3l20,8.18,20-8.18h.29s2.81-.45,6.35-16.52a156.94,156.94,0,0,0,3.22-20.24A30.34,30.34,0,0,0,73.63,3Z"/><ellipse class="cls-5" cx="62.25" cy="43.56" rx="5.19" ry="2.88"/><ellipse class="cls-5" cx="85.29" cy="43.56" rx="5.19" ry="2.88"/><path class="cls-6" d="M74.4,100.6h-1c-6.86,0-12.48-6.22-12.48-13.83v6.92c0,7.6,5.62,13.82,12.48,13.82h1c6.86,0,12.48-6.22,12.48-13.82V86.77C86.88,94.38,81.26,100.6,74.4,100.6Z"/></svg>