<svg id="Ebene_1" data-name="Ebene 1" xmlns="http://www.w3.org/2000/svg" viewBox="0 0 190.02 190.02"><defs><style>.cls-1,.cls-4{fill:#ff0136;}.cls-1,.cls-3,.cls-4{fill-rule:evenodd;}.cls-2,.cls-5{fill:none;}.cls-2{stroke:#000;}.cls-2,.cls-4,.cls-5{stroke-linecap:round;stroke-linejoin:round;stroke-width:2.68px;}.cls-3{fill:#fff;}.cls-4{stroke:#000100;}.cls-5{stroke:#fff;}</style></defs><path class="cls-1" d="M48.75,65.46c20.13-5.6,40.39-.24,52.3,8.37L88.49,118.64c-22.77,1.91-40.59-2-50.68-15L48.75,65.46Z"/><path class="cls-2" d="M56.73,30.84l-19,70.32M74.56,64.91C89.39,66.8,101,71.85,100.43,76.17s-13,6.28-27.87,4.39S46.14,73.62,46.69,69.3s13-6.28,27.87-4.39Zm-9,37.36C80,106.17,90.79,112.75,89.66,117s-13.78,4.44-28.21.54S36.23,107,37.37,102.81s13.77-4.44,28.2-.54Zm43.21-55.78-18.93,70"/><polygon class="cls-3" points="53.56 -0.09 1.31 -0.09 1.31 180.47 53.56 180.47 53.56 -0.09 53.56 -0.09"/><path d="M40.39,145.22a.78.78,0,0,1,.25-.56l1.69-1.55a8.54,8.54,0,0,1,2.46,3.18,11.1,11.1,0,0,1,.85,4.53,10.67,10.67,0,0,1-.81,4.25,9.39,9.39,0,0,1-2.25,3.23,9.87,9.87,0,0,1-3.44,2,13,13,0,0,1-4.36.71,11.85,11.85,0,0,1-4.38-.79A10.09,10.09,0,0,1,27,158a10.24,10.24,0,0,1-2.24-3.44,12,12,0,0,1-.8-4.43,10.55,10.55,0,0,1,.76-4.14,9.44,9.44,0,0,1,2-3l1.83,1.32a1.26,1.26,0,0,1,.31.3.84.84,0,0,1,.13.51,1.21,1.21,0,0,1-.26.69,7,7,0,0,0-.57.89,7.64,7.64,0,0,0-.58,1.38,7.3,7.3,0,0,0-.26,2.11,7,7,0,0,0,.52,2.75,6.06,6.06,0,0,0,1.49,2.16,6.93,6.93,0,0,0,2.36,1.41,9,9,0,0,0,3.12.51,9.24,9.24,0,0,0,3.19-.51,7,7,0,0,0,2.35-1.37,5.89,5.89,0,0,0,1.46-2,6.32,6.32,0,0,0,.51-2.53,10.68,10.68,0,0,0-.09-1.46,6.13,6.13,0,0,0-.28-1.21,5.8,5.8,0,0,0-.49-1,7,7,0,0,0-.74-1,1.6,1.6,0,0,1-.22-.31.78.78,0,0,1-.08-.35Z"/><polygon points="45.4 120.88 45.4 124.86 36.12 124.86 36.12 134.82 45.4 134.82 45.4 138.8 24.16 138.8 24.16 134.82 33.3 134.82 33.3 124.86 24.16 124.86 24.16 120.88 45.4 120.88 45.4 120.88"/><polygon points="24.16 101.87 27.3 101.87 27.3 111.28 33.19 111.28 33.19 103.86 36.23 103.86 36.23 111.28 42.24 111.28 42.24 101.87 45.4 101.87 45.4 115.27 24.16 115.27 24.16 101.87 24.16 101.87"/><polygon points="24.16 83.72 27.3 83.72 27.3 93.14 33.19 93.14 33.19 85.72 36.23 85.72 36.23 93.14 42.24 93.14 42.24 83.72 45.4 83.72 45.4 97.12 24.16 97.12 24.16 83.72 24.16 83.72"/><path d="M37.1,74.89h8.3v4H24.16V72.36a13.48,13.48,0,0,1,.45-3.72,7.1,7.1,0,0,1,1.25-2.54,4.89,4.89,0,0,1,1.93-1.46,6.63,6.63,0,0,1,2.48-.46,6.44,6.44,0,0,1,2,.32,5.92,5.92,0,0,1,3.1,2.38,7.79,7.79,0,0,1,.94,2,3.83,3.83,0,0,1,1.22-1.29l7.84-5.32v3.55a1.84,1.84,0,0,1-.2.88,1.9,1.9,0,0,1-.59.61l-6.8,4.46a1.6,1.6,0,0,0-.55.55,2,2,0,0,0-.16.89v1.69Zm-2.83,0V72.42A6.25,6.25,0,0,0,34,70.48a3.92,3.92,0,0,0-.77-1.37,3.14,3.14,0,0,0-1.17-.8,4,4,0,0,0-1.49-.26,3,3,0,0,0-2.48,1.06,5.07,5.07,0,0,0-.87,3.25v2.53Z"/><path d="M28,47a1.06,1.06,0,0,1,.46.38.91.91,0,0,1,.13.5,1.28,1.28,0,0,1-.23.66l-.51.87a7.21,7.21,0,0,0-.5,1.17,4.92,4.92,0,0,0-.23,1.58,4.7,4.7,0,0,0,.2,1.43,2.9,2.9,0,0,0,.55,1,2.19,2.19,0,0,0,.84.62,2.74,2.74,0,0,0,1.08.21,1.87,1.87,0,0,0,1.25-.42,3.5,3.5,0,0,0,.86-1.11,11.14,11.14,0,0,0,.63-1.57c.18-.59.38-1.19.59-1.8a17.46,17.46,0,0,1,.74-1.8,6.34,6.34,0,0,1,1-1.57,4.85,4.85,0,0,1,1.57-1.11,5.44,5.44,0,0,1,2.25-.42,7.22,7.22,0,0,1,2.69.49,6.23,6.23,0,0,1,2.19,1.44,6.77,6.77,0,0,1,1.47,2.32,8.45,8.45,0,0,1,.54,3.13,10.18,10.18,0,0,1-.2,2,9.85,9.85,0,0,1-.57,1.89A9.65,9.65,0,0,1,44,58.62,8.29,8.29,0,0,1,42.85,60L41,58.88a1.41,1.41,0,0,1-.34-.39.89.89,0,0,1-.14-.51,1.4,1.4,0,0,1,.3-.79c.2-.29.42-.62.67-1a7.61,7.61,0,0,0,.66-1.37,5.25,5.25,0,0,0,.31-1.88,3.86,3.86,0,0,0-.81-2.62,2.85,2.85,0,0,0-2.29-.92,2.13,2.13,0,0,0-1.37.42,3.29,3.29,0,0,0-.89,1.1,8.53,8.53,0,0,0-.61,1.58c-.17.58-.35,1.18-.54,1.79a15.14,15.14,0,0,1-.71,1.79,5.67,5.67,0,0,1-1.07,1.57,4.89,4.89,0,0,1-1.65,1.11,6.3,6.3,0,0,1-2.45.42,5.75,5.75,0,0,1-2.26-.46,5.83,5.83,0,0,1-2-1.35,6.84,6.84,0,0,1-1.36-2.18,8.05,8.05,0,0,1-.52-3,10,10,0,0,1,.59-3.47,7.85,7.85,0,0,1,1.65-2.7L28,47Z"/><path class="cls-4" d="M91.37,24.64S98.2,21,100,18.56a3.36,3.36,0,1,0-5.42-4c-1.76,2.42-3.18,10-3.18,10Z"/><path class="cls-2" d="M84.81,31.12C99.24,35,110,41.6,108.9,45.81s-13.77,4.44-28.2.54S55.47,35.87,56.61,31.66s13.77-4.44,28.2-.54Z"/><path class="cls-4" d="M94,43.19s10.85-4.21,13.77-7.54a5.36,5.36,0,1,0-8.06-7.08C96.83,31.89,94,43.19,94,43.19Z"/><path class="cls-1" d="M142.83,110.68c-20.13-5.6-40.39-.25-52.3,8.37l12.56,44.81c22.77,1.9,40.58-2,50.68-15l-10.94-38.21Z"/><path class="cls-2" d="M134.85,76.05l19,70.33M117,110.12c-14.83,1.9-26.42,6.94-25.87,11.26s13,6.29,27.87,4.39,26.42-6.93,25.87-11.25-13-6.29-27.87-4.4Zm9,37.37c-14.43,3.9-25.22,10.48-24.09,14.68s13.78,4.45,28.21.54,25.22-10.48,24.08-14.68-13.77-4.45-28.2-.54ZM82.8,91.7l18.93,70m5-85.36C92.33,80.24,81.54,86.82,82.68,91s13.77,4.45,28.2.54S136.11,81.08,135,76.88s-13.77-4.45-28.2-.54Z"/><path class="cls-5" d="M67.24,85.36,78.85,89m-7.54,8.49L78,94.93M72.89,76.08,81.21,85m2.88-11.8.9,8.12"/><path class="cls-4" d="M119.85,79.07s-3.27-11.17-2.42-15.51A5.37,5.37,0,1,1,128,65.63c-.85,4.34-8.11,13.44-8.11,13.44Z"/></svg>