<svg id="Ebene_1" data-name="Ebene 1" xmlns="http://www.w3.org/2000/svg" viewBox="0 0 268 87"><defs><style>.cls-1{fill:#ff0136;}.cls-2,.cls-3{fill:#fff;}.cls-3{stroke:#ff0136;stroke-miterlimit:10;stroke-width:4px;}</style></defs><rect class="cls-1" width="268" height="87" rx="12"/><path class="cls-2" d="M79.44,55.94a11.46,11.46,0,0,1-4.18-2.14l1.57-3.53a12.55,12.55,0,0,0,3.7,1.94,13.46,13.46,0,0,0,4.39.75A7.54,7.54,0,0,0,89,52.08a2.64,2.64,0,0,0,1.35-2.3A2.27,2.27,0,0,0,89.59,48,5.2,5.2,0,0,0,87.69,47c-.77-.26-1.82-.55-3.15-.88A37,37,0,0,1,80,44.77a7.5,7.5,0,0,1-3-2.08,5.6,5.6,0,0,1-1.24-3.83,6.51,6.51,0,0,1,1.1-3.7,7.39,7.39,0,0,1,3.32-2.64,13.55,13.55,0,0,1,5.45-1,17.63,17.63,0,0,1,4.4.56,12.11,12.11,0,0,1,3.75,1.61l-1.43,3.54A14.55,14.55,0,0,0,89,35.81a12.47,12.47,0,0,0-3.4-.49,7.08,7.08,0,0,0-4,.91,2.82,2.82,0,0,0-1.31,2.42,2.17,2.17,0,0,0,.75,1.71,5.54,5.54,0,0,0,1.91,1c.77.26,1.82.55,3.15.88a32.61,32.61,0,0,1,4.48,1.31,7.63,7.63,0,0,1,3,2.08,5.47,5.47,0,0,1,1.25,3.78,6.45,6.45,0,0,1-1.11,3.68,7.5,7.5,0,0,1-3.34,2.62,13.63,13.63,0,0,1-5.46,1A18.92,18.92,0,0,1,79.44,55.94Z"/><path class="cls-2" d="M115,32.94a8.07,8.07,0,0,1,3.62,3,8.44,8.44,0,0,1,1.26,4.66,8.43,8.43,0,0,1-1.26,4.63,8,8,0,0,1-3.62,3,13.6,13.6,0,0,1-5.55,1h-5.53v7.07H99.34V31.89h10.08A13.6,13.6,0,0,1,115,32.94Zm-1.24,11.27a4.41,4.41,0,0,0,1.54-3.6A4.41,4.41,0,0,0,113.73,37a7,7,0,0,0-4.52-1.26h-5.32v9.73h5.32A7,7,0,0,0,113.73,44.21Z"/><path class="cls-2" d="M142.78,52.58v3.81H124.4V31.89h17.89v3.82H129v6.37h11.83v3.74H129v6.76Z"/><path class="cls-2" d="M169.62,31.89v24.5h-3.74L152.37,39.8V56.39h-4.52V31.89h3.75l13.51,16.59V31.89Z"/><path class="cls-2" d="M176.2,31.89h10.71a15.47,15.47,0,0,1,7,1.52,11.27,11.27,0,0,1,4.72,4.31,12.15,12.15,0,0,1,1.68,6.42,12.15,12.15,0,0,1-1.68,6.42,11.27,11.27,0,0,1-4.72,4.31,15.47,15.47,0,0,1-7,1.52H176.2Zm10.5,20.65a10.34,10.34,0,0,0,4.74-1,7.35,7.35,0,0,0,3.15-2.94,9.4,9.4,0,0,0,0-8.86,7.35,7.35,0,0,0-3.15-2.94,10.34,10.34,0,0,0-4.74-1h-5.95v16.8Z"/><path class="cls-2" d="M223.49,52.58v3.81H205.11V31.89H223v3.82H209.66v6.37h11.83v3.74H209.66v6.76Z"/><path class="cls-2" d="M250.33,31.89v24.5h-3.75L233.08,39.8V56.39h-4.52V31.89h3.75l13.5,16.59V31.89Z"/><path class="cls-2" d="M65.71,38a20.49,20.49,0,1,0,0,25.13Z"/><path class="cls-3" d="M43.73,22.44C38.67,20.28,35,16.2,34.67,9.7A20.11,20.11,0,1,0,57.46,21C53.09,24.35,48.35,24.41,43.73,22.44Z"/></svg>