<svg id="Ebene_1" data-name="Ebene 1" xmlns="http://www.w3.org/2000/svg" viewBox="0 0 209.16 209.16"><defs><style>.cls-1{fill:#ff0136;}.cls-1,.cls-3{stroke:#000;stroke-linecap:round;stroke-linejoin:round;stroke-width:5.9px;}.cls-1,.cls-2,.cls-3{fill-rule:evenodd;}.cls-2,.cls-3{fill:#fff;}</style></defs><path class="cls-1" d="M177,112.47c1.12-3.82-36.11-66-36.11-66S76.76,78.78,75.63,82.6L56.24,148.39c-1.12,3.82,2,8.11,7,9.58l83.33,24.56c5,1.46,9.92-.46,11.05-4.28L177,112.47Z"/><polygon class="cls-2" points="69.71 20.31 23.47 20.31 23.47 175.69 69.71 175.69 69.71 20.31 69.71 20.31"/><polygon points="60.72 142.4 60.72 146.78 50.5 146.78 50.5 157.74 60.72 157.74 60.72 162.13 37.34 162.13 37.34 157.74 47.4 157.74 47.4 146.78 37.34 146.78 37.34 142.4 60.72 142.4 60.72 142.4"/><path d="M49,113.79a13,13,0,0,1,4.76.86,11.16,11.16,0,0,1,3.8,2.41,11,11,0,0,1,2.5,3.73,13.61,13.61,0,0,1,0,9.68,10.92,10.92,0,0,1-6.3,6.17,13.6,13.6,0,0,1-9.52,0,11.14,11.14,0,0,1-3.79-2.42,11,11,0,0,1-2.5-3.75,12.61,12.61,0,0,1-.9-4.84,12.42,12.42,0,0,1,.91-4.84,11,11,0,0,1,2.49-3.73,11.21,11.21,0,0,1,3.79-2.41,13,13,0,0,1,4.76-.86Zm0,4.46a10.88,10.88,0,0,0-3.45.51,7.26,7.26,0,0,0-2.6,1.47,6.3,6.3,0,0,0-1.63,2.32,7.9,7.9,0,0,0-.57,3.08,8,8,0,0,0,.57,3.09A6.42,6.42,0,0,0,43,131.05a7.13,7.13,0,0,0,2.6,1.48,11.7,11.7,0,0,0,6.9,0,7,7,0,0,0,2.59-1.48,6.42,6.42,0,0,0,1.63-2.33,8.22,8.22,0,0,0,.56-3.09,8.09,8.09,0,0,0-.56-3.08,6.3,6.3,0,0,0-1.63-2.32,7.13,7.13,0,0,0-2.59-1.47,10.83,10.83,0,0,0-3.45-.51Z"/><path d="M41.59,96.37a1.19,1.19,0,0,1,.5.41,1,1,0,0,1,.15.56,1.39,1.39,0,0,1-.25.73c-.17.27-.35.59-.56,1a8.74,8.74,0,0,0-.56,1.29,5.61,5.61,0,0,0-.25,1.74,5.33,5.33,0,0,0,.22,1.58,3.49,3.49,0,0,0,.61,1.13,2.52,2.52,0,0,0,.93.69,3,3,0,0,0,1.19.22,2.06,2.06,0,0,0,1.37-.46,3.81,3.81,0,0,0,.94-1.22,10.75,10.75,0,0,0,.69-1.73q.32-1,.66-2a17.12,17.12,0,0,1,.81-2,6.48,6.48,0,0,1,1.16-1.73,5.12,5.12,0,0,1,1.72-1.22,6,6,0,0,1,2.48-.46,8.15,8.15,0,0,1,3,.54A6.83,6.83,0,0,1,58.77,97a7.42,7.42,0,0,1,1.62,2.55A9.43,9.43,0,0,1,61,103a10.73,10.73,0,0,1-.22,2.2,11.19,11.19,0,0,1-1.59,3.94,9.17,9.17,0,0,1-1.26,1.54l-2.09-1.26a1.75,1.75,0,0,1-.38-.43,1,1,0,0,1-.15-.55,1.58,1.58,0,0,1,.33-.88c.22-.31.47-.68.74-1.1a8.5,8.5,0,0,0,.73-1.51,5.82,5.82,0,0,0,.33-2.08,4.21,4.21,0,0,0-.88-2.87A3.15,3.15,0,0,0,54,99a2.33,2.33,0,0,0-1.5.46,3.54,3.54,0,0,0-1,1.22,8.92,8.92,0,0,0-.67,1.73c-.18.65-.38,1.3-.6,2a15.82,15.82,0,0,1-.78,2,6.29,6.29,0,0,1-1.18,1.74,5.44,5.44,0,0,1-1.82,1.22,7,7,0,0,1-2.69.46,6.38,6.38,0,0,1-2.49-.51,6.45,6.45,0,0,1-2.15-1.49,7.1,7.1,0,0,1-1.5-2.4,8.68,8.68,0,0,1-.57-3.25,11,11,0,0,1,.65-3.82,8.47,8.47,0,0,1,1.81-3l2.05,1.06Z"/><polygon points="37.34 73.62 40.91 73.62 40.91 80.66 60.72 80.66 60.72 85 40.91 85 40.91 92.07 37.34 92.07 37.34 73.62 37.34 73.62"/><polygon class="cls-3" points="157.28 124.99 134.85 198.05 117.35 172.69 128.56 136.16 157.28 124.99 157.28 124.99"/><polygon class="cls-3" points="128.33 135.68 100.6 127.44 89.15 166.01 116.87 174.25 128.33 135.68 128.33 135.68"/></svg>