<svg width="212" height="206" viewBox="0 0 212 206" fill="none" xmlns="http://www.w3.org/2000/svg">
<path d="M34.1807 193.265C33.4217 195.666 32.4096 197.595 31.1807 198.978L26.3735 196.722C27.494 195.375 28.3976 193.665 29.1205 191.7C29.8434 189.735 30.2048 187.698 30.241 185.66C30.2771 183.15 29.9157 181.294 29.1566 180.02C28.3976 178.783 27.3494 178.128 26.0482 178.128C25.1084 178.128 24.3133 178.456 23.6627 179.111C23.0482 179.802 22.5422 180.639 22.1446 181.694C21.7831 182.749 21.3494 184.168 20.8795 186.024C20.2289 188.571 19.5783 190.645 18.9639 192.246C18.3133 193.811 17.3735 195.157 16.0361 196.285C14.7349 197.413 12.9639 197.959 10.759 197.922C8.91566 197.886 7.25301 197.34 5.73494 196.321C4.25301 195.303 3.06024 193.738 2.19277 191.7C1.36145 189.59 0.963856 187.116 1 184.168C1.03615 182.131 1.3253 180.093 1.86747 178.128C2.40964 176.163 3.16868 174.453 4.14458 172.998L8.95181 175.035C8.04819 176.491 7.39759 178.019 6.92771 179.62C6.45783 181.221 6.20482 182.786 6.16867 184.278C6.13253 186.752 6.49398 188.608 7.3253 189.808C8.12048 191.009 9.24096 191.664 10.5783 191.664C11.5181 191.664 12.3133 191.336 12.9277 190.682C13.5422 189.99 14.0482 189.117 14.4096 188.098C14.7711 187.043 15.2048 185.624 15.6747 183.768C16.2892 181.257 16.9398 179.22 17.5542 177.655C18.2048 176.054 19.1807 174.708 20.4819 173.58C21.7831 172.452 23.5181 171.906 25.6867 171.943C27.5301 171.979 29.1928 172.525 30.6747 173.544C32.1566 174.562 33.3133 176.127 34.1807 178.201C35.0482 180.275 35.4458 182.786 35.4096 185.733C35.3735 188.353 34.9759 190.863 34.1807 193.265Z" fill="#171716"/>
<path d="M33.6747 157.024C32.1566 159.753 30.0603 161.9 27.3856 163.428C24.747 164.956 21.7832 165.684 18.5301 165.648C15.2771 165.575 12.3494 164.738 9.74701 163.137C7.1446 161.536 5.1205 159.316 3.67472 156.551C2.22894 153.749 1.54219 150.656 1.61448 147.236C1.68677 143.816 2.48195 140.723 4.00002 137.994C5.51809 135.265 7.61448 133.118 10.253 131.59C12.8916 130.062 15.8554 129.334 19.1446 129.37C22.4338 129.443 25.3615 130.28 27.9639 131.881C30.5301 133.446 32.5542 135.629 33.9639 138.431C35.4097 141.232 36.0964 144.325 36.0241 147.745C35.988 151.202 35.1928 154.295 33.6747 157.024ZM29.1928 141.56C28.2169 139.741 26.8434 138.321 25.0723 137.266C23.2651 136.211 21.2771 135.665 19.0362 135.629C16.7952 135.592 14.7711 136.066 12.9639 137.084C11.1566 138.067 9.71086 139.486 8.69882 141.232C7.65062 143.015 7.1446 145.017 7.07231 147.272C7.00002 149.528 7.50604 151.566 8.48195 153.349C9.45785 155.168 10.8313 156.587 12.6024 157.643C14.3735 158.698 16.3976 159.244 18.6386 159.28C20.8795 159.316 22.9036 158.843 24.7109 157.824C26.5181 156.842 27.9639 155.423 28.9759 153.676C30.0241 151.894 30.5301 149.892 30.5663 147.636C30.6386 145.417 30.1687 143.379 29.1928 141.56Z" fill="#171716"/>
<path d="M34.3976 114.161C32.8796 116.89 30.7832 119.001 28.1446 120.492C25.5061 122.021 22.5422 122.748 19.253 122.676C15.9639 122.603 13.0362 121.766 10.4338 120.165C7.83135 118.564 5.8434 116.344 4.39762 113.579C2.95184 110.814 2.26509 107.721 2.33738 104.337C2.37352 101.572 2.91569 99.0609 3.8916 96.8049C4.90364 94.549 6.31328 92.6569 8.15666 91.0923L11.8434 95.2039C9.20485 97.6054 7.83135 100.589 7.75907 104.155C7.75907 106.447 8.22894 108.521 9.20485 110.377C10.1808 112.233 11.5542 113.688 13.3253 114.743C15.0964 115.799 17.1205 116.344 19.3615 116.381C21.6386 116.417 23.6627 115.944 25.4699 114.925C27.2771 113.943 28.6868 112.524 29.735 110.704C30.7832 108.885 31.2892 106.848 31.3615 104.519C31.4338 100.953 30.1326 97.9329 27.5302 95.4586L31.4338 91.4925C33.241 93.0935 34.5783 95.0584 35.482 97.3507C36.3856 99.643 36.8555 102.19 36.7832 104.955C36.7109 108.376 35.9157 111.432 34.3976 114.161Z" fill="#171716"/>
<path d="M3.1687 82.5778L3.27713 76.3193L36.747 76.9015L36.6386 83.1599L3.1687 82.5778Z" fill="#171716"/>
<path d="M29.5542 43.3899L29.2651 60.2368L36.9639 63.6935L36.8554 70.1338L3.63855 54.415L3.74698 48.2657L37.4699 33.6021L37.3614 40.1516L29.5542 43.3899ZM24.6386 45.3912L9.89156 51.5041L24.4217 58.0536L24.6386 45.3912Z" fill="#171716"/>
<path d="M4.10846 26.3614L4.21689 20.103L32.4458 20.576L32.735 2.96509L38.0121 3.03786L37.6145 26.9072L4.10846 26.3614Z" fill="#171716"/>
<path d="M114.675 123.258L137.88 99.0973L106.795 89.1638L114.675 123.258Z" fill="#171716"/>
<path d="M194.771 125.914L165.892 163.428L146.482 120.092L200.482 110.559L197.048 90.8014L155.337 98.1878L143.482 29.9272L118.759 34.2936L126.169 76.9018C135.855 79.3033 143.916 86.8717 146.482 97.2781C148.506 105.501 146.663 113.761 142.108 120.165C138.855 124.786 134.229 128.425 128.59 130.39L122.663 178.347L111.855 130.826C102.675 128.134 95.0843 120.784 92.6265 110.741C91.506 106.229 91.5783 101.717 92.5904 97.4965C94.9398 87.6722 102.458 79.4853 112.867 76.9018C114.602 76.4652 116.337 76.2105 118.036 76.1377C118.217 75.1553 118.398 74.1365 118.47 73.0813C119.048 66.459 117.783 61.0738 114.675 56.8894C111.53 52.705 107.699 49.5394 103.108 47.3562C98.5181 45.1731 92.6988 42.9535 85.6506 40.7703C79.3614 38.8419 74.8434 37.0953 72.0964 35.5671C69.3133 34.0389 68.0482 32.0012 68.2651 29.4542C68.4819 26.9072 69.8916 24.9787 72.4578 23.596C75.0241 22.2133 78.9639 21.7767 84.2771 22.2497C92.7349 23.0138 101.265 26.2522 109.831 31.9649L119.843 12.7165C115.506 9.58732 110.374 7.04029 104.446 5.07543C98.5904 3.14696 92.5181 1.90983 86.3012 1.32765C77.1928 0.490767 69.3855 1.18211 62.8795 3.32889C56.3735 5.47568 51.3494 8.75044 47.7711 13.1532C47.5181 13.4443 47.3012 13.7717 47.0843 14.0992V46.8104C49.8313 50.0124 53.1205 52.5231 56.9518 54.306C61.5783 56.4892 67.3615 58.7087 74.3374 60.8919C80.6988 62.9295 85.2892 64.7488 88.1084 66.3135C90.9277 67.8781 92.1928 70.0248 91.9759 72.7538C91.506 77.9207 86.1566 80.0311 75.8916 79.1214C70.4699 78.6484 65.0482 77.2657 59.6265 75.0462C54.9277 73.1177 50.7349 70.8253 47.1205 68.1692V93.312C48.6024 93.967 50.1928 94.5855 51.8554 95.2041C58.9036 97.7512 66.241 99.3885 73.9036 100.08C73.9759 100.08 74.012 100.08 74.0843 100.08L46.759 139.668V185.442L55.4699 171.906L96.494 179.948L100.47 200.433L129.024 206L125.048 188.462L139.795 190.318L144.241 154.113L158.446 185.624L167.193 186.715L188.843 158.698L184.47 195.921L202.578 198.177L211.036 127.988L194.771 125.914ZM67.3976 153.095L85.9036 124.277L92.3374 157.97L67.3976 153.095Z" fill="#171716"/>
</svg>
