<svg id="Ebene_1" data-name="Ebene 1" xmlns="http://www.w3.org/2000/svg" viewBox="0 0 121.88 168"><defs><style>.cls-1{fill:none;}.cls-2{fill:#b3b3b3;}.cls-3{fill:#ff0136;}.cls-4{fill:#fff;}.cls-5{fill:gray;}.cls-6{fill:#4d4d4d;}</style></defs><path class="cls-1" d="M60.5,112a12,12,0,0,1-1.62-6,12.1,12.1,0,0,1,.71-4,5.52,5.52,0,0,1-.71,0,6,6,0,1,1,6-6.37,12,12,0,0,1,18,9.37h0a7,7,0,0,1,7,7h25.77A45.34,45.34,0,0,0,87.73,74.44l-1.85-.77V28a8.86,8.86,0,0,0-.3-2.24L84.6,22h5.28a3.34,3.34,0,0,0,1.2-.15,13.88,13.88,0,0,0,0-3.89c-.09-1.19-.19-2.54-.19-4s.1-2.77.19-4a13.88,13.88,0,0,0,0-3.89A3.34,3.34,0,0,0,89.88,6h-40a3.34,3.34,0,0,0-1.2.15,14.69,14.69,0,0,0,0,3.89c.09,1.19.19,2.54.19,4s-.1,2.77-.19,4a14.69,14.69,0,0,0,0,3.89,3.34,3.34,0,0,0,1.2.15h5.28l-1,3.76a8.86,8.86,0,0,0-.3,2.24v5h13v6h-13v7h13v6h-13v6h13v6h-13v10l-1.79.79A45.51,45.51,0,0,0,34.88,88.06V112ZM82.88,86a5,5,0,1,1-5,5A5,5,0,0,1,82.88,86Z"/><path class="cls-2" d="M82.88,119a7,7,0,0,1-5.62-2.85A12,12,0,0,1,60.5,112H34.88v32.91a45.47,45.47,0,0,0,81-28.41,44.6,44.6,0,0,0-.23-4.5H89.88A7,7,0,0,1,82.88,119Zm-20,32a12,12,0,0,1-9.63-19.14,6.84,6.84,0,0,1-1.37.14,7,7,0,1,1,6.35-4.06,11.81,11.81,0,0,1,4.65-.94,12,12,0,0,1,0,24Z"/><path d="M91.88,69.7V27.83A6.31,6.31,0,0,0,95.49,26c2-2.21,1.81-5.24,1.57-8.44-.09-1.14-.18-2.31-.18-3.51s.09-2.37.18-3.51c.24-3.2.47-6.23-1.57-8.44a7.21,7.21,0,0,0-5.61-2h-40a7.21,7.21,0,0,0-5.61,2.05c-2,2.21-1.81,5.24-1.57,8.44.09,1.14.18,2.31.18,3.51s-.09,2.37-.18,3.51c-.24,3.2-.47,6.23,1.57,8.44a6.31,6.31,0,0,0,3.61,1.88V70.18a51.46,51.46,0,0,0-13,9v8.86A45.51,45.51,0,0,1,52.09,74.84l1.79-.79V64h13V58h-13V52h13V46h-13V39h13V33h-13V28a8.86,8.86,0,0,1,.3-2.24l1-3.76H49.88a3.34,3.34,0,0,1-1.2-.15,14.69,14.69,0,0,1,0-3.89c.09-1.19.19-2.54.19-4s-.1-2.77-.19-4a14.69,14.69,0,0,1,0-3.89A3.34,3.34,0,0,1,49.88,6h40a3.34,3.34,0,0,1,1.2.15,13.88,13.88,0,0,1,0,3.89c-.09,1.19-.19,2.54-.19,4s.1,2.77.19,4a13.88,13.88,0,0,1,0,3.89,3.34,3.34,0,0,1-1.2.15H84.6l1,3.76a8.86,8.86,0,0,1,.3,2.24V73.67l1.85.77A45.34,45.34,0,0,1,115.65,112a44.6,44.6,0,0,1,.23,4.5,45.47,45.47,0,0,1-81,28.41v8.85a51.48,51.48,0,1,0,57-84.06Z"/><path class="cls-3" d="M58.23,127.94A7,7,0,1,0,51.88,132a6.84,6.84,0,0,0,1.37-.14A12,12,0,0,1,58.23,127.94Z"/><path class="cls-3" d="M77.26,116.15A7,7,0,1,0,82.88,105h0c0,.33,0,.66,0,1A12,12,0,0,1,77.26,116.15Z"/><circle class="cls-3" cx="82.88" cy="91" r="5"/><path class="cls-4" d="M62.88,127a11.81,11.81,0,0,0-4.65.94,12,12,0,1,0,4.65-.94Z"/><path class="cls-5" d="M70.88,118a12,12,0,0,0,12-12c0-.34,0-.67,0-1a12,12,0,0,0-18-9.37c0,.12,0,.24,0,.37a6,6,0,0,1-5.29,6,12.1,12.1,0,0,0-.71,4,12,12,0,0,0,12,12Z"/><path class="cls-6" d="M64.88,96c0-.13,0-.25,0-.37a6,6,0,1,0-6,6.37,5.52,5.52,0,0,0,.71,0A6,6,0,0,0,64.88,96Z"/><path d="M24.4,156.56a11.43,11.43,0,0,1-2.14,4.19l-3.53-1.58a12.37,12.37,0,0,0,1.94-3.69,13.46,13.46,0,0,0,.75-4.39,7.54,7.54,0,0,0-.88-4.08,2.64,2.64,0,0,0-2.31-1.35,2.26,2.26,0,0,0-1.73.75,5.33,5.33,0,0,0-1.06,1.91c-.26.77-.55,1.82-.88,3.15A36.23,36.23,0,0,1,13.23,156a7.46,7.46,0,0,1-2.08,3,5.61,5.61,0,0,1-3.84,1.24,6.58,6.58,0,0,1-3.69-1.1A7.42,7.42,0,0,1,1,155.79a13.5,13.5,0,0,1-1-5.44,17.77,17.77,0,0,1,.56-4.41,12,12,0,0,1,1.61-3.74l3.54,1.43A14.19,14.19,0,0,0,4.27,147a12.47,12.47,0,0,0-.49,3.4,7,7,0,0,0,.91,4,2.8,2.8,0,0,0,2.41,1.32A2.16,2.16,0,0,0,8.82,155a5.49,5.49,0,0,0,1-1.9c.26-.77.55-1.82.88-3.15a32.19,32.19,0,0,1,1.31-4.48,7.66,7.66,0,0,1,2.08-3,5.52,5.52,0,0,1,3.78-1.24,6.52,6.52,0,0,1,3.68,1.1,7.53,7.53,0,0,1,2.62,3.35,13.63,13.63,0,0,1,1,5.46A18.85,18.85,0,0,1,24.4,156.56Z"/><path d="M23.57,132a12,12,0,0,1-4.49,4.69,12.54,12.54,0,0,1-6.48,1.7,12.46,12.46,0,0,1-6.48-1.72A12,12,0,0,1,1.63,132,13.73,13.73,0,0,1,0,125.29a13.92,13.92,0,0,1,1.05-5.49,11.17,11.17,0,0,1,3.05-4.2l2.76,2.94A8.57,8.57,0,0,0,4,125.08a9.25,9.25,0,0,0,1.1,4.52,8,8,0,0,0,3.07,3.11,8.72,8.72,0,0,0,4.44,1.12A8.72,8.72,0,0,0,17,132.71a8,8,0,0,0,3.07-3.11,9.25,9.25,0,0,0,1.1-4.52,8.53,8.53,0,0,0-2.9-6.54l2.79-2.94a11.1,11.1,0,0,1,3,4.21,14.14,14.14,0,0,1,1.05,5.52A13.76,13.76,0,0,1,23.57,132Z"/><path d="M.35,111.22v-4.55h24.5v4.55Z"/><path d="M21,81.68h3.81v18.38H.35V82.17H4.17V95.51h6.37V83.68h3.74V95.51H21Z"/><path d="M.35,54.84h24.5v3.74L8.26,72.09H24.85v4.52H.35V72.86L16.94,59.35H.35Z"/><path d="M23.57,43.62a12,12,0,0,1-4.49,4.69A12.54,12.54,0,0,1,12.6,50a12.36,12.36,0,0,1-6.48-1.72,12,12,0,0,1-4.49-4.71A13.73,13.73,0,0,1,0,36.88a14,14,0,0,1,1.05-5.49,11.17,11.17,0,0,1,3.05-4.2l2.76,2.94A8.57,8.57,0,0,0,4,36.67a9.25,9.25,0,0,0,1.1,4.52A8,8,0,0,0,8.16,44.3a8.72,8.72,0,0,0,4.44,1.12A8.72,8.72,0,0,0,17,44.3a8,8,0,0,0,3.07-3.11,9.25,9.25,0,0,0,1.1-4.52,8.53,8.53,0,0,0-2.9-6.54l2.79-2.94a11.1,11.1,0,0,1,3,4.21,14.14,14.14,0,0,1,1.05,5.52A13.76,13.76,0,0,1,23.57,43.62Z"/><path d="M21,4.44h3.81V22.81H.35V4.93H4.17V18.26h6.37V6.43h3.74V18.26H21Z"/></svg>