<svg id="Ebene_1" data-name="Ebene 1" xmlns="http://www.w3.org/2000/svg" viewBox="0 0 228.33 204.35"><defs><style>.cls-1{fill:gray;}.cls-2{fill:#ff0136;stroke:#ff0136;stroke-miterlimit:10;}.cls-3{fill:none;}</style></defs><rect x="61.68" y="73.85" width="135.84" height="7" rx="3.5"/><rect x="61.68" y="104.85" width="135.84" height="7" rx="3.5"/><rect x="61.68" y="134.85" width="135.84" height="7" rx="3.5"/><path class="cls-1" d="M77.59,68.29l-1.86.15-1.44-.52V66.67l.69-.29c.33,0,.75-.4,1.23-2.59a20.8,20.8,0,0,0,.45-2.87,4.58,4.58,0,0,0-9.15,0A19.51,19.51,0,0,0,68,63.81c.53,2.18,1,2.54,1.29,2.57l.6.25v1.19l-1.71.62-1.45-.09V80.87H77.59c.41,0,.7-.5,1-1.79a35.35,35.35,0,0,0,.61-3.51c.35-2.51.56-5.06.56-5.08v0A2.17,2.17,0,0,0,77.59,68.29Zm-7.25.07v0Zm3.57,0h0l0,.25v-.26h0v0Z"/><path class="cls-1" d="M73.91,68.37l0,.25v-.26h0Z"/><path class="cls-1" d="M70.34,68.36h0v0Z"/><path class="cls-1" d="M73.91,68.27v.1h0Z"/><path class="cls-1" d="M70.34,68.36h0v0Z"/><path class="cls-1" d="M73.91,68.37l0,.25v-.26h0Z"/><path class="cls-1" d="M73.91,68.27v.1h0Z"/><path class="cls-1" d="M73.91,68.37h0v0Zm0,0h0v.26l0-.25Z"/><path class="cls-1" d="M70.34,68.36h0v0Z"/><path class="cls-1" d="M73.91,68.27v.1h0Z"/><path class="cls-2" d="M190.59,99.29l-1.86.15-1.44-.52V97.67l.69-.29c.33,0,.75-.4,1.23-2.59a20.8,20.8,0,0,0,.45-2.87,4.58,4.58,0,0,0-9.15,0,19.51,19.51,0,0,0,.52,2.89c.53,2.18,1,2.54,1.29,2.57l.6.25v1.19l-1.71.62-1.45-.09v12.52h10.83c.41,0,.7-.5,1-1.79a35.35,35.35,0,0,0,.61-3.51c.35-2.51.56-5.06.56-5.08v0A2.17,2.17,0,0,0,190.59,99.29Zm-7.25.07v0Zm3.57,0h0l0,.25v-.26h0v0Z"/><path class="cls-2" d="M186.91,99.37l0,.25v-.26h0Z"/><path class="cls-2" d="M183.34,99.36h0v0Z"/><path class="cls-2" d="M186.91,99.27v.1h0Z"/><path class="cls-2" d="M183.34,99.36h0v0Z"/><path class="cls-2" d="M186.91,99.37l0,.25v-.26h0Z"/><path class="cls-2" d="M186.91,99.27v.1h0Z"/><path class="cls-2" d="M186.91,99.37h0v0Zm0,0h0v.26l0-.25Z"/><path class="cls-2" d="M183.34,99.36h0v0Z"/><path class="cls-2" d="M186.91,99.27v.1h0Z"/><path class="cls-1" d="M77.59,129.29l-1.86.15-1.44-.52v-1.25l.69-.29c.33,0,.75-.4,1.23-2.59a20.8,20.8,0,0,0,.45-2.87,4.58,4.58,0,0,0-9.15,0,19.51,19.51,0,0,0,.52,2.89c.53,2.18,1,2.54,1.29,2.57l.6.25v1.19l-1.71.62-1.45-.09v12.52H77.59c.41,0,.7-.5,1-1.79a35.35,35.35,0,0,0,.61-3.51c.35-2.51.56-5.06.56-5.08v0A2.17,2.17,0,0,0,77.59,129.29Zm-7.25.07v0Zm3.57,0h0l0,.25v-.26h0v0Z"/><path class="cls-1" d="M73.91,129.37l0,.25v-.26h0Z"/><path class="cls-1" d="M70.34,129.36h0v0Z"/><path class="cls-1" d="M73.91,129.27v.1h0Z"/><path class="cls-1" d="M70.34,129.36h0v0Z"/><path class="cls-1" d="M73.91,129.37l0,.25v-.26h0Z"/><path class="cls-1" d="M73.91,129.27v.1h0Z"/><path class="cls-1" d="M73.91,129.37h0v0Zm0,0h0v.26l0-.25Z"/><path class="cls-1" d="M70.34,129.36h0v0Z"/><path class="cls-1" d="M73.91,129.27v.1h0Z"/><path class="cls-3" d="M191.74,184.35l-.2,0c-.31,0-.41,0-.37,0h.27C191.54,184.34,191.65,184.36,191.74,184.35Z"/><path class="cls-3" d="M61.19,175.35H179.57c4,0,8-.11,12.05,0a53.84,53.84,0,0,1,6.3.85,38.6,38.6,0,0,1,10.54,3.42,44.18,44.18,0,0,1,9.35,5.75q-.13-3.36-.23-6.74c-.34-12-.4-24-.41-36q0-19.89.22-39.79.17-16.27.42-32.53c.08-4.48.15-8.95.24-13.42,0-.31,0-.61,0-.91,0-.06,0-.19,0-.31l-.05-.26c-.06-.28-.13-.56-.2-.84s-.21-.63-.32-.94c0,.06-.25-.57-.39-.81s-.37-.59-.56-.89c.23.37-.22-.3-.47-.58-.12-.12-.37-.44-.6-.66a.56.56,0,0,1-.18-.1l-.53-.34c-.25-.16-.83-.61-1.12-.6.6.24.66.28.2.1l-.15,0c-.2-.06-.4-.13-.61-.18l-.5-.11-.69,0h-.16c-3.51,0-7,0-10.53,0H47.78v126Z"/><path class="cls-3" d="M191.79,184.35h0Z"/><path d="M191.44,184.35h-.27a.85.85,0,0,0,.63,0h-.06C191.65,184.36,191.54,184.34,191.44,184.35Z"/><path d="M228.1,198.7a10.11,10.11,0,0,1-.51-2.24v0c0-.21-.05-.42-.07-.64-.08-.7-.15-1.41-.21-2.12-.33-3.91-.49-7.84-.62-11.77-.4-11.58-.47-23.16-.5-34.75q0-19.95.16-39.91.16-17,.43-33.9c.08-5.41.33-10.85.27-16.26,0-.08,0-.15,0-.22-.12-8.54-6.38-16.38-15.27-16.5-.95,0-1.9,0-2.86,0H47.78v9H201.13c3.51,0,7,0,10.53,0h.16l.69,0,.5.11c.21,0,.41.12.61.18l.15,0c.46.18.4.14-.2-.1.29,0,.87.44,1.12.6l.53.34a.56.56,0,0,0,.18.1c.23.22.48.54.6.66.25.28.7.95.47.58.19.3.39.58.56.89s.4.87.39.81c.11.31.23.62.32.94s.14.56.2.84l.05.26c0,.12,0,.25,0,.31,0,.3,0,.6,0,.91-.09,4.47-.16,8.94-.24,13.42q-.26,16.26-.42,32.53-.21,19.89-.22,39.79c0,12,.07,24,.41,36q.09,3.38.23,6.74a44.18,44.18,0,0,0-9.35-5.75,38.6,38.6,0,0,0-10.54-3.42,53.84,53.84,0,0,0-6.3-.85c-4-.11-8,0-12.05,0H47.78v9H187.05c1.37,0,2.75,0,4.12,0,0,0,.06-.08.37,0l.2,0h.06l.57.08,1.8.25a38.14,38.14,0,0,1,4.5.78c.76.2,1.51.44,2.25.71.43.15.85.31,1.28.48l.71.29.07,0,.27.11a48.26,48.26,0,0,1,5.35,2.76q1.25.75,2.43,1.59c.15.11.69.52.79.58.34.28.68.56,1,.85a30.47,30.47,0,0,1,4,4.13l.59.82c.29.42.56.84.83,1.27a32.5,32.5,0,0,1,1.65,3.08c1,2,3.72,2.64,5.62,1.84S228.93,200.79,228.1,198.7Z"/><path d="M28.47,180.59a12,12,0,0,1-4.5,4.69A12.47,12.47,0,0,1,17.5,187,12.45,12.45,0,0,1,11,185.26a12,12,0,0,1-4.49-4.71,13.73,13.73,0,0,1-1.63-6.7,14,14,0,0,1,1-5.5A11.33,11.33,0,0,1,9,164.15l2.76,2.94a8.61,8.61,0,0,0-2.87,6.55,9.21,9.21,0,0,0,1.1,4.51,8,8,0,0,0,3.06,3.12,8.78,8.78,0,0,0,4.45,1.12,8.72,8.72,0,0,0,4.44-1.12A8,8,0,0,0,25,178.15a9.21,9.21,0,0,0,1.1-4.51,8.57,8.57,0,0,0-2.9-6.55L26,164.15a11.24,11.24,0,0,1,3.05,4.22,14.13,14.13,0,0,1,1.05,5.51A13.77,13.77,0,0,1,28.47,180.59Z"/><path d="M5.25,138h24.5v4.55H19.25v12.67h10.5v4.55H5.25v-4.55H15.37V142.56H5.25Z"/><path d="M24.08,115.54v12.25l5.67,2.41v4.69l-24.5-11v-4.48l24.5-11.06v4.76ZM20.51,117,9.8,121.66l10.71,4.59Z"/><path d="M9.1,101.47v8.12H5.25V88.8H9.1v8.12H29.75v4.55Z"/></svg>