<svg id="Ebene_1" data-name="Ebene 1" xmlns="http://www.w3.org/2000/svg" viewBox="0 0 174.42 163.4"><defs><style>.cls-1{fill:#4d4d4d;stroke-width:5px;}.cls-1,.cls-2{stroke:#000;stroke-miterlimit:10;}.cls-2{fill:#e6e6e6;stroke-width:7px;}.cls-3{fill:#ff0136;}</style></defs><path class="cls-1" d="M81.71,16.12a7.27,7.27,0,0,1,10.12,1.65l3.6,5a7.27,7.27,0,0,1-1.65,10.12L66.33,52.65A118.6,118.6,0,0,0,97.23,55l52.19-5.27a7.28,7.28,0,0,1,8,6.48l.2,2a7.27,7.27,0,0,1-6.49,7.94l-52,5.25.29,2.82.33-.06,57.71-5.82a7.28,7.28,0,0,1,7.94,6.48l.26,2.61a7.27,7.27,0,0,1-6.48,7.94l-57.71,5.83-.33,0,.22,2.21,55.56-5.61a7.27,7.27,0,0,1,7.94,6.49l.21,2a7.28,7.28,0,0,1-6.49,7.94L103,109.88l.28,2.8,35.2-3.56a7.27,7.27,0,0,1,7.94,6.49l.08.8a7.28,7.28,0,0,1-6.48,8l-57.71,5.82a6.81,6.81,0,0,1-1.69,0l-46.75,4.72a7.26,7.26,0,0,1-7.94-6.48L19.51,64.67c-.36-3.6,10.2-12,13.35-13.36Z"/><path class="cls-2" d="M65.71,41.12a7.27,7.27,0,0,1,10.12,1.65l3.6,5a7.27,7.27,0,0,1-1.65,10.12L50.33,77.65A118.6,118.6,0,0,0,81.23,80l52.19-5.27a7.28,7.28,0,0,1,8,6.48l.2,2a7.27,7.27,0,0,1-6.49,7.94l-52,5.25.29,2.82.33-.06,57.71-5.82a7.28,7.28,0,0,1,7.94,6.48l.26,2.61a7.27,7.27,0,0,1-6.48,7.94l-57.71,5.83-.33,0,.22,2.21,55.56-5.61a7.27,7.27,0,0,1,7.94,6.49l.21,2a7.28,7.28,0,0,1-6.49,7.94L87,134.88l.28,2.8,35.2-3.56a7.27,7.27,0,0,1,7.94,6.49l.08.8a7.28,7.28,0,0,1-6.48,8l-57.71,5.82a6.81,6.81,0,0,1-1.69,0l-46.75,4.72a7.26,7.26,0,0,1-7.94-6.48L3.51,89.67c-.36-3.6,10.2-12,13.35-13.36Z"/><path class="cls-3" d="M113,39.89c.57-.39,1.18-.76,1.73-1.18A26.5,26.5,0,0,0,118.15,35c2.47-2.8,4.88-5.65,7.26-8.53,1.18-1.44,2.41-2.86,3.52-4.36.91-1.22,1.17-2.75-.08-3.85s-3-1.2-4.47-1.57l-5.71-1.49a1.35,1.35,0,0,0-1.63.93q-2.88,9.71-5.77,19.41a1.2,1.2,0,0,0,0,.45c-.06.91-.12,1.83-.17,2.75A1.33,1.33,0,0,0,113,39.89Z"/><path class="cls-3" d="M162.69,4.39A9.13,9.13,0,0,1,160.51,6l-4.9,3.31-7.69,5.18c.28-1,.56-1.92.84-2.9.56-1.94,1.12-3.89,1.66-5.84.25-.85.49-1.7.74-2.56.14-.48.27-1,.42-1.46A7.11,7.11,0,0,1,152,.23c.19-.33,0-.21.34-.19a5.07,5.07,0,0,1,1.39.54l2.82,1.09c1.82.71,3.66,1.39,5.47,2.14a2.11,2.11,0,0,1,.75.37C162.86,4.32,162.89,4.14,162.69,4.39Z"/><path class="cls-3" d="M151,43.52A44.7,44.7,0,0,0,148,46.91a24.29,24.29,0,0,0-1.5,2.57,1.14,1.14,0,0,0-.27.78,1.28,1.28,0,0,0,.55,1.06,1.19,1.19,0,0,0,.78.29h.13a1.17,1.17,0,0,0,.65-.23,55.15,55.15,0,0,1,24.78-6.85,1.34,1.34,0,0,0,1.28-1.68l-5.69-15.72a1.34,1.34,0,0,0-2.21-.58L154,40.25Z"/></svg>