<svg id="Ebene_1" data-name="Ebene 1" xmlns="http://www.w3.org/2000/svg" viewBox="0 0 272 91"><defs><style>.cls-1{fill:none;stroke:gray;}.cls-1,.cls-3{stroke-miterlimit:10;stroke-width:4px;}.cls-2,.cls-3{fill:gray;}.cls-3{stroke:#fff;}</style></defs><rect class="cls-1" x="2" y="2" width="268" height="87" rx="12"/><path class="cls-2" d="M81.44,57.94a11.46,11.46,0,0,1-4.18-2.14l1.57-3.53a12.55,12.55,0,0,0,3.7,1.94,13.46,13.46,0,0,0,4.39.75A7.54,7.54,0,0,0,91,54.08a2.63,2.63,0,0,0,1.34-2.3A2.26,2.26,0,0,0,91.59,50,5.16,5.16,0,0,0,89.68,49c-.76-.26-1.81-.55-3.14-.88A37,37,0,0,1,82,46.77a7.5,7.5,0,0,1-3-2.08,5.6,5.6,0,0,1-1.24-3.83,6.51,6.51,0,0,1,1.1-3.7,7.39,7.39,0,0,1,3.32-2.64,13.55,13.55,0,0,1,5.45-1,17.63,17.63,0,0,1,4.4.56,12.11,12.11,0,0,1,3.75,1.61l-1.43,3.54A14.44,14.44,0,0,0,91,37.81a12.35,12.35,0,0,0-3.39-.49,7.08,7.08,0,0,0-4,.91,2.82,2.82,0,0,0-1.31,2.42,2.17,2.17,0,0,0,.75,1.71,5.54,5.54,0,0,0,1.91,1c.77.26,1.82.55,3.15.88a32.61,32.61,0,0,1,4.48,1.31,7.63,7.63,0,0,1,3,2.08,5.47,5.47,0,0,1,1.25,3.78,6.45,6.45,0,0,1-1.11,3.68,7.5,7.5,0,0,1-3.34,2.62,13.63,13.63,0,0,1-5.46,1A18.92,18.92,0,0,1,81.44,57.94Z"/><path class="cls-2" d="M117,34.94a8.07,8.07,0,0,1,3.62,3,9.19,9.19,0,0,1,0,9.29,8,8,0,0,1-3.62,3,13.6,13.6,0,0,1-5.55,1h-5.53v7.07h-4.55V33.89h10.08A13.6,13.6,0,0,1,117,34.94Zm-1.25,11.27a4.38,4.38,0,0,0,1.54-3.6A4.38,4.38,0,0,0,115.72,39a7,7,0,0,0-4.51-1.26h-5.32v9.73h5.32A7,7,0,0,0,115.72,46.21Z"/><path class="cls-2" d="M144.78,54.58v3.81H126.4V33.89h17.89v3.82H131v6.37h11.83v3.74H131v6.76Z"/><path class="cls-2" d="M171.62,33.89v24.5h-3.74L154.37,41.8V58.39h-4.52V33.89h3.75l13.51,16.59V33.89Z"/><path class="cls-2" d="M178.2,33.89h10.71a15.47,15.47,0,0,1,7,1.52,11.27,11.27,0,0,1,4.72,4.31,12.15,12.15,0,0,1,1.68,6.42,12.15,12.15,0,0,1-1.68,6.42,11.27,11.27,0,0,1-4.72,4.31,15.47,15.47,0,0,1-7,1.52H178.2Zm10.5,20.65a10.34,10.34,0,0,0,4.74-1,7.35,7.35,0,0,0,3.15-2.94,9.4,9.4,0,0,0,0-8.86,7.35,7.35,0,0,0-3.15-2.94,10.34,10.34,0,0,0-4.74-1h-5.95v16.8Z"/><path class="cls-2" d="M225.49,54.58v3.81H207.11V33.89H225v3.82H211.66v6.37h11.83v3.74H211.66v6.76Z"/><path class="cls-2" d="M252.33,33.89v24.5h-3.75L235.08,41.8V58.39h-4.52V33.89h3.74l13.51,16.59V33.89Z"/><path class="cls-2" d="M67.71,40a20.49,20.49,0,1,0,0,25.13Z"/><path class="cls-3" d="M45.73,24.44C40.67,22.28,37,18.2,36.67,11.7A20.11,20.11,0,1,0,59.46,23C55.09,26.35,50.35,26.41,45.73,24.44Z"/></svg>