<svg id="Ebene_1" data-name="Ebene 1" xmlns="http://www.w3.org/2000/svg" viewBox="0 0 188.22 148.99"><defs><style>.cls-1{fill:#ccc;}.cls-2{fill:#fff;}.cls-3{fill:#ff0136;}</style></defs><path class="cls-1" d="M170.72,26.48c-.05-.15,0-.1,0,0Z"/><path class="cls-1" d="M176.15,79.08Q175,63.89,173.57,48.71q-.75-7.58-1.57-15.15c-.08-.67-.15-1.34-.23-2,0-.27-.06-.56-.09-.84a.35.35,0,0,1,0-.06s0-.08,0-.17,0,0,0-.06a0,0,0,0,0,0,0v-.05a.28.28,0,0,1,0-.06c0-.11,0-.21,0-.24,0-.22-.07-.42-.11-.64-.11-.54-.23-1.1-.38-1.63-.08-.27-.16-.53-.25-.79,0,0,0,0,0,0s0,0,0,0c-.2-.37-.43-.73-.63-1.09a3.73,3.73,0,0,1-.32-.36l-.39-.37-1.13-.68h0l-.05,0h0l-.09,0a.13.13,0,0,1,.08,0,.91.91,0,0,0-.2-.08H168a17.17,17.17,0,0,0-2.44-.64l-.38-.08H165c-.41,0-.81-.08-1.21-.1-.9-.07-1.81-.09-2.71-.12l-14.91-.38-29.82-.78L56.72,20.58c-2.1,0-4.2-.11-6.3-.06-1,0-2.08.06-3.12.14l-1.44.14h-.14a0,0,0,0,0,0,0l-.68.11a26,26,0,0,0-3,.68l-.13,0V138.07l.18.11a10,10,0,0,0,2.25,1.17c.16.05.35.09.46.14.39.16.79.3,1.19.43a38.36,38.36,0,0,0,5.26,1.37l1.43.25.24,0,.12,0,.08,0h0l.09,0h.07c.72.11,1.47.15,2.19.22,4.13.38,8.29.33,12.44.35l16.72.12,33,.23,61.55.42c0-1,0-2-.06-3Q178.35,109.52,176.15,79.08Z"/><path d="M45.74,20.8h0Z"/><path d="M168.24,24.25h0l-.08,0Z"/><path d="M169.4,24.89a.23.23,0,0,0,.07.07l.07,0Z"/><path d="M170.15,25.62l0,.05,0,0C170.66,26.11,169.84,25.07,170.15,25.62Z"/><path d="M171.64,30.16v0a.06.06,0,0,1,0,0v0A0,0,0,0,1,171.64,30.16Z"/><path d="M179.22,144.49l0,0h0Z"/><path d="M183.62,140a.28.28,0,0,1,0,.09l.09-.09Z"/><path d="M21,128.31h3.81v18.37H.35V128.8H4.17v13.33h6.37V130.3h3.74v11.83H21Z"/><path d="M.35,101.18l24.5,10.68v4.48L.35,127.05v-4.94L19.25,114,.35,105.73Z"/><path d="M21,80.22h3.81V98.59H.35V80.71H4.17V94h6.37V82.21h3.74V94H21Z"/><path d="M.35,53.37h24.5v3.75L8.26,70.63H24.85v4.51H.35V71.4L16.94,57.89H.35Z"/><path d="M4.2,41.82v8.12H.35V29.15H4.2v8.12H24.85v4.55Z"/><path d="M24.4,23.85A11.38,11.38,0,0,1,22.26,28l-3.53-1.57a12.49,12.49,0,0,0,1.94-3.69,13.52,13.52,0,0,0,.75-4.4,7.48,7.48,0,0,0-.88-4.07A2.64,2.64,0,0,0,18.24,13a2.26,2.26,0,0,0-1.74.75,5.25,5.25,0,0,0-1.06,1.91c-.26.77-.55,1.82-.88,3.15a36.75,36.75,0,0,1-1.33,4.53,7.46,7.46,0,0,1-2.08,3,5.65,5.65,0,0,1-3.83,1.24,6.59,6.59,0,0,1-3.7-1.1A7.47,7.47,0,0,1,1,23.08a13.53,13.53,0,0,1-1-5.44,17.71,17.71,0,0,1,.56-4.41A12.11,12.11,0,0,1,2.17,9.48l3.54,1.44a14.19,14.19,0,0,0-1.44,3.36,12.4,12.4,0,0,0-.49,3.39,7.06,7.06,0,0,0,.91,4A2.8,2.8,0,0,0,7.11,23a2.17,2.17,0,0,0,1.71-.75,5.54,5.54,0,0,0,1-1.91c.26-.77.55-1.82.88-3.15a32.61,32.61,0,0,1,1.31-4.48,7.7,7.7,0,0,1,2.08-3,5.47,5.47,0,0,1,3.78-1.24,6.52,6.52,0,0,1,3.68,1.1,7.55,7.55,0,0,1,2.62,3.34,13.7,13.7,0,0,1,1,5.46A18.92,18.92,0,0,1,24.4,23.85Z"/><path d="M182.88,51.22q-.75-7.77-1.61-15.52c-.53-4.76-2.39-17.7-2.39-17.7-1-4-21.44-3.87-26.24-4l-31.06-.79L59.2,11.64c-5.64-.14-11.67-.4-17.32.72v9.26l.13,0a28.17,28.17,0,0,1,3-.66l.68-.11h.17l1.44-.13c1-.08,2.08-.12,3.12-.14,2.1-.05,4.2,0,6.3.06l59.64,1.51,29.82.76,14.91.37c.9,0,1.81.05,2.71.12.4,0,.8.07,1.21.1h.14l.38.07c.83.16,2.44.63,2.46.64h0l.22.08h.05l.05,0h0c.38.23.76.44,1.13.67,0,0,0,0,.07,0l-.07,0,.39.36.29.3c-.31-.55,0,.05,0,.05.2.35.43.7.63,1.06,0,0,0,0,0,0s0,0,0,0c.09.25.52,1.83.63,2.36,0,.21.07.41.11.62,0,0,0,.13,0,.24a.28.28,0,0,0,0,.06.06.06,0,0,0,0,0v0s0,0,0,.06,0,.15,0,.17a.35.35,0,0,0,0,.06l.09.82c.08.66,1.3,11.82,1.8,16.74Q175,62.8,176.15,77.63c1.47,19.78,3,62.36,3,63.33l-61.55-.41c-11-.07-72.42-3.86-72.81-4a9.23,9.23,0,0,1-2.71-.28c-.06,0-.12-1.07-.18-1.1V145c1.94.75,55.23,3.38,66.46,3.46l75.38.5a4.55,4.55,0,0,0,4.5-4.5C187.85,123.75,183.89,61.58,182.88,51.22Zm-3.66,93.27v0h0Zm4.41-4.41a.28.28,0,0,0,0-.09h.1Z"/><circle class="cls-2" cx="99.38" cy="88.5" r="34.5"/><polygon class="cls-3" points="116.86 112.06 99.58 104.12 83.24 113.85 85.45 94.96 71.15 82.42 89.8 78.69 97.3 61.21 106.61 77.8 125.56 79.53 112.66 93.51 116.86 112.06"/><rect x="46.88" y="39" width="102" height="8" rx="4"/><rect x="52.88" width="8" height="26" rx="4"/><rect x="76.88" width="8" height="26" rx="4"/><rect x="99.88" width="8" height="26" rx="4"/><rect x="125.88" width="8" height="26" rx="4"/></svg>