<svg id="Ebene_1" data-name="Ebene 1" xmlns="http://www.w3.org/2000/svg" viewBox="0 0 192 192"><defs><style>.cls-1{fill:#ff0136;stroke:#000;stroke-linecap:round;stroke-linejoin:round;stroke-width:8.13px;}.cls-1,.cls-2,.cls-3{fill-rule:evenodd;}.cls-3{fill:#fff;}</style></defs><path class="cls-1" d="M103.19,25.25c20.81-3.4,40.66,9.61,44.3,29s-10.29,37.94-31.1,41.34-40.66-9.6-44.31-29,10.3-37.94,31.11-41.34Z"/><path class="cls-2" d="M100.67,95l-8.35-3.29c-13.24,26.14-30.72,57.42-29.41,62.4,2.23,8.44,6.71,10.94,14.24,5.34,8.55-7.72,14.31-41.18,23.52-64.45Z"/><polygon class="cls-3" points="80.2 -9.45 18.64 -9.45 18.64 189.05 80.2 189.05 80.2 -9.45 80.2 -9.45"/><polygon points="45.23 156.5 48.69 156.5 48.69 167.6 55.16 167.6 55.16 158.85 58.51 158.85 58.51 167.6 65.11 167.6 65.11 156.5 68.59 156.5 68.59 172.29 45.23 172.29 45.23 156.5 45.23 156.5"/><path d="M56.57,144.9l-11.34,8v-4.64a1.51,1.51,0,0,1,.12-.7,1.25,1.25,0,0,1,.4-.39l8.57-5.7c-.13,0-.27-.12-.41-.19a3.61,3.61,0,0,1-.41-.24l-7.67-5.21a1.13,1.13,0,0,1-.6-1v-4.46l11.16,8.07,12.2-8.3v4.66a1.18,1.18,0,0,1-.23.75,2.15,2.15,0,0,1-.52.48l-8.94,5.8.36.15.31.18,8.27,5.55a2.52,2.52,0,0,1,.51.47,1,1,0,0,1,.24.69v4.37l-12-8.33Z"/><path d="M60.37,121h8.22v4.65H45.23v-8.15a15.42,15.42,0,0,1,.55-4.34,8.47,8.47,0,0,1,1.54-3,6,6,0,0,1,2.35-1.77,7.8,7.8,0,0,1,3-.57,7.87,7.87,0,0,1,3.11.6,6.54,6.54,0,0,1,2.43,1.82,8.7,8.7,0,0,1,1.58,3,14.27,14.27,0,0,1,.57,4.26V121ZM57,121v-3.5a7.78,7.78,0,0,0-.29-2.23,4.28,4.28,0,0,0-.86-1.58,3.41,3.41,0,0,0-1.36-.93,4.82,4.82,0,0,0-1.78-.31,4.4,4.4,0,0,0-1.7.31,3.39,3.39,0,0,0-1.29.93,4.23,4.23,0,0,0-.82,1.58,8.18,8.18,0,0,0-.28,2.23V121Z"/><polygon points="65 97.99 65 87.96 68.59 87.96 68.59 102.64 45.23 102.64 45.23 97.99 65 97.99 65 97.99"/><path d="M56.91,60.56a12.23,12.23,0,0,1,4.76.91,11.32,11.32,0,0,1,3.78,2.59,11.71,11.71,0,0,1,2.5,4,15.39,15.39,0,0,1,0,10.37,11.8,11.8,0,0,1-2.5,4A11,11,0,0,1,61.67,85a12.77,12.77,0,0,1-9.52,0,10.94,10.94,0,0,1-3.78-2.59,11.8,11.8,0,0,1-2.5-4,14.43,14.43,0,0,1-.9-5.19,14.12,14.12,0,0,1,.91-5.18,11.84,11.84,0,0,1,2.49-4,11.22,11.22,0,0,1,3.78-2.59,12.23,12.23,0,0,1,4.76-.91Zm0,4.78a10.32,10.32,0,0,0-3.45.54,7.12,7.12,0,0,0-2.59,1.57,6.7,6.7,0,0,0-1.63,2.48,9.87,9.87,0,0,0,0,6.61A6.78,6.78,0,0,0,50.87,79a7.28,7.28,0,0,0,2.59,1.58,10.91,10.91,0,0,0,6.9,0A7.15,7.15,0,0,0,62.94,79a6.76,6.76,0,0,0,1.62-2.5,9.87,9.87,0,0,0,0-6.61,6.68,6.68,0,0,0-1.62-2.48,7,7,0,0,0-2.58-1.57,10.32,10.32,0,0,0-3.45-.54Z"/><path d="M59.46,50.52h9.13v4.65H45.23V47.54a17.43,17.43,0,0,1,.49-4.39,8.47,8.47,0,0,1,1.39-3,5.45,5.45,0,0,1,2.12-1.72A6.71,6.71,0,0,1,52,37.9a6.56,6.56,0,0,1,2.23.37,6.3,6.3,0,0,1,1.91,1.07,7.22,7.22,0,0,1,1.5,1.73,9.49,9.49,0,0,1,1,2.35A4.4,4.4,0,0,1,60,41.9l8.63-6.27v4.19a2.18,2.18,0,0,1-.23,1,2.12,2.12,0,0,1-.65.72l-7.47,5.26a1.82,1.82,0,0,0-.6.65,2.39,2.39,0,0,0-.18,1.05v2Zm-3.12,0V47.61a7.8,7.8,0,0,0-.3-2.29,4.55,4.55,0,0,0-.85-1.61,3.34,3.34,0,0,0-1.29-1,4.08,4.08,0,0,0-1.63-.31,3.23,3.23,0,0,0-2.73,1.26,6.33,6.33,0,0,0-.95,3.83v3Z"/><polygon points="45.23 15.3 48.69 15.3 48.69 26.4 55.16 26.4 55.16 17.66 58.51 17.66 58.51 26.4 65.11 26.4 65.11 15.3 68.59 15.3 68.59 31.09 45.23 31.09 45.23 15.3 45.23 15.3"/><path class="cls-3" d="M130.71,53.6a1.57,1.57,0,0,0-.76-2.09l-3-1.43a1.56,1.56,0,0,0-2.09.75l-1.34,2.84a1.57,1.57,0,0,0,.75,2.09l3,1.43a1.57,1.57,0,0,0,2.09-.75l1.34-2.84Z"/><path class="cls-3" d="M137.53,56.86a1.57,1.57,0,0,0-.75-2.09l-3.05-1.44a1.58,1.58,0,0,0-2.09.75l-1.34,2.84a1.57,1.57,0,0,0,.75,2.09l3,1.44a1.57,1.57,0,0,0,2.09-.75l1.34-2.84Z"/><path class="cls-3" d="M127.41,60.35a1.52,1.52,0,0,0-.72-2l-3.15-1.48a1.52,1.52,0,0,0-2,.73l-1.29,2.74a1.52,1.52,0,0,0,.73,2l3.14,1.48a1.52,1.52,0,0,0,2-.72l1.29-2.75Z"/><path class="cls-3" d="M134.24,63.61a1.51,1.51,0,0,0-.73-2l-3.14-1.49a1.52,1.52,0,0,0-2,.73l-1.29,2.74a1.51,1.51,0,0,0,.72,2l3.15,1.49a1.51,1.51,0,0,0,2-.73l1.3-2.74Z"/></svg>