<svg id="Ebene_1" data-name="Ebene 1" xmlns="http://www.w3.org/2000/svg" viewBox="0 0 149.88 194.4"><defs><style>.cls-1{fill:#ff0136;}.cls-2{fill:#4d4d4d;}</style></defs><polyline class="cls-1" points="109.29 146.65 79.56 194.4 49.35 145.39"/><path class="cls-2" d="M78.88,0a70.69,70.69,0,0,0-44,15.3V126.7A71,71,0,1,0,78.88,0Z"/><path d="M.35,191.68v-4.55H21V174.32h3.85v17.36Z"/><path d="M23.57,166.48a12.08,12.08,0,0,1-4.51,4.73,12.45,12.45,0,0,1-6.46,1.71,12.45,12.45,0,0,1-6.46-1.71,12.08,12.08,0,0,1-4.51-4.73,14.81,14.81,0,0,1,0-13.51,12,12,0,0,1,4.49-4.72,12.36,12.36,0,0,1,6.48-1.72,12.36,12.36,0,0,1,6.48,1.72A12,12,0,0,1,23.57,153a14.81,14.81,0,0,1,0,13.51Zm-3.46-11.16A7.93,7.93,0,0,0,17,152.24a8.81,8.81,0,0,0-4.43-1.12,8.81,8.81,0,0,0-4.43,1.12,7.93,7.93,0,0,0-3.08,3.08,9.39,9.39,0,0,0,0,8.82,8.06,8.06,0,0,0,3.08,3.08,8.92,8.92,0,0,0,4.43,1.12A8.92,8.92,0,0,0,17,167.22a8.06,8.06,0,0,0,3.08-3.08,9.39,9.39,0,0,0,0-8.82Z"/><path d="M23.57,137.06a11.92,11.92,0,0,1-4.49,4.69,12.44,12.44,0,0,1-6.48,1.7,12.45,12.45,0,0,1-6.48-1.71A12.18,12.18,0,0,1,1.63,137,13.76,13.76,0,0,1,0,130.33a14,14,0,0,1,1.05-5.5,11.17,11.17,0,0,1,3.05-4.2l2.76,2.94A8.59,8.59,0,0,0,4,130.12a9.21,9.21,0,0,0,1.1,4.51,8,8,0,0,0,3.07,3.12,8.82,8.82,0,0,0,4.44,1.12A8.82,8.82,0,0,0,17,137.75a8,8,0,0,0,3.07-3.12,9.21,9.21,0,0,0,1.1-4.51,8.55,8.55,0,0,0-2.9-6.55l2.79-2.94a11.05,11.05,0,0,1,3,4.22,14.09,14.09,0,0,1,1.05,5.51A13.73,13.73,0,0,1,23.57,137.06Z"/><path d="M19.18,100.89v12.25l5.67,2.42v4.69l-24.5-11v-4.48l24.5-11.06v4.76Zm-3.57,1.51L4.9,107l10.71,4.58Z"/><path d="M4.2,86.82v8.12H.35V74.15H4.2v8.12H24.85v4.55Z"/><path d="M.35,70.72V66.17h24.5v4.55Z"/><path d="M23.57,54.87a12,12,0,0,1-4.51,4.72,12.37,12.37,0,0,1-6.46,1.72,12.37,12.37,0,0,1-6.46-1.72,12,12,0,0,1-4.51-4.72,14.81,14.81,0,0,1,0-13.51,12.1,12.1,0,0,1,4.49-4.73,12.45,12.45,0,0,1,6.48-1.71,12.45,12.45,0,0,1,6.48,1.71,12.1,12.1,0,0,1,4.49,4.73,14.81,14.81,0,0,1,0,13.51ZM20.11,43.7A8.06,8.06,0,0,0,17,40.62,8.92,8.92,0,0,0,12.6,39.5a8.92,8.92,0,0,0-4.43,1.12A8.06,8.06,0,0,0,5.09,43.7a9.39,9.39,0,0,0,0,8.82A8,8,0,0,0,8.17,55.6a8.81,8.81,0,0,0,4.43,1.12A8.81,8.81,0,0,0,17,55.6a8,8,0,0,0,3.08-3.08,9.39,9.39,0,0,0,0-8.82Z"/><path d="M.35,8.32h24.5v3.74L8.26,25.57H24.85v4.52H.35V26.34L16.94,12.83H.35Z"/></svg>