<svg id="Ebene_1" data-name="Ebene 1" xmlns="http://www.w3.org/2000/svg" viewBox="0 0 180.11 178"><defs><style>.cls-1{fill:gray;stroke:#000;stroke-width:2px;}.cls-1,.cls-7{stroke-miterlimit:10;}.cls-2{fill:#ff0136;}.cls-3{fill:#4d4d4d;}.cls-4{fill:#999;}.cls-5{fill:#b3b3b3;}.cls-6{fill:#fff;}.cls-7{fill:none;stroke:#b3b3b3;stroke-width:0.75px;}</style></defs><circle class="cls-1" cx="101.06" cy="68.61" r="18.28"/><path class="cls-2" d="M87.3,57.53,20,114.49a5.41,5.41,0,0,0-.76,7.48l6.12,7.79a7.34,7.34,0,0,0,9.64,1.7l78-48.38"/><path d="M31.12,134.07a8.82,8.82,0,0,1-6.95-3.39l-6.12-7.78a6.9,6.9,0,0,1,1-9.56l67.32-57,1.93,2.29L21,115.63a3.9,3.9,0,0,0-.55,5.41l6.11,7.79a5.84,5.84,0,0,0,7.68,1.36l78-48.39,1.58,2.55-78,48.38A8.85,8.85,0,0,1,31.12,134.07Z"/><circle class="cls-3" cx="111.96" cy="60.4" r="22.55"/><path d="M112,84.45a24.17,24.17,0,0,1-3.58-.27A24,24,0,1,1,135.75,64h0A24.1,24.1,0,0,1,112,84.45Zm-.06-45.1a21,21,0,1,0,20.86,24.17h0a21.08,21.08,0,0,0-17.7-23.94A22.39,22.39,0,0,0,111.92,39.35Z"/><path d="M98.56,41.38A38.47,38.47,0,0,0,109.75,64c6.34,6.14,12.06,9.2,20.82,10,2.34.2,4.77-4.68,2.44-4.88-15.78-1.37-28.71-12-30.8-27.73a1.88,1.88,0,0,0-1.83-1.83,1.84,1.84,0,0,0-1.82,1.83Z"/><path d="M12.76,129.14c-4.46,7.76-.87,17.43,5.92,22.52,8.46,6.35,20.43,4.19,29.18-.35,9.86-5.13,17.52-13.5,26.76-19.55a92.21,92.21,0,0,1,27.11-12,93.87,93.87,0,0,1,58.38,3.29c4.43,1.78,9,4,12.12,7.71a14.36,14.36,0,0,1,2.45,13.29c-2.94,10.22-13.07,15.21-22.56,17.73a91,91,0,0,1-50-1.14A68.81,68.81,0,0,1,87,154.27c-4.25-2.56-7.48-6.25-7.84-11.41-.33-4.83,1.55-9.73,4.26-13.65,5.52-8,14.65-13,24-14.91,10.55-2.16,21.41-.25,31.21,4a75.14,75.14,0,0,1,14.61,8.45c4.1,3,8.2,6.51,10.16,11.34,1.88,4.6,1.29,10.12-2.79,13.3s-9.57,4-14.28,5.23c-10.83,2.86-22.48,5.31-33.55,2.32a32.51,32.51,0,0,1-12.56-6.33c-3.61-3-7.18-7.73-7.15-12.68,0-5.37,4.7-9.76,8.49-13,4.1-3.49,8.89-5.74,14.34-5.63,5.8.13,11.36,2.34,16.54,4.81,4.22,2,9.17,4.14,12.44,7.61,3.45,3.67,3.07,8.43-.27,12.06-3.49,3.79-8.27,5.26-13.14,6.32s-10.12,2-14.64,4.54c-2.16,1.24-.45,4.75,1.74,3.5,5-2.87,10.79-3.43,16.3-4.82,5.24-1.33,10.17-3.71,13.57-8.08a12,12,0,0,0,1-13.93c-2.79-4.39-7.68-6.8-12.15-9.09-10.44-5.35-22.84-10.15-33.85-3.47a35.75,35.75,0,0,0-12.15,11.84c-3,5.23-2.52,11,.56,16.14,5.44,9,15.52,13.77,25.62,15.07,12.37,1.6,25.23-1.84,37-5.41,4.9-1.48,9.91-3.71,12.33-8.54s1.69-11-1-15.6c-2.79-4.92-7.27-8.57-11.83-11.75a78.55,78.55,0,0,0-16-8.67c-10.54-4.19-22.27-5.67-33.36-2.91-10,2.5-19.81,8.38-25.33,17.37a25.49,25.49,0,0,0-4,15.13,17.55,17.55,0,0,0,7.79,13c4.61,3.27,10.19,5.42,15.5,7.22a94.61,94.61,0,0,0,17.88,4.19,93.56,93.56,0,0,0,36.42-2.19c10.36-2.76,21.07-8.13,25-18.88a19.27,19.27,0,0,0-.46-15.1c-2.35-4.69-6.71-7.84-11.27-10.14a87.35,87.35,0,0,0-30.92-8.37,98.33,98.33,0,0,0-61.5,14.59c-10,6.4-18.26,15.73-29.08,20.82-9.33,4.38-22.52,5.16-28.19-5.21-2-3.68-2.66-8.23-.5-12,1.25-2.17-2-4.37-3.21-2.19Z"/><ellipse cx="141.48" cy="87.49" rx="6.55" ry="8.55" transform="translate(24.61 205.86) rotate(-77.1)"/><path d="M156.21,60.46q-1.56,7.8-3.55,15.5c-.65,2.52-1.32,5-2.06,7.52a28.14,28.14,0,0,1-3,7c-.59.93.83,1.89,1.42,1,2.78-4.4,3.9-9.74,5.19-14.71q2-7.84,3.62-15.78c.22-1.07-1.4-1.62-1.62-.54Z"/><ellipse cx="163.7" cy="92.58" rx="6.55" ry="8.55" transform="translate(36.9 231.47) rotate(-77.1)"/><path d="M178.43,65.55q-1.56,7.8-3.55,15.5c-.65,2.52-1.32,5-2.06,7.52a28.14,28.14,0,0,1-3,7.05c-.59.93.83,1.89,1.42,1,2.78-4.4,3.9-9.74,5.19-14.71q2-7.84,3.62-15.78c.22-1.07-1.4-1.62-1.62-.54Z"/><path d="M157,61.37l22,5.05c1.06.24,1.61-1.38.54-1.62l-22-5c-1.06-.25-1.62,1.37-.54,1.62Z"/><path d="M156.2,64.56c7.28,2.33,14.63,4.66,22.28,5.35,1.1.1,1.19-1.61.09-1.71-7.49-.68-14.69-3-21.82-5.27a.86.86,0,0,0-.55,1.63Z"/><ellipse cx="66.73" cy="33.56" rx="5.67" ry="4.35" transform="translate(-6 16.53) rotate(-13.52)"/><path d="M67.5,13.16q1.38,5.1,2.47,10.26c.35,1.68.7,3.37,1,5.07a18.44,18.44,0,0,1,.3,5.08.57.57,0,0,0,1.13.14c.35-3.43-.56-6.93-1.26-10.27Q70,18.19,68.62,13c-.19-.69-1.31-.54-1.12.16Z"/><ellipse cx="81.43" cy="30.03" rx="5.67" ry="4.35" transform="translate(-4.76 19.87) rotate(-13.52)"/><path d="M82.2,9.62q1.38,5.1,2.47,10.26c.35,1.69.7,3.38,1,5.07A18.44,18.44,0,0,1,86,30a.57.57,0,0,0,1.13.15c.35-3.44-.56-6.93-1.26-10.27q-1.11-5.27-2.51-10.44c-.18-.7-1.31-.55-1.12.15Z"/><path d="M68.21,13.48,82.79,10c.7-.16.55-1.29-.16-1.12L68.05,12.36c-.7.17-.55,1.29.16,1.12Z"/><path d="M68.71,15.6c5-.77,10.06-1.55,14.81-3.4.68-.27.23-1.31-.45-1-4.65,1.81-9.61,2.57-14.52,3.31a.57.57,0,0,0,.16,1.13Z"/><ellipse cx="134.65" cy="28.27" rx="3.1" ry="4.05" transform="translate(103.11 162.19) rotate(-88.61)"/><path d="M138.93,14.33q0,3.76-.18,7.53c-.07,1.23-.14,2.46-.25,3.68a13,13,0,0,1-.73,3.56c-.18.49.57.8.75.31.88-2.3.89-4.89,1-7.32s.2-5.11.19-7.66c0-.52-.8-.62-.8-.1Z"/><ellipse cx="145.44" cy="28.53" rx="3.1" ry="4.05" transform="translate(113.38 173.24) rotate(-88.61)"/><path d="M149.72,14.59c0,2.51-.05,5-.18,7.53-.06,1.23-.13,2.46-.25,3.69a13.57,13.57,0,0,1-.72,3.56.4.4,0,0,0,.75.3,24.35,24.35,0,0,0,1-7.32c.13-2.55.2-5.1.19-7.66,0-.52-.81-.62-.81-.1Z"/><path d="M139.36,14.68l10.71.26c.51,0,.62-.79.09-.8l-10.7-.26c-.52,0-.62.79-.1.8Z"/><path d="M139.31,16.23a49.25,49.25,0,0,0,10.85.38c.52-.06.4-.86-.12-.8a48.51,48.51,0,0,1-10.63-.38.4.4,0,0,0-.1.8Z"/><circle class="cls-4" cx="111.54" cy="78.97" r="1.64"/><circle class="cls-4" cx="106.08" cy="76.79" r="1.64"/><circle class="cls-4" cx="100.63" cy="73.52" r="1.64"/><circle class="cls-4" cx="96.27" cy="68.07" r="1.64"/><circle class="cls-4" cx="94.09" cy="62.62" r="1.64"/><circle class="cls-4" cx="100.63" cy="62.62" r="1.64"/><circle class="cls-4" cx="102.81" cy="66.98" r="1.64"/><circle class="cls-4" cx="108.27" cy="70.25" r="1.64"/><circle class="cls-4" cx="113.72" cy="73.52" r="1.64"/><circle class="cls-4" cx="107.17" cy="63.71" r="1.64"/><circle class="cls-4" cx="125.53" cy="64.98" r="1.64"/><circle class="cls-4" cx="120.08" cy="62.8" r="1.64"/><circle class="cls-4" cx="114.62" cy="59.53" r="1.64"/><circle class="cls-4" cx="110.26" cy="54.08" r="1.64"/><circle class="cls-4" cx="108.08" cy="48.63" r="1.64"/><circle class="cls-4" cx="114.62" cy="48.63" r="1.64"/><circle class="cls-4" cx="116.8" cy="52.99" r="1.64"/><circle class="cls-4" cx="122.26" cy="56.26" r="1.64"/><circle class="cls-4" cx="127.71" cy="59.53" r="1.64"/><circle class="cls-4" cx="121.17" cy="49.72" r="1.64"/><line x1="40.24" y1="104.8" x2="84.38" y2="70.52"/><path class="cls-5" d="M40.24,104.8c3.42-3.18,7-6.21,10.56-9.18S58,89.74,61.7,86.87s7.39-5.67,11.17-8.4,7.58-5.42,11.51-8c-3.42,3.19-7,6.21-10.56,9.19s-7.23,5.87-10.9,8.74-7.39,5.66-11.17,8.39S44.17,102.27,40.24,104.8Z"/><rect class="cls-6" width="45" height="178"/><path d="M35,139.18l-16.24,0,13.44,8v2l-13.23,8.05H35v4.34H10.47v-3.74l16.24-9.73-16.24-9.56v-3.74l24.5,0Z"/><path d="M32.47,125.63q-2.85,2.84-8.18,2.84H10.47v-4.55H24.12q7.22,0,7.21-6.23t-7.21-6.2H10.47V107H24.29q5.33,0,8.18,2.82t2.85,7.89C35.32,121.11,34.37,123.74,32.47,125.63Z"/><path d="M34.51,98.52a11.28,11.28,0,0,1-2.13,4.19l-3.54-1.58a12.15,12.15,0,0,0,1.95-3.69,13.46,13.46,0,0,0,.75-4.39A7.54,7.54,0,0,0,30.66,89a2.64,2.64,0,0,0-2.31-1.35,2.22,2.22,0,0,0-1.73.76,5.36,5.36,0,0,0-1.07,1.9q-.37,1.16-.87,3.15A36.23,36.23,0,0,1,23.35,98a7.46,7.46,0,0,1-2.08,3,5.63,5.63,0,0,1-3.84,1.24,6.58,6.58,0,0,1-3.69-1.1,7.42,7.42,0,0,1-2.64-3.33,13.5,13.5,0,0,1-1-5.44,17.77,17.77,0,0,1,.56-4.41,12.15,12.15,0,0,1,1.61-3.74l3.53,1.43A14.52,14.52,0,0,0,14.39,89a12.47,12.47,0,0,0-.49,3.4,7,7,0,0,0,.91,4,2.8,2.8,0,0,0,2.41,1.32,2.17,2.17,0,0,0,1.72-.76A5.49,5.49,0,0,0,20,95q.39-1.16.87-3.15a32,32,0,0,1,1.32-4.48,7.66,7.66,0,0,1,2.08-3A5.52,5.52,0,0,1,28,83.14a6.47,6.47,0,0,1,3.67,1.1,7.48,7.48,0,0,1,2.63,3.35,13.63,13.63,0,0,1,1,5.46A18.53,18.53,0,0,1,34.51,98.52Z"/><path d="M10.47,78.63V74.08H35v4.55Z"/><path d="M33.69,62.82a12,12,0,0,1-4.5,4.7,12.47,12.47,0,0,1-6.47,1.69,12.45,12.45,0,0,1-6.48-1.71,12.11,12.11,0,0,1-4.49-4.71,13.73,13.73,0,0,1-1.63-6.7,14,14,0,0,1,1.05-5.5,11.3,11.3,0,0,1,3-4.2L17,49.33a8.61,8.61,0,0,0-2.87,6.55,9.21,9.21,0,0,0,1.1,4.51,8,8,0,0,0,3.06,3.12,8.89,8.89,0,0,0,4.45,1.12,8.82,8.82,0,0,0,4.44-1.12,8,8,0,0,0,3.07-3.12,9.21,9.21,0,0,0,1.1-4.51,8.54,8.54,0,0,0-2.91-6.55l2.8-2.94a11.24,11.24,0,0,1,3.05,4.22,14.13,14.13,0,0,1,1,5.51A13.7,13.7,0,0,1,33.69,62.82Z"/><line class="cls-7" x1="42.2" y1="100.87" x2="88.37" y2="69.38"/></svg>