<svg id="Ebene_1" data-name="Ebene 1" xmlns="http://www.w3.org/2000/svg" viewBox="0 0 272 91"><defs><style>.cls-1{fill:none;stroke:gray;stroke-miterlimit:10;stroke-width:4px;}.cls-2{fill:gray;}.cls-3{fill:#ff0136;}</style></defs><rect class="cls-1" x="2" y="2" width="268" height="87" rx="12"/><path class="cls-2" d="M97,15.9V40.4H93.27L79.76,23.81V40.4H75.25V15.9H79L92.5,32.49V15.9Z"/><path class="cls-2" d="M107.79,39.13a12.07,12.07,0,0,1-4.72-4.52,12.43,12.43,0,0,1-1.71-6.46,12.39,12.39,0,0,1,1.71-6.45,12.07,12.07,0,0,1,4.72-4.52,14.83,14.83,0,0,1,13.52,0,12.17,12.17,0,0,1,4.72,4.5,12.4,12.4,0,0,1,1.72,6.47A12.41,12.41,0,0,1,126,34.63a12.17,12.17,0,0,1-4.72,4.5,14.91,14.91,0,0,1-13.52,0ZM119,35.66A7.93,7.93,0,0,0,122,32.58a9.3,9.3,0,0,0,0-8.85A7.93,7.93,0,0,0,119,20.65a9.32,9.32,0,0,0-8.82,0,7.93,7.93,0,0,0-3.08,3.08,9.3,9.3,0,0,0,0,8.85,7.93,7.93,0,0,0,3.08,3.08,9.39,9.39,0,0,0,8.82,0Z"/><path class="cls-2" d="M136.72,39.13a12.08,12.08,0,0,1-4.69-4.5,12.48,12.48,0,0,1-1.69-6.48,12.39,12.39,0,0,1,1.71-6.47,12.14,12.14,0,0,1,4.71-4.5,13.84,13.84,0,0,1,6.7-1.63A14,14,0,0,1,149,16.6a11.33,11.33,0,0,1,4.2,3l-2.95,2.76a8.57,8.57,0,0,0-6.54-2.87,9.11,9.11,0,0,0-4.51,1.11A7.92,7.92,0,0,0,136,23.71a8.77,8.77,0,0,0-1.12,4.44A8.78,8.78,0,0,0,136,32.6a7.92,7.92,0,0,0,3.12,3.06,9.1,9.1,0,0,0,4.51,1.1,8.5,8.5,0,0,0,6.54-2.9l2.95,2.8a11.21,11.21,0,0,1-4.22,3,14.13,14.13,0,0,1-5.51,1A13.87,13.87,0,0,1,136.72,39.13Z"/><path class="cls-2" d="M178.81,15.9V40.4h-4.55V29.9H161.59V40.4H157V15.9h4.55V26h12.67V15.9Z"/><path class="cls-2" d="M207.41,40.4l0-16.24L199.32,37.6h-2l-8-13.23v16H184.9V15.9h3.75l9.73,16.24,9.55-16.24h3.75l0,24.5Z"/><path class="cls-2" d="M233.72,34.73H221.47l-2.41,5.67h-4.69l11-24.5h4.49l11.05,24.5h-4.76Zm-1.5-3.57L227.6,20.45,223,31.16Z"/><path class="cls-2" d="M243.56,15.9h4.55V36.55h12.81V40.4H243.56Z"/><path class="cls-2" d="M77.36,74a11.46,11.46,0,0,1-4.18-2.14l1.58-3.53a12.37,12.37,0,0,0,3.69,1.94,13.46,13.46,0,0,0,4.39.75,7.64,7.64,0,0,0,4.08-.87,2.64,2.64,0,0,0,1.35-2.31,2.24,2.24,0,0,0-.76-1.73A5.21,5.21,0,0,0,85.61,65c-.77-.26-1.82-.55-3.15-.88a35.29,35.29,0,0,1-4.54-1.33,7.4,7.4,0,0,1-3-2.08,5.58,5.58,0,0,1-1.24-3.83,6.48,6.48,0,0,1,1.1-3.69,7.47,7.47,0,0,1,3.32-2.65,13.58,13.58,0,0,1,5.45-1,17.77,17.77,0,0,1,4.41.56,12.39,12.39,0,0,1,3.74,1.61l-1.44,3.54a14.3,14.3,0,0,0-3.35-1.44,12.87,12.87,0,0,0-3.4-.49,7.16,7.16,0,0,0-4,.91,2.83,2.83,0,0,0-1.31,2.42A2.17,2.17,0,0,0,79,58.37a5.23,5.23,0,0,0,1.91,1.05c.77.26,1.82.55,3.15.88a34.09,34.09,0,0,1,4.48,1.31,7.73,7.73,0,0,1,3,2.08,5.51,5.51,0,0,1,1.25,3.78,6.43,6.43,0,0,1-1.11,3.68,7.43,7.43,0,0,1-3.34,2.62,13.46,13.46,0,0,1-5.46,1A18.59,18.59,0,0,1,77.36,74Z"/><path class="cls-2" d="M112.89,51a8.13,8.13,0,0,1,3.62,3,9.21,9.21,0,0,1,0,9.3,8.08,8.08,0,0,1-3.62,3,13.6,13.6,0,0,1-5.55,1h-5.53V74.4H97.26V49.9h10.08A13.6,13.6,0,0,1,112.89,51Zm-1.24,11.27a5,5,0,0,0,0-7.21,7,7,0,0,0-4.52-1.26h-5.32v9.73h5.32A7,7,0,0,0,111.65,62.22Z"/><path class="cls-2" d="M140.7,70.59V74.4H122.32V49.9h17.89v3.82H126.87v6.37H138.7v3.74H126.87v6.76Z"/><path class="cls-2" d="M167.54,49.9V74.4H163.8L150.29,57.81V74.4h-4.52V49.9h3.75L163,66.49V49.9Z"/><path class="cls-2" d="M174.12,49.9h10.71a15.34,15.34,0,0,1,7,1.53,11.24,11.24,0,0,1,4.72,4.3,13.13,13.13,0,0,1,0,12.85,11.24,11.24,0,0,1-4.72,4.3,15.33,15.33,0,0,1-7,1.52H174.12Zm10.5,20.65a10.34,10.34,0,0,0,4.74-1,7.35,7.35,0,0,0,3.15-2.94,9.38,9.38,0,0,0,0-8.85,7.23,7.23,0,0,0-3.15-2.94,10.34,10.34,0,0,0-4.74-1h-6v16.8Z"/><path class="cls-2" d="M221.41,70.59V74.4H203V49.9h17.89v3.82H207.58v6.37h11.83v3.74H207.58v6.76Z"/><path class="cls-2" d="M248.25,49.9V74.4h-3.74L231,57.81V74.4h-4.52V49.9h3.75l13.51,16.59V49.9Z"/><path class="cls-2" d="M54.2,26.43a19,19,0,0,0-8.45-.95A18.17,18.17,0,0,1,58,28.54v-.28A18.78,18.78,0,0,0,54.2,26.43Z"/><path class="cls-2" d="M28.25,31.71a23.5,23.5,0,0,0,7.46,32.48l-2.39,0a2.56,2.56,0,0,0-2.54,2.53,2.59,2.59,0,0,0,2.54,2.54l6.85-.08A2.57,2.57,0,0,0,42.62,66q-1.47-4.7-2.92-9.38a2.54,2.54,0,0,0-4.94,1.13A19,19,0,0,1,33.5,32.12L29.22,32A2.22,2.22,0,0,1,28.25,31.71Z"/><path class="cls-2" d="M47.73,20.87a22.74,22.74,0,0,0-13,4.1,23.72,23.72,0,0,1,13.41-4.09Z"/><path class="cls-3" d="M51.72,62.27l-.2,0-.13.16a19.75,19.75,0,0,1-3.81,3.61l-1.38,1,1.7,0A23.5,23.5,0,0,0,58,65V59.86A18.76,18.76,0,0,1,51.72,62.27Z"/><path class="cls-3" d="M54.2,26.43A18.78,18.78,0,0,1,58,28.26V23.13a23.2,23.2,0,0,0-9.91-2.25A23.72,23.72,0,0,0,34.68,25c-.5.34-1,.7-1.47,1.08.25-.75.51-1.51.76-2.27a2.54,2.54,0,1,0-4.79-1.67L27,28.61a2.62,2.62,0,0,0,1.25,3.1,2.22,2.22,0,0,0,1,.26l4.28.15,5.54.19A2.58,2.58,0,0,0,41.74,30a2.61,2.61,0,0,0-2.14-2.67,18.93,18.93,0,0,1,14.6-.85Z"/></svg>