<svg id="Ebene_1" data-name="Ebene 1" xmlns="http://www.w3.org/2000/svg" viewBox="0 0 43.72 46.58"><defs><style>.cls-1{fill:gray;}.cls-2{fill:#ff0136;stroke:#ff0136;stroke-miterlimit:10;stroke-width:0.75px;}</style></defs><path class="cls-1" d="M41.72,16.43A21.45,21.45,0,0,0,21.42,1.67,21.58,21.58,0,0,0,0,23.36,21.9,21.9,0,0,0,10.27,41.85l-2.22,0a2.35,2.35,0,0,0,0,4.7l6.36-.07a2.38,2.38,0,0,0,2.27-3q-1.37-4.35-2.71-8.7A2.35,2.35,0,0,0,9.4,35.88a17.55,17.55,0,0,1,12-30,17.29,17.29,0,0,1,14.9,8.71l.09.16.18.07A18.76,18.76,0,0,1,40.93,17l1.29.9Z"/><path class="cls-2" d="M20.17,44.54A21.39,21.39,0,0,0,30,3.42,21.9,21.9,0,0,0,9,5.68l.84-2.06A2.38,2.38,0,0,0,8.6.54,2.39,2.39,0,0,0,5.52,1.79Q4.31,4.73,3.11,7.67A2.37,2.37,0,0,0,5,10.92l9.07.89a2.35,2.35,0,0,0,.82-4.62A17.55,17.55,0,0,1,37.82,30,17.29,17.29,0,0,1,24,40.3l-.19,0-.13.14a18.68,18.68,0,0,1-3.75,3.12l-1.33.84Z"/></svg>