<svg id="Ebene_1" data-name="Ebene 1" xmlns="http://www.w3.org/2000/svg" viewBox="0 0 268 87"><defs><style>.cls-1{fill:#666;}.cls-2{fill:#fff;}.cls-3{fill:none;}.cls-4{fill:#ccc;}</style></defs><rect class="cls-1" width="268" height="87" rx="12"/><path class="cls-2" d="M109,14.9V39.4h-3.75L91.76,22.81V39.4H87.25V14.9H91L104.5,31.49V14.9Z"/><path class="cls-2" d="M118.22,36.9q-2.84-2.85-2.83-8.17V14.9h4.55V28.55q0,7.22,6.23,7.21t6.19-7.21V14.9h4.48V28.73q0,5.32-2.82,8.17t-7.89,2.85Q121.06,39.75,118.22,36.9Z"/><path class="cls-2" d="M147.73,18.75h-8.12V14.9H160.4v3.85h-8.12V39.4h-4.55Z"/><path class="cls-2" d="M182.87,35.55V39.4H162v-3l14.42-17.61H162.22V14.9h20.19v3L168,35.55Z"/><path class="cls-2" d="M205.41,35.59V39.4H187V14.9h17.89v3.82H191.58v6.37h11.83v3.74H191.58v6.76Z"/><path class="cls-2" d="M226.51,39.4l-5-7.17c-.21,0-.52,0-.94,0H215V39.4h-4.55V14.9h10.08a13.6,13.6,0,0,1,5.55,1,8.13,8.13,0,0,1,3.62,3A8.44,8.44,0,0,1,231,23.62a8.3,8.3,0,0,1-1.35,4.76,8,8,0,0,1-3.87,3l5.64,8ZM224.86,20a7,7,0,0,0-4.51-1.26H215v9.77h5.32a6.91,6.91,0,0,0,4.51-1.28,4.43,4.43,0,0,0,1.54-3.62A4.4,4.4,0,0,0,224.86,20Z"/><path class="cls-2" d="M109.75,73.4l0-16.24-8,13.44h-2l-8-13.23v16H87.25V48.9H91l9.73,16.24,9.56-16.24H114l0,24.5Z"/><path class="cls-2" d="M139,69.59V73.4H120.67V48.9h17.88v3.82H125.22v6.37h11.83v3.74H125.22v6.76Z"/><path class="cls-2" d="M144.12,48.9h4.55V69.55h12.81V73.4H144.12Z"/><path class="cls-2" d="M165.08,48.9h10.71a15.31,15.31,0,0,1,7,1.53,11.24,11.24,0,0,1,4.72,4.3,13.13,13.13,0,0,1,0,12.85,11.24,11.24,0,0,1-4.72,4.3,15.3,15.3,0,0,1-7,1.52H165.08Zm10.5,20.65a10.41,10.41,0,0,0,4.75-1,7.46,7.46,0,0,0,3.15-2.94,9.45,9.45,0,0,0,0-8.85,7.34,7.34,0,0,0-3.15-2.94,10.41,10.41,0,0,0-4.75-1h-6v16.8Z"/><path class="cls-2" d="M212.37,69.59V73.4H194V48.9h17.89v3.82H198.54v6.37h11.83v3.74H198.54v6.76Z"/><path class="cls-2" d="M239.21,48.9V73.4h-3.74L222,56.81V73.4h-4.52V48.9h3.75L234.7,65.49V48.9Z"/><path class="cls-3" d="M43.82,46.86c-5.89.13-10.51,4.15-14.52,8a2.82,2.82,0,0,0,0,4,2.86,2.86,0,0,0,3.95,0c.88-.85,1.75-1.68,2.67-2.48l.67-.58s.41-.32.52-.42c.43-.32.87-.64,1.33-.94a16.86,16.86,0,0,1,1.48-.87c.21-.12.43-.22.65-.33l.15-.07L41,53a11,11,0,0,1,1.61-.46l.38-.07q.41,0,.81-.06l.87,0c.11,0,.58.09.59.08a14.24,14.24,0,0,1,1.43.36c.27.09.53.18.78.29.09,0,.3.13.38.17.53.25,1,.54,1.54.84s1,.64,1.49,1l.58.43L52,56c1,.81,1.94,1.67,2.89,2.53a2.79,2.79,0,1,0,4-3.95C54.66,50.8,49.79,46.73,43.82,46.86Z"/><path class="cls-4" d="M44,16.59A26.43,26.43,0,0,0,22,28.41V57.59a26.41,26.41,0,1,0,22-41Zm14.81,42a2.83,2.83,0,0,1-4,0c-1-.86-1.9-1.72-2.89-2.53l-.49-.39-.58-.43c-.49-.35-1-.68-1.49-1s-1-.59-1.54-.84c-.08,0-.29-.14-.38-.17-.25-.11-.51-.2-.78-.29a14.24,14.24,0,0,0-1.43-.36s-.48-.07-.59-.08l-.87,0q-.41,0-.81.06l-.38.07A11,11,0,0,0,41,53l-.3.11-.15.07c-.22.11-.44.21-.65.33a16.86,16.86,0,0,0-1.48.87c-.46.3-.9.62-1.33.94-.11.1-.47.38-.52.42l-.67.58c-.92.8-1.79,1.63-2.67,2.48a2.86,2.86,0,0,1-3.95,0,2.82,2.82,0,0,1,0-4c4-3.87,8.63-7.89,14.52-8s10.84,3.94,15,7.74A2.82,2.82,0,0,1,58.81,58.55Z"/></svg>