<svg id="Ebene_1" data-name="Ebene 1" xmlns="http://www.w3.org/2000/svg" viewBox="0 0 215.88 190.99"><defs><style>.cls-1{fill:#e6e6e6;}.cls-2{fill:#ff0136;}.cls-3{fill:gray;}.cls-4{fill:#c1272d;}.cls-5{fill:none;}</style></defs><path class="cls-1" d="M70.73,53.11a143.92,143.92,0,0,1-3.24,68.81c15-10.67,34.11-13.41,52.39-15.85L149,102.2c3.75-.5,7.57-1,11-2.62,4.48-2.09,7.91-5.85,11.54-9.2a82.75,82.75,0,0,1,36.66-19.62c1.67-.4,3.54-.89,4.4-2.37a6.13,6.13,0,0,0,.36-3.82,332.6,332.6,0,0,0-11.81-56c-.59-2-1.34-4.1-3.12-5.12-2.67-1.54-6,.24-8.57,1.89C152.06,29,105.94,33.45,61.73,35.18,67.44,41.6,70.73,53.11,70.73,53.11Z"/><path d="M67.93,53.55q1.3,6.62,2,13.31.35,3.42.52,6.85c.06,1.05.1,2.09.14,3.14,0,0,0,1,0,.39,0,.28,0,.57,0,.86,0,.57,0,1.14,0,1.71a144.74,144.74,0,0,1-2.36,26.77q-.66,3.66-1.53,7.29c-.06.27-.13.55-.2.83.11-.44-.14.58-.17.67-.14.56-.28,1.11-.43,1.67-.35,1.29-.71,2.57-1.09,3.85a2.86,2.86,0,0,0,4.44,3.23c.6-.43,1.21-.84,1.82-1.25l.81-.52c.4-.25-.32.19.08,0l.58-.36c1.26-.75,2.54-1.45,3.84-2.12a75,75,0,0,1,8-3.48c1.37-.51,2.76-1,4.16-1.42l.53-.16.06,0,1.06-.31c.71-.21,1.42-.4,2.13-.59,2.87-.76,5.76-1.41,8.67-2,5.84-1.15,11.73-2,17.63-2.77q9.79-1.32,19.6-2.61l9.91-1.32a62.81,62.81,0,0,0,9.9-1.86c5.94-1.81,10.21-6,14.62-10.19a83.87,83.87,0,0,1,6.7-5.66q1.76-1.33,3.57-2.56c.57-.39,1.15-.77,1.72-1.14l.42-.27,1.06-.64a82.82,82.82,0,0,1,15.92-7.4c.65-.22,1.3-.44,2-.64l.59-.18,1.19-.34c1.33-.38,2.68-.67,4-1a9.14,9.14,0,0,0,4.08-2.06,6.59,6.59,0,0,0,2-4.7,36.18,36.18,0,0,0-.48-5c-.21-1.65-.44-3.3-.68-4.94q-.72-4.94-1.58-9.84a337.62,337.62,0,0,0-9.39-39.2c-.86-2.83-2.14-5.48-4.93-6.85s-6.08-.44-8.66,1c-.73.38-1.42.82-2.12,1.25l-.88.56-.1.06-.47.29Q184.67,5,182.72,6.07q-3.89,2.22-7.89,4.21a165.45,165.45,0,0,1-16.4,7q-4.2,1.55-8.46,2.86l-1.07.33-.53.16c.11,0,.48-.14-.08,0l-2.15.62c-1.44.41-2.88.81-4.32,1.19a270.84,270.84,0,0,1-35.52,6.6C94.26,30.54,82.15,31.41,70,32c-2.91.14-5.83.26-8.75.38-2.17.08-3.06,3.11-1.75,4.6a26.37,26.37,0,0,1,2,2.57c.17.24.33.49.49.74a3.87,3.87,0,0,1,.24.37c-.19-.31-.2-.32,0,0,.27.45.53.9.79,1.35a56.56,56.56,0,0,1,2.77,5.77q.94,2.27,1.74,4.6l.45,1.4c.17.54,0,0-.09-.32,0,.05,0,.1,0,.14a2.91,2.91,0,0,0,3.25,2.36c1.35-.28,2.79-1.72,2.35-3.25A66.88,66.88,0,0,0,71,45.38a43.19,43.19,0,0,0-7-12L62.17,38c11.92-.47,23.83-1.12,35.69-2.29a306.66,306.66,0,0,0,35.29-5.35,201.18,201.18,0,0,0,34.12-10.42,154.53,154.53,0,0,0,15.85-7.58c2.67-1.48,5.29-3.05,7.88-4.67.14-.1.29-.19.44-.28-.48.29-.11.06,0,0l.86-.5A17.14,17.14,0,0,1,194.07,6c.2-.08,1-.29.41-.16.27,0,.53-.13.8-.17l.45,0c.4-.07-.48-.06-.09,0,.11,0,.23,0,.34,0,.26,0,.63.24.15,0,.13.06.76.37.52.2s.62.61.31.25,0,0,0,.08.18.23.28.34c.31.39,0,0,0-.06l.27.51a13.13,13.13,0,0,1,.66,1.6c.1.3.19.59.28.89s.11.34.16.51c-.09-.29,0,.08.05.17q1.42,4.77,2.71,9.59,2.52,9.48,4.48,19.11t3.34,19.18c.23,1.64.46,3.29.67,4.94.1.75.19,1.5.28,2.25q.06.49.09,1s0-.47,0-.15,0,.41-.05.61c0,.51,0,.12,0,0a4.13,4.13,0,0,1-.17.45c0-.09.19-.52,0-.06,0-.09.45-.39.05-.06-.08.07-.18.13-.25.2-.28.27.42-.19.07,0s-.6.29-.92.41l-.44.15s.5-.13.18-.06l-.88.23-2.11.53a86.55,86.55,0,0,0-31.54,15.87c-2.25,1.8-4.37,3.73-6.45,5.71a53.83,53.83,0,0,1-6.44,5.53c-.26.18-.52.36-.78.52.4-.25-.37.21-.53.3a20.66,20.66,0,0,1-2,1q-.55.23-1.11.42l-.57.19c-.05,0-.53.15-.12,0-.77.21-1.54.39-2.32.55-3.13.64-6.33,1-9.5,1.39-12.49,1.67-25,3.11-37.47,5.12-11.51,1.86-23.16,4.52-33.55,10a67.24,67.24,0,0,0-7.65,4.69L70.14,123a148.13,148.13,0,0,0,5.57-55,143.35,143.35,0,0,0-2.18-15.3,2.84,2.84,0,0,0-5.6.89Z"/><path class="cls-2" d="M80.23,49.26c-1,17.77,6.92,35.61,3.31,53a144.48,144.48,0,0,0,18.08-3.46A171.47,171.47,0,0,0,95,46.93S84.79,48.39,80.23,49.26Z"/><path class="cls-2" d="M112.19,78c10.83-4.71,22.92-4.16,34.36-6.12a48.43,48.43,0,0,0,16.29-5.56c2.62-1.52,5.12-3.23,7.67-4.87a77.79,77.79,0,0,1,8-4.46,112.14,112.14,0,0,1,19.59-7c1.16-.32.87-2.19-.3-1.87a121.77,121.77,0,0,0-17.54,6,79.6,79.6,0,0,0-8.12,4.16c-2.61,1.55-5.11,3.27-7.67,4.9a46.5,46.5,0,0,1-8,4.17A48.22,48.22,0,0,1,148,69.73c-5.75,1.13-11.6,1.53-17.42,2.17-6.55.72-13.12,1.77-19.2,4.41a1,1,0,0,0,.78,1.73Z"/><path class="cls-2" d="M110.92,68.38l34.61-7.68c5.6-1.25,11.11-2.54,16.25-5.16,5-2.54,9.69-5.55,14.85-7.78A79,79,0,0,1,194.9,42.4a1,1,0,0,0-.3-1.87A81.45,81.45,0,0,0,178.46,45a124.12,124.12,0,0,0-15,7.53,52,52,0,0,1-7.68,3.58,70.63,70.63,0,0,1-8.3,2.24c-5.76,1.3-11.52,2.56-17.27,3.84l-19.6,4.35c-1.19.26-.9,2.13.29,1.87Z"/><path class="cls-3" d="M108.26,47.5q.39,3,1,5.88a2.29,2.29,0,0,0,1,1.74,2.35,2.35,0,0,0,1.34.05q23.38-3.83,46.5-9.11l-1.81-10-49,9.92Z"/><path class="cls-2" d="M115.43,91.15c4.24-4.38,10.25-6.1,16.15-6.79,7-.81,14-.21,20.93-1.6,11.49-2.31,20.19-10.53,29.87-16.5,5.16-3.18,10.86-5.81,17-6a1,1,0,0,0,1.05-.83,1,1,0,0,0-.84-1c-11.65.28-20.87,8.06-30.06,14.28-4.67,3.16-9.62,6.18-15.11,7.67-7.06,1.91-14.43,1.33-21.65,2-6.68.59-13.76,2.38-18.57,7.35-.83.87.36,2.34,1.2,1.46Z"/><path class="cls-4" d="M72.9,148.37c14.89-3.82,30.31-.65,45.42-.81a63.15,63.15,0,0,0,22.08-3.82c3.68-1.41,7.24-3.1,10.85-4.68a98.2,98.2,0,0,1,11.17-4.1,145,145,0,0,1,26.62-5c1.56-.16,1.58-2.63,0-2.46a158.22,158.22,0,0,0-23.77,4.13,102.1,102.1,0,0,0-11.3,3.69c-3.67,1.45-7.24,3.15-10.86,4.71A60.11,60.11,0,0,1,132,143.72,63,63,0,0,1,120.67,145c-7.62.27-15.23-.42-22.84-.78-8.56-.42-17.23-.41-25.58,1.74a1.23,1.23,0,0,0,.65,2.37Z"/><path class="cls-4" d="M73.25,135.7l46.06-2.78c7.44-.45,14.8-1,21.94-3.3,6.93-2.24,13.59-5.15,20.68-7a102.89,102.89,0,0,1,24.58-3.16,1.23,1.23,0,0,0,0-2.46,106.62,106.62,0,0,0-21.66,2.4c-7.16,1.55-13.92,4.12-20.8,6.61a67.15,67.15,0,0,1-10.6,3,94.6,94.6,0,0,1-11.13,1.18q-11.49.72-23,1.39l-26.09,1.57c-1.57.1-1.59,2.56,0,2.47Z"/><path class="cls-3" d="M74.11,108.31q-.12,3.89.06,7.77a3,3,0,0,0,.91,2.44,3,3,0,0,0,1.71.34q30.84-.14,61.63-2.18l-.28-13.19-65,2.72Z"/><path class="cls-4" d="M74.38,165.9c6.34-4.76,14.43-5.75,22.14-5.43,9.11.39,18.09,2.61,27.24,2.24,15.23-.61,28.1-9.4,41.77-15.09,7.29-3,15.16-5.25,23.11-4.17a1.28,1.28,0,0,0,1.52-.86,1.24,1.24,0,0,0-.86-1.51c-15-2-28.48,6.07-41.57,12.19-6.65,3.11-13.63,6-21,6.76-9.47,1-18.83-1.25-28.23-1.91-8.71-.6-18.17.25-25.37,5.65-1.26.94,0,3.08,1.24,2.13Z"/><path class="cls-1" d="M201.45,77.28c-.36-2.64-.89-5.54-3-7.22-3.12-2.53-7.72-.91-11.41.68C139.74,91.14,86.54,90.27,34.88,85V187.29c13.81-1.94,28.17-1.66,42.15-1.3l38.21,1c4.92.13,9.93.24,14.66-1.11,6.18-1.78,11.36-5.9,16.71-9.47a107.84,107.84,0,0,1,51.15-17.7c2.23-.18,4.73-.41,6.14-2.15,1.07-1.31,1.19-3.14,1.25-4.83A434.77,434.77,0,0,0,201.45,77.28Z"/><path class="cls-5" d="M200.94,154.3H201Z"/><path class="cls-5" d="M201,154.28l.12-.07v0l-.12.08h0Z"/><path class="cls-5" d="M201.11,154.19v0C201.3,154.09,201.23,154.13,201.11,154.19Z"/><path class="cls-5" d="M201.11,154.21Z"/><path class="cls-5" d="M201.13,154.13l0,.06h0Z"/><path class="cls-5" d="M131.2,82Z"/><path class="cls-5" d="M37.72,104.84c6-.19,19.44,0,19.44,0a223.71,223.71,0,0,1-2.11,68.08,186.05,186.05,0,0,1-20.17.82v9.78A193.58,193.58,0,0,1,60.55,182c16.39,0,32.81.68,49.2,1.1,4.16.11,8.34.34,12.5.16,1-.05,2-.12,3-.24l.24,0,.76-.12c.51-.1,1-.2,1.52-.32a24.64,24.64,0,0,0,2.78-.83l.89-.34,1-.44a69.9,69.9,0,0,0,9.41-5.79c3.08-2.13,6.2-4.17,9.45-6a112.51,112.51,0,0,1,43.8-13.93c.94-.1,1.88-.18,2.82-.26l1.11-.1.42-.07c.4-.08.79-.21,1.18-.32l.3-.17c.22-.34.16-.2.07,0h0l.18-.3,0-.07c.06-.25.11-.51.17-.75s.07-.75.08-1.12c.05-1,.07-2,.1-3q.11-3.24.15-6.48.19-12.68-.35-25.34t-1.85-25.48q-.68-6.45-1.52-12.88c0-.07,0-.23,0-.32s-.06-.4-.08-.6c-.06-.4-.12-.8-.19-1.19a16.51,16.51,0,0,0-.52-2.21c-.06-.18-.12-.36-.19-.55l0-.07c-.1-.16-.19-.33-.28-.49a3,3,0,0,1-.41-.46l-.41-.27a1.57,1.57,0,0,0-.39-.18c-.13,0-.27,0-.39-.09l-.51,0c-.36,0-.71,0-1.06,0,.84,0-.29.06-.56.13a19.42,19.42,0,0,0-2.47.73l-1.2.46-.22.09-.4.17c-3.65,1.56-7.34,3-11.08,4.39A201.18,201.18,0,0,1,155.61,85a263.27,263.27,0,0,1-46,6.41A402.14,402.14,0,0,1,63.16,91c-9.44-.57-18.87-1.39-28.28-2.35v68.55C36.8,140,34,121.89,37.72,104.84Z"/><path class="cls-5" d="M195.84,72.75c.06,0,.06,0,0,0Z"/><path d="M209.07,128.8a440,440,0,0,0-4-52.3c-.53-3.82-1.63-7.49-4.93-9.82s-7.74-1.81-11.34-.56c-1,.35-2,.77-3,1.18l-1.24.54-.28.11-.53.22q-2.7,1.13-5.44,2.16-5.45,2.06-11,3.78a212.22,212.22,0,0,1-22.51,5.64q-5.7,1.11-11.46,1.94l-1.44.2-.69.1h-.13l-2.89.37q-2.89.34-5.8.63a351.27,351.27,0,0,1-47,1.22c-13.52-.49-27-1.57-40.48-3v7.39c9.41,1,18.84,1.78,28.28,2.35a402.14,402.14,0,0,0,46.45.36,263.27,263.27,0,0,0,46-6.41,201.18,201.18,0,0,0,21.92-6.5c3.74-1.35,7.43-2.83,11.08-4.39l.4-.17.22-.09,1.2-.46a19.42,19.42,0,0,1,2.47-.73c.27-.07,1.4-.17.56-.13.35,0,.7-.06,1.06,0l.51,0c.12,0,.26.05.39.09a1.57,1.57,0,0,1,.39.18l.41.27a3,3,0,0,0,.41.46c.09.16.18.33.28.49l0,.07c.07.19.13.37.19.55a16.51,16.51,0,0,1,.52,2.21c.07.39.13.79.19,1.19,0,.2.05.4.08.6s0,.25,0,.32q.85,6.44,1.52,12.88,1.29,12.72,1.85,25.48t.35,25.34q0,3.24-.15,6.48c0,1,0,2-.1,3,0,.37,0,.74-.08,1.12s-.11.5-.17.75l0,.07-.18.3.12-.08,0-.06,0,.06c.12-.06.19-.1,0,0h0l-.12.07h-.05l.05,0c.09-.15.15-.29-.07,0l-.3.17c-.39.11-.78.24-1.18.32l-.42.07-1.11.1c-.94.08-1.88.16-2.82.26a112.51,112.51,0,0,0-43.8,13.93c-3.25,1.85-6.37,3.89-9.45,6a69.9,69.9,0,0,1-9.41,5.79l-1,.44-.89.34a24.64,24.64,0,0,1-2.78.83c-.51.12-1,.22-1.52.32l-.76.12-.24,0c-1,.12-2,.19-3,.24-4.16.18-8.34-.05-12.5-.16-16.39-.42-32.81-1.13-49.2-1.1a193.58,193.58,0,0,0-25.67,1.5V191l.13,0,.71-.11.24,0,1.27-.16c1-.12,1.91-.23,2.86-.32,3.84-.39,7.7-.63,11.55-.77,7.74-.28,15.49-.14,23.23,0l25.74.66,13,.33a79.55,79.55,0,0,0,13.1-.36c8-1.11,14.37-5.67,20.89-10.09a106.55,106.55,0,0,1,9.77-5.91c1.68-.9,3.39-1.76,5.12-2.56.81-.38,1.62-.75,2.44-1.11l.74-.32,1.35-.55a108.06,108.06,0,0,1,22-6.25c.88-.15,1.76-.29,2.65-.42l1-.14,1.4-.17c1.78-.2,3.58-.3,5.36-.52a11.81,11.81,0,0,0,5.66-1.8,8.48,8.48,0,0,0,3.49-5.64,47.47,47.47,0,0,0,.41-6.52q.09-3.24.14-6.48Q209.18,135.28,209.07,128.8ZM131.2,82Zm64.64-9.23c.06,0,.06,0,0,0Z"/><polygon points="200.99 154.27 200.99 154.27 200.99 154.27 200.99 154.27"/><path d="M201.11,154.21v0h0v0Z"/><path class="cls-2" d="M55.05,172.94a223.71,223.71,0,0,0,2.11-68.08s-13.41-.21-19.44,0c-3.68,17-.92,35.19-2.84,52.37v16.55A186.05,186.05,0,0,0,55.05,172.94Z"/><path d="M4.2,182.69v8.12H.35V170H4.2v8.12H24.85v4.55Z"/><path d="M.35,166.59V162h24.5v4.55Z"/><path d="M23.57,150.79a12,12,0,0,1-4.49,4.69,12.53,12.53,0,0,1-6.48,1.69,12.45,12.45,0,0,1-6.48-1.71,12,12,0,0,1-4.49-4.71A13.73,13.73,0,0,1,0,144.05a13.92,13.92,0,0,1,1.05-5.49,11.17,11.17,0,0,1,3.05-4.2l2.76,2.94A8.57,8.57,0,0,0,4,143.84a9.25,9.25,0,0,0,1.1,4.52,8,8,0,0,0,3.07,3.11,8.72,8.72,0,0,0,4.44,1.12A8.72,8.72,0,0,0,17,151.47a8,8,0,0,0,3.07-3.11,9.25,9.25,0,0,0,1.1-4.52,8.53,8.53,0,0,0-2.9-6.54l2.8-2.94a11.18,11.18,0,0,1,3,4.21,14.14,14.14,0,0,1,1.05,5.52A13.76,13.76,0,0,1,23.57,150.79Z"/><path d="M14.6,121.55l4,3.88h6.27V130H.35v-4.55H12.92L.35,113.32v-5.11l11,10.29,13.54-10.92v5.32Z"/><path d="M21,86.09h3.81v18.38H.35V86.58H4.17V99.92h6.37V88.09h3.74V99.92H21Z"/><path d="M4.2,76.05v8.12H.35V63.38H4.2V71.5H24.85v4.55Z"/><path d="M24.4,58.07a11.43,11.43,0,0,1-2.14,4.19l-3.53-1.58A12.37,12.37,0,0,0,20.67,57a13.46,13.46,0,0,0,.75-4.39,7.54,7.54,0,0,0-.88-4.08,2.64,2.64,0,0,0-2.3-1.35,2.26,2.26,0,0,0-1.74.75,5.25,5.25,0,0,0-1.06,1.91c-.26.77-.55,1.82-.88,3.15a36.23,36.23,0,0,1-1.33,4.53,7.46,7.46,0,0,1-2.08,3,5.6,5.6,0,0,1-3.83,1.24,6.59,6.59,0,0,1-3.7-1.1A7.42,7.42,0,0,1,1,57.3a13.5,13.5,0,0,1-1-5.44,17.77,17.77,0,0,1,.56-4.41,12.15,12.15,0,0,1,1.61-3.74l3.54,1.43A14.37,14.37,0,0,0,4.27,48.5a12.47,12.47,0,0,0-.49,3.4,7,7,0,0,0,.91,4,2.81,2.81,0,0,0,2.42,1.32,2.15,2.15,0,0,0,1.71-.76,5.49,5.49,0,0,0,1-1.9c.26-.77.55-1.82.88-3.15a32.19,32.19,0,0,1,1.31-4.48,7.66,7.66,0,0,1,2.08-3,5.52,5.52,0,0,1,3.78-1.24,6.52,6.52,0,0,1,3.68,1.1,7.53,7.53,0,0,1,2.62,3.35,13.63,13.63,0,0,1,1,5.46A18.85,18.85,0,0,1,24.4,58.07Z"/><path class="cls-2" d="M69.54,149.87c14.87-3.81,30.27-.64,45.37-.81a63.49,63.49,0,0,0,22.18-3.84c7.42-2.85,14.42-6.51,22.06-8.8a146,146,0,0,1,26.46-5c1.9-.2,1.92-3.2,0-3a159.28,159.28,0,0,0-23.66,4.1,101.64,101.64,0,0,0-11.32,3.67c-3.69,1.44-7.26,3.15-10.89,4.72a61.12,61.12,0,0,1-22.4,5.09c-7.68.28-15.36-.42-23-.79-8.56-.41-17.21-.38-25.56,1.76-1.87.48-1.08,3.38.79,2.9Z"/><path class="cls-2" d="M69.82,137.2l46.29-2.8c7.35-.44,14.61-1,21.67-3.25s13.68-5.19,20.81-7A102.69,102.69,0,0,1,183.08,121a1.5,1.5,0,0,0,0-3A106.81,106.81,0,0,0,161,120.49c-7.08,1.56-13.75,4.11-20.55,6.57A66.79,66.79,0,0,1,130.19,130,90.72,90.72,0,0,1,119,131.23c-7.78.49-15.56.94-23.34,1.41L69.82,134.2c-1.92.11-1.93,3.11,0,3Z"/><path class="cls-3" d="M70.68,109.54q-.12,3.88.06,7.77a3,3,0,0,0,.91,2.44,3,3,0,0,0,1.71.34Q104.2,120,135,117.91l-.29-13.19-65,2.72Z"/><path class="cls-2" d="M71.09,167.36c14.35-10.74,33.44-2.41,49.52-3.16,15.09-.71,27.87-9.35,41.4-15,7.28-3.06,15.17-5.31,23.13-4.24a1.56,1.56,0,0,0,1.85-1,1.52,1.52,0,0,0-1.05-1.85c-15-2-28.38,5.93-41.44,12.07-6.65,3.11-13.63,6-21,6.85-9.56,1.08-19-1.23-28.52-1.89-8.74-.6-18.2.29-25.42,5.69-1.53,1.15,0,3.75,1.52,2.59Z"/></svg>