<svg id="Ebene_1" data-name="Ebene 1" xmlns="http://www.w3.org/2000/svg" viewBox="0 0 208.2 208.2"><defs><style>.cls-1,.cls-4{fill:#ff0136;}.cls-1,.cls-3,.cls-4{fill-rule:evenodd;}.cls-2{fill:none;stroke:#000;}.cls-2,.cls-4{stroke-linecap:round;stroke-linejoin:round;stroke-width:4.41px;}.cls-3{fill:#fff;}.cls-4{stroke:#000100;}</style></defs><path class="cls-1" d="M65.39,91.91c33.47-9.1,67.14-.39,86.93,13.61l-20.86,72.86C93.6,181.48,64,175.11,47.2,154L65.39,91.91Z"/><path class="cls-2" d="M78,35.62,47.05,150M107,91c24.11,3.08,43,11.28,42.06,18.3s-21.2,10.22-45.31,7.14-42.95-11.28-42.06-18.3S82.85,87.94,107,91ZM92.35,151.77c23.46,6.34,41,17,39.16,23.87s-22.39,7.23-45.86.88-41-17-39.16-23.87,22.4-7.23,45.86-.88Zm70.26-90.7L131.83,174.88"/><polygon class="cls-3" points="67.91 11.04 10.66 11.04 10.66 195.68 67.91 195.68 67.91 11.04 67.91 11.04"/><polygon points="35.05 173.1 38.61 173.1 38.61 180.11 58.33 180.11 58.33 184.44 38.61 184.44 38.61 191.47 35.05 191.47 35.05 173.1 35.05 173.1"/><path d="M49.23,165.88h9.1v4.33H35.05v-7.1a14.7,14.7,0,0,1,.49-4.08,7.83,7.83,0,0,1,1.38-2.79A5.35,5.35,0,0,1,39,154.65a7.37,7.37,0,0,1,4.94-.16,6.62,6.62,0,0,1,1.9,1,6.75,6.75,0,0,1,1.49,1.61,8.19,8.19,0,0,1,1,2.19,4.4,4.4,0,0,1,1.34-1.42l8.6-5.83v3.9a1.88,1.88,0,0,1-.23.95,1.86,1.86,0,0,1-.64.67L50,162.45a1.68,1.68,0,0,0-.59.6,2.07,2.07,0,0,0-.18,1v1.86Zm-3.11,0v-2.71a6.76,6.76,0,0,0-.3-2.13,4.18,4.18,0,0,0-.85-1.5,3.45,3.45,0,0,0-1.28-.88,4.45,4.45,0,0,0-1.62-.29,3.3,3.3,0,0,0-2.72,1.17,5.56,5.56,0,0,0-1,3.57v2.77Z"/><polygon points="58.33 144.38 58.33 148.73 35.05 148.73 35.05 144.38 58.33 144.38 58.33 144.38"/><path d="M35.05,136.88c0-.19,0-.35,0-.48a1.29,1.29,0,0,1,.1-.35,1.12,1.12,0,0,1,.21-.29,2.38,2.38,0,0,1,.36-.32l15.57-12.22-1.11.09-1,0H35.05v-3.81H58.33v2.23a1.65,1.65,0,0,1-.74,1.52L42.08,135.44c.35,0,.69-.06,1-.08l.92,0h14.3v3.81H35.05v-2.27Z"/><path d="M44.8,110.34v-1a2.53,2.53,0,0,0-.17-1,1.69,1.69,0,0,0-.53-.69L36,101.2a2.23,2.23,0,0,1-.72-.85,2.77,2.77,0,0,1-.2-1.12V95.5l9.67,7.84a5.91,5.91,0,0,1,.76.71,3.2,3.2,0,0,1,.5.72,3.28,3.28,0,0,1,.55-1,4.89,4.89,0,0,1,.9-.83l10.9-8.08v3.83a2.41,2.41,0,0,1-.22,1.15,1.78,1.78,0,0,1-.64.64l-8.59,6.58a2.07,2.07,0,0,0-.61.73,2.89,2.89,0,0,0-.18,1.14v1.37H58.33v4.33H35v-4.33Z"/><path d="M55.14,82.14a10.61,10.61,0,0,0-.27-2.55,10.15,10.15,0,0,0-.73-2.07H49.91v2.91a.89.89,0,0,1-.24.66.75.75,0,0,1-.57.24H46.66V73.59h9.41a12.92,12.92,0,0,1,1.12,1.84,11.15,11.15,0,0,1,.78,2,14.66,14.66,0,0,1,.46,2.32,22.42,22.42,0,0,1,.15,2.68,12.15,12.15,0,0,1-.88,4.68,11,11,0,0,1-2.47,3.7,11.11,11.11,0,0,1-3.76,2.44,12.63,12.63,0,0,1-4.78.88,13.37,13.37,0,0,1-4.82-.85,10.68,10.68,0,0,1-6.21-6.23,13.82,13.82,0,0,1-.87-5,12.94,12.94,0,0,1,.85-4.93,11.24,11.24,0,0,1,2.19-3.53l2,1.25a1.11,1.11,0,0,1,.59,1,1.46,1.46,0,0,1-.25.79l-.62,1.06A7.24,7.24,0,0,0,39,78.88a10,10,0,0,0-.37,1.46,11.54,11.54,0,0,0-.14,1.88,7.94,7.94,0,0,0,.58,3.11,6.56,6.56,0,0,0,1.66,2.38,7.46,7.46,0,0,0,2.59,1.51,10.24,10.24,0,0,0,3.38.53,10.72,10.72,0,0,0,3.58-.56,7.51,7.51,0,0,0,2.65-1.58,6.73,6.73,0,0,0,1.65-2.41,8.09,8.09,0,0,0,.57-3.06Z"/><polygon points="35.05 54.87 38.49 54.87 38.49 65.19 44.95 65.19 44.95 57.06 48.28 57.06 48.28 65.19 54.87 65.19 54.87 54.87 58.33 54.87 58.33 69.55 35.05 69.55 35.05 54.87 35.05 54.87"/><polygon points="54.75 46.79 54.75 37.47 58.33 37.47 58.33 51.12 35.05 51.12 35.05 46.79 54.75 46.79 54.75 46.79"/><path d="M46.69,13.8a12.6,12.6,0,0,1,4.7.86,10.6,10.6,0,0,1,6.08,6.11,13.08,13.08,0,0,1,.86,4.82v8.88H35.05V25.59a13.08,13.08,0,0,1,.86-4.82,10.8,10.8,0,0,1,2.4-3.71A10.67,10.67,0,0,1,42,14.66a12.52,12.52,0,0,1,4.7-.86Zm0,4.43a10.49,10.49,0,0,0-3.44.52,7.25,7.25,0,0,0-2.57,1.46,6.12,6.12,0,0,0-1.62,2.31,7.89,7.89,0,0,0-.57,3.07v4.52H54.88V25.59a8.07,8.07,0,0,0-.56-3.07,6.35,6.35,0,0,0-1.62-2.31,7.21,7.21,0,0,0-2.58-1.46,10.47,10.47,0,0,0-3.43-.52Z"/><path class="cls-4" d="M167.46,47.73s12.6.32,17-1.67a5.45,5.45,0,1,0-4.46-10c-4.45,2-12.59,11.62-12.59,11.62Z"/><path class="cls-2" d="M123.64,36.08c23.46,6.35,41,17.05,39.16,23.88s-22.4,7.22-45.86.88S75.93,43.79,77.78,37s22.39-7.23,45.86-.88Z"/><path class="cls-4" d="M116.16,19.35A16.49,16.49,0,1,1,99.68,35.83a16.49,16.49,0,0,1,16.48-16.48Z"/><path d="M108.27,30.84l1.75.47a9.61,9.61,0,0,1,1.67-2.39,7.94,7.94,0,0,1,2.15-1.59,7.22,7.22,0,0,1,2.48-.7,7.58,7.58,0,0,1,2.73.25,7.36,7.36,0,0,1,3,1.48,6.82,6.82,0,0,1,1.72,2.32l-1.45.82a1.5,1.5,0,0,1-.34.16.74.74,0,0,1-.44,0,.58.58,0,0,1-.3-.18,3.41,3.41,0,0,1-.28-.33c-.09-.13-.2-.27-.32-.42a3.22,3.22,0,0,0-.45-.46,3.7,3.7,0,0,0-.67-.43,4.81,4.81,0,0,0-1-.37,4,4,0,0,0-2.88.27,5.56,5.56,0,0,0-2.25,2.48L120,34l-.24.91a.74.74,0,0,1-.38.44,1,1,0,0,1-.73.06l-5.92-1.59a3.57,3.57,0,0,0-.12.4l-.19.69-.06.28,5.58,1.5-.24.9a.74.74,0,0,1-.38.44,1,1,0,0,1-.72.06l-4.52-1.21a5.72,5.72,0,0,0,.59,3.46A3.71,3.71,0,0,0,115,42a4.12,4.12,0,0,0,1.59.17,3.71,3.71,0,0,0,1.07-.27l.75-.36a.79.79,0,0,1,.59-.09.64.64,0,0,1,.25.11.67.67,0,0,1,.17.22l1.09,1.55a6.21,6.21,0,0,1-2.87,1.36,7.64,7.64,0,0,1-3.49-.19,7.94,7.94,0,0,1-2.64-1.22,6.46,6.46,0,0,1-1.78-1.91,7.3,7.3,0,0,1-.93-2.49,10.66,10.66,0,0,1-.08-2.95L107,35.51l.44-1.65,1.53.41a1.57,1.57,0,0,1,.06-.28l.18-.69.12-.4-1.52-.4.44-1.66Z"/><path class="cls-4" d="M138.64,55.7S156.27,48.85,161,43.45a8.72,8.72,0,1,0-13.1-11.52c-4.75,5.4-9.28,23.77-9.28,23.77Z"/></svg>