<svg id="Ebene_1" data-name="Ebene 1" xmlns="http://www.w3.org/2000/svg" viewBox="0 0 97.82 152.92"><defs><style>.cls-1{fill:#ff0136;}</style></defs><path d="M22.35,150c-1.9,1.89-4.63,2.83-8.17,2.83H.35v-4.55H14q7.21,0,7.21-6.23T14,135.83H.35v-4.48H14.18c3.54,0,6.27.94,8.17,2.82s2.85,4.51,2.85,7.89S24.25,148.08,22.35,150Z"/><path d="M1.4,109.36a8,8,0,0,1,3-3.62,8.43,8.43,0,0,1,4.65-1.26,8.44,8.44,0,0,1,4.64,1.26,8,8,0,0,1,3,3.62,13.54,13.54,0,0,1,1.05,5.55v5.53h7.07V125H.35V114.91A13.54,13.54,0,0,1,1.4,109.36Zm11.27,1.24a4.38,4.38,0,0,0-3.61-1.54,4.38,4.38,0,0,0-3.6,1.54,7,7,0,0,0-1.26,4.52v5.32h9.73v-5.32A7,7,0,0,0,12.67,110.6Z"/><path d="M.35,99.92V95.38H21V82.56h3.85V99.92Z"/><path d="M23.57,74.72a12,12,0,0,1-4.51,4.73,12.45,12.45,0,0,1-6.46,1.71,12.45,12.45,0,0,1-6.46-1.71,12,12,0,0,1-4.51-4.73,14.81,14.81,0,0,1,0-13.51,12.07,12.07,0,0,1,4.49-4.72,12.46,12.46,0,0,1,6.48-1.72,12.46,12.46,0,0,1,6.48,1.72,12.07,12.07,0,0,1,4.49,4.72,14.81,14.81,0,0,1,0,13.51ZM20.11,63.56A8,8,0,0,0,17,60.48a8.81,8.81,0,0,0-4.43-1.12,8.81,8.81,0,0,0-4.43,1.12,8,8,0,0,0-3.08,3.08,9.39,9.39,0,0,0,0,8.82,8,8,0,0,0,3.08,3.08,8.81,8.81,0,0,0,4.43,1.12A8.81,8.81,0,0,0,17,75.46a8,8,0,0,0,3.08-3.08,9.39,9.39,0,0,0,0-8.82Z"/><path d="M19.18,34.4V46.65l5.67,2.42v4.69l-24.5-11V38.25l24.5-11.06V32Zm-3.57,1.51L4.9,40.53l10.71,4.58Z"/><path d="M.35,24.08V13.37a15.42,15.42,0,0,1,1.52-7A11.29,11.29,0,0,1,6.18,1.68,12.15,12.15,0,0,1,12.6,0,12.15,12.15,0,0,1,19,1.68a11.29,11.29,0,0,1,4.31,4.73,15.42,15.42,0,0,1,1.52,7V24.08ZM21,13.58a10.34,10.34,0,0,0-1-4.74A7.35,7.35,0,0,0,17,5.69,8.65,8.65,0,0,0,12.6,4.58,8.65,8.65,0,0,0,8.17,5.69,7.35,7.35,0,0,0,5.23,8.84a10.34,10.34,0,0,0-1,4.74v6H21Z"/><path class="cls-1" d="M97.82,39a38.67,38.67,0,0,0-57.94-33V44.22l18.47-31L83.57,52.29h-12l2.17,23.14A38.7,38.7,0,0,0,97.82,39Z"/><path class="cls-1" d="M39.88,52.26V73.12a38.85,38.85,0,0,0,6,2.81l1.83-23.67Z"/><polygon points="83.57 52.29 58.35 13.17 39.88 44.22 39.88 52.26 47.73 52.26 45.9 75.93 39.94 152.92 81 152.92 73.72 75.42 71.55 52.28 83.57 52.29"/></svg>